<svg width="120" height="121" viewBox="0 0 120 121" fill="none" xmlns="http://www.w3.org/2000/svg">
<path d="M41.999 70.9995L53.2574 77.4995L40.2574 100.016L22.999 103.908L41.999 70.9995Z" fill="url(#paint0_linear_9985_447690)"/>
<path d="M64.5157 83.9995L53.2574 77.4995L40.2574 100.016L45.5157 116.908L64.5157 83.9995Z" fill="url(#paint1_linear_9985_447690)"/>
<path fill-rule="evenodd" clip-rule="evenodd" d="M67.2573 77.5L78.5156 71L97.5156 103.909L80.2583 100.017L75 116.909L56 84L67.2576 77.5004L67.2573 77.5Z" fill="url(#paint2_linear_9985_447690)"/>
<path d="M52.1429 8.86624C57.0049 6.05915 62.9951 6.05915 67.8571 8.86624L95.1584 24.6286C100.02 27.4357 103.016 32.6234 103.016 38.2376V69.7624C103.016 75.3766 100.02 80.5643 95.1584 83.3714L67.8571 99.1338C62.9951 101.941 57.0049 101.941 52.1429 99.1338L24.8416 83.3714C19.9796 80.5643 16.9844 75.3766 16.9844 69.7624V38.2376C16.9844 32.6234 19.9796 27.4357 24.8416 24.6286L52.1429 8.86624Z" fill="url(#paint3_linear_9985_447690)" stroke="url(#paint4_linear_9985_447690)" stroke-width="0.571429"/>
<g filter="url(#filter0_i_9985_447690)">
<path d="M54 13.4641C57.7128 11.3205 62.2872 11.3205 66 13.4641L92.1051 28.5359C95.8179 30.6795 98.1051 34.641 98.1051 38.9282V69.0718C98.1051 73.359 95.8179 77.3205 92.1051 79.4641L66 94.5359C62.2872 96.6795 57.7128 96.6795 54 94.5359L27.8949 79.4641C24.1821 77.3205 21.8949 73.359 21.8949 69.0718V38.9282C21.8949 34.641 24.1821 30.6795 27.8949 28.5359L54 13.4641Z" fill="url(#paint5_linear_9985_447690)"/>
</g>
<g filter="url(#filter1_ii_9985_447690)">
<path d="M54.5 19.1754C57.9034 17.2105 62.0966 17.2105 65.5 19.1754L87.409 31.8246C90.8124 33.7895 92.909 37.4209 92.909 41.3509V66.6491C92.909 70.5791 90.8124 74.2105 87.409 76.1754L65.5 88.8246C62.0966 90.7895 57.9034 90.7895 54.5 88.8246L32.591 76.1754C29.1876 74.2105 27.091 70.5791 27.091 66.6491V41.3509C27.091 37.4209 29.1876 33.7895 32.591 31.8246L54.5 19.1754Z" fill="url(#paint6_linear_9985_447690)"/>
</g>
<g filter="url(#filter2_d_9985_447690)">
<path d="M52.3561 28.8073C52.3561 28.8073 47.7715 28.6252 47.1873 25.0158C46.6031 21.4093 51.9338 23.9768 52.1592 21.9885C52.3878 20.0032 54.1086 19.8181 55.1183 20.5525C56.1247 21.2869 57.1565 20.5525 56.9343 19.3912C56.7121 18.2298 59.1504 17.161 60.1092 18.9642V27.0638L52.3561 28.8073Z" fill="#E8773B"/>
<path d="M60.1106 26.8816C60.1106 26.8816 51.2272 25.7472 46.7696 33.8318C42.3152 41.9165 40.261 57.2409 38.3466 62.6416C36.4321 68.0424 33.146 75.1209 30.2188 77.2257C35.3558 78.2288 37.6957 76.548 37.6957 76.548C37.6957 76.548 37.2163 81.7636 35.505 84.152C40.6865 84.0982 43.8709 77.2257 43.8709 77.2257C43.8709 77.2257 44.652 83.4265 43.0899 85.8089C46.6649 85.8089 50.5668 80.2798 51.151 77.2257C51.2209 81.8382 49.408 85.4745 49.408 85.4745C49.408 85.4745 54.1513 83.9967 55.4562 81.5516C55.4562 81.5516 55.6054 84.1549 55.4562 87.2151C58.2375 86.3582 60.1043 83.0175 60.1043 83.0175V26.8816H60.1106Z" fill="#7C5B5B"/>
<path d="M60.1106 26.8816C60.1106 26.8816 51.2272 25.7472 46.7696 33.8318C42.3152 41.9165 40.261 57.2409 38.3466 62.6416C36.4321 68.0424 33.146 75.1209 30.2188 77.2257C35.3558 78.2288 37.6957 76.548 37.6957 76.548C37.6957 76.548 37.2163 81.7636 35.505 84.152C40.6865 84.0982 43.8709 77.2257 43.8709 77.2257C43.8709 77.2257 44.652 83.4265 43.0899 85.8089C46.6649 85.8089 50.5668 80.2798 51.151 77.2257C51.2209 81.8382 49.408 85.4745 49.408 85.4745C49.408 85.4745 54.1513 83.9967 55.4562 81.5516C55.4562 81.5516 55.6054 84.1549 55.4562 87.2151C58.2375 86.3582 60.1043 83.0175 60.1043 83.0175V26.8816H60.1106Z" fill="url(#paint7_linear_9985_447690)"/>
<path d="M67.8635 28.8073C67.8635 28.8073 72.4481 28.6252 73.0323 25.0158C73.6165 21.4093 68.2858 23.9768 68.0604 21.9885C67.8318 20.0032 66.111 19.8181 65.1013 20.5525C64.0949 21.2869 63.063 20.5525 63.2853 19.3912C63.5075 18.2298 61.0692 17.161 60.1104 18.9642V27.0638L67.8635 28.8073Z" fill="#B3471C"/>
<path d="M60.1104 26.8816C60.1104 26.8816 68.9938 25.7472 73.4514 33.8318C77.909 41.9165 79.96 57.2409 81.8744 62.6416C83.7889 68.0424 87.075 75.1209 90.0023 77.2257C84.8652 78.2288 82.5253 76.548 82.5253 76.548C82.5253 76.548 83.0047 81.7636 84.716 84.152C79.5345 84.0982 76.3501 77.2257 76.3501 77.2257C76.3501 77.2257 75.569 83.4265 77.1311 85.8089C73.5561 85.8089 69.6542 80.2798 69.07 77.2257C69.0001 81.8382 70.813 85.4745 70.813 85.4745C70.813 85.4745 66.0697 83.9967 64.7648 81.5516C64.7648 81.5516 64.6156 84.1549 64.7648 87.2151C61.9836 86.3582 60.1167 83.0175 60.1167 83.0175V26.8816H60.1104Z" fill="#634444"/>
<path d="M60.1104 26.8816C60.1104 26.8816 68.9938 25.7472 73.4514 33.8318C77.909 41.9165 79.96 57.2409 81.8744 62.6416C83.7889 68.0424 87.075 75.1209 90.0023 77.2257C84.8652 78.2288 82.5253 76.548 82.5253 76.548C82.5253 76.548 83.0047 81.7636 84.716 84.152C79.5345 84.0982 76.3501 77.2257 76.3501 77.2257C76.3501 77.2257 75.569 83.4265 77.1311 85.8089C73.5561 85.8089 69.6542 80.2798 69.07 77.2257C69.0001 81.8382 70.813 85.4745 70.813 85.4745C70.813 85.4745 66.0697 83.9967 64.7648 81.5516C64.7648 81.5516 64.6156 84.1549 64.7648 87.2151C61.9836 86.3582 60.1167 83.0175 60.1167 83.0175V26.8816H60.1104Z" fill="url(#paint8_linear_9985_447690)"/>
<path d="M55.7383 53.6667C58.7202 54.3196 59.9921 56.9962 59.9921 57V47C59.6475 48.8748 57.8099 52.2043 55.7383 53.6667Z" fill="white"/>
<path d="M56.0046 56.8193C56.6142 58.4554 55.6395 61.614 53.1663 64.2741C50.6962 66.9341 50.4358 70.1107 51.8645 71.7616C53.2933 73.4126 55.7665 71.3347 55.7665 71.3347C55.4554 74.2993 58.9192 75.2158 60.1066 73.1618V59.9451C60.1066 59.9451 58.2334 57.1 56.0046 56.8223V56.8193Z" fill="#E8773B"/>
<path d="M64.246 53.6667C62.1787 52.2043 60.3367 48.8748 59.9922 47V57C59.9922 57 61.2598 54.3234 64.246 53.6667Z" fill="#FFD071"/>
<path d="M64.4485 71.3318C64.4485 71.3318 66.9186 73.4097 68.3505 71.7587C69.7792 70.1077 69.522 66.9282 67.0488 64.2711C64.5787 61.6111 63.604 58.4524 64.2104 56.8164C61.9816 57.097 60.1084 59.9392 60.1084 59.9392V73.1559C61.2958 75.2099 64.7565 74.2934 64.4485 71.3288V71.3318Z" fill="#B3471C"/>
<ellipse cx="71.1586" cy="47.5" rx="2.65864" ry="2.5" fill="#70320E"/>
<ellipse cx="49.8901" cy="47.6162" rx="2.65864" ry="2.5" fill="#70320E"/>
</g>
<path d="M32.2697 37.7148L33.0711 40.1336L35.5081 40.9291L33.0711 41.7246L32.2697 44.1434L31.4682 41.7246L29.0312 40.9291L31.4682 40.1336L32.2697 37.7148Z" fill="white"/>
<path d="M22.5563 27L24.4264 32.6438L30.1127 34.5L24.4264 36.3562L22.5563 42L20.6862 36.3562L15 34.5L20.6862 32.6438L22.5563 27Z" fill="white"/>
<path d="M41.999 70.9998L53.2573 77.4998L40.2573 100.016L22.999 103.909L41.999 70.9998Z" fill="white" style="mix-blend-mode:color"/>
<path d="M64.5157 83.9998L53.2573 77.4998L40.2573 100.016L45.5157 116.909L64.5157 83.9998Z" fill="white" style="mix-blend-mode:color"/>
<path d="M78.5156 70.9999L97.5156 103.909L80.2583 100.017L75 116.909L56 83.9999L78.5156 70.9999Z" fill="white" style="mix-blend-mode:color"/>
<path d="M52 8.61869C56.9504 5.76057 63.0496 5.76057 68 8.61869L95.3013 24.3811C100.252 27.2392 103.301 32.5212 103.301 38.2375V69.7623C103.301 75.4785 100.252 80.7606 95.3013 83.6187L68 99.3811C63.0496 102.239 56.9504 102.239 52 99.3811L24.6987 83.6187C19.7483 80.7606 16.6987 75.4785 16.6987 69.7623V38.2375C16.6987 32.5212 19.7483 27.2392 24.6987 24.3811L52 8.61869Z" fill="white" style="mix-blend-mode:color"/>
<path d="M54 13.464C57.7128 11.3204 62.2872 11.3204 66 13.464L92.1051 28.5358C95.8179 30.6794 98.1051 34.6409 98.1051 38.9281V69.0717C98.1051 73.3589 95.8179 77.3204 92.1051 79.464L66 94.5358C62.2872 96.6794 57.7128 96.6794 54 94.5358L27.8949 79.464C24.1821 77.3204 21.8949 73.3589 21.8949 69.0717V38.9281C21.8949 34.6409 24.1821 30.6794 27.8949 28.5358L54 13.464Z" fill="white" style="mix-blend-mode:color"/>
<path d="M54.5 19.1753C57.9034 17.2104 62.0966 17.2104 65.5 19.1753L87.409 31.8245C90.8124 33.7894 92.909 37.4208 92.909 41.3507V66.649C92.909 70.579 90.8124 74.2104 87.409 76.1753L65.5 88.8245C62.0966 90.7894 57.9034 90.7894 54.5 88.8245L32.591 76.1753C29.1876 74.2104 27.091 70.579 27.091 66.649V41.3507C27.091 37.4208 29.1876 33.7894 32.591 31.8245L54.5 19.1753Z" fill="white" style="mix-blend-mode:color"/>
<path d="M52.3562 28.8072C52.3562 28.8072 47.7716 28.6251 47.1874 25.0157C46.6032 21.4092 51.9339 23.9767 52.1593 21.9884C52.3879 20.0031 54.1087 19.818 55.1183 20.5524C56.1248 21.2868 57.1566 20.5524 56.9344 19.391C56.7121 18.2297 59.1505 17.1609 60.1093 18.9641V27.0637L52.3562 28.8072Z" fill="white" style="mix-blend-mode:color"/>
<path d="M60.1106 26.8815C60.1106 26.8815 51.2272 25.747 46.7696 33.8317C42.3152 41.9164 40.261 57.2408 38.3466 62.6415C36.4321 68.0423 33.146 75.1208 30.2188 77.2256C35.3558 78.2287 37.6957 76.5479 37.6957 76.5479C37.6957 76.5479 37.2163 81.7635 35.505 84.1518C40.6865 84.0981 43.8709 77.2256 43.8709 77.2256C43.8709 77.2256 44.652 83.4264 43.0899 85.8088C46.6649 85.8088 50.5668 80.2797 51.151 77.2256C51.2209 81.8381 49.408 85.4744 49.408 85.4744C49.408 85.4744 54.1513 83.9966 55.4562 81.5515C55.4562 81.5515 55.6054 84.1548 55.4562 87.2149C58.2374 86.3581 60.1043 83.0174 60.1043 83.0174V26.8815H60.1106Z" fill="white" style="mix-blend-mode:color"/>
<path d="M67.8635 28.8072C67.8635 28.8072 72.4481 28.6251 73.0323 25.0157C73.6165 21.4092 68.2858 23.9767 68.0604 21.9884C67.8318 20.0031 66.111 19.818 65.1014 20.5524C64.0949 21.2868 63.063 20.5524 63.2853 19.391C63.5075 18.2297 61.0692 17.1609 60.1104 18.9641V27.0637L67.8635 28.8072Z" fill="white" style="mix-blend-mode:color"/>
<path d="M60.1106 26.8815C60.1106 26.8815 68.9939 25.7468 73.4515 33.8315C77.9091 41.9162 79.9601 57.2406 81.8745 62.6413C83.789 68.042 87.0751 75.1206 90.0024 77.2253C84.8653 78.2285 82.5254 76.5476 82.5254 76.5476C82.5254 76.5476 83.0048 81.7632 84.7161 84.1516C79.5346 84.0979 76.3502 77.2253 76.3502 77.2253C76.3502 77.2253 75.5691 83.4262 77.1312 85.8086C73.5562 85.8086 69.6543 80.2795 69.0701 77.2253C69.0002 81.8379 70.8131 85.4742 70.8131 85.4742C70.8131 85.4742 66.0698 83.9964 64.7649 81.5513C64.7649 81.5513 64.6157 84.1546 64.7649 87.2147C61.9837 86.3579 60.1168 83.0172 60.1168 83.0172V26.8813L60.1106 26.8815Z" fill="white" style="mix-blend-mode:color"/>
<path d="M55.7379 53.6665C58.7199 54.3195 59.9918 56.9961 59.9918 56.9999V46.9999C59.6472 48.8746 57.8095 52.2042 55.7379 53.6665Z" fill="white" style="mix-blend-mode:color"/>
<path d="M56.0044 56.8192C56.614 58.4553 55.6393 61.6139 53.166 64.274C50.6959 66.934 50.4356 70.1106 51.8643 71.7615C53.293 73.4125 55.7663 71.3346 55.7663 71.3346C55.4552 74.2992 58.919 75.2157 60.1064 73.1617V59.945C60.1064 59.945 58.2332 57.0999 56.0044 56.8222V56.8192Z" fill="white" style="mix-blend-mode:color"/>
<path d="M64.2456 53.6665C62.1782 52.2042 60.3363 48.8746 59.9918 46.9999V56.9999C59.9918 56.9999 61.2594 54.3233 64.2456 53.6665Z" fill="white" style="mix-blend-mode:color"/>
<path d="M64.4482 71.3317C64.4482 71.3317 66.9183 73.4096 68.3502 71.7586C69.7789 70.1076 69.5217 66.9281 67.0484 64.271C64.5784 61.611 63.6037 58.4523 64.2101 56.8163C61.9813 57.0969 60.1081 59.9391 60.1081 59.9391V73.1558C61.2955 75.2098 64.7562 74.2933 64.4482 71.3287V71.3317Z" fill="white" style="mix-blend-mode:color"/>
<path d="M73.8175 47.4999C73.8175 48.8806 72.6272 49.9999 71.1589 49.9999C69.6905 49.9999 68.5002 48.8806 68.5002 47.4999C68.5002 46.1192 69.6905 44.9999 71.1589 44.9999C72.6272 44.9999 73.8175 46.1192 73.8175 47.4999Z" fill="white" style="mix-blend-mode:color"/>
<path d="M52.5484 47.6161C52.5484 48.9968 51.358 50.1161 49.8897 50.1161C48.4214 50.1161 47.2311 48.9968 47.2311 47.6161C47.2311 46.2354 48.4214 45.1161 49.8897 45.1161C51.358 45.1161 52.5484 46.2354 52.5484 47.6161Z" fill="white" style="mix-blend-mode:color"/>
<path d="M32.2697 37.7147L33.0711 40.1335L35.5081 40.929L33.0711 41.7245L32.2697 44.1433L31.4682 41.7245L29.0312 40.929L31.4682 40.1335L32.2697 37.7147Z" fill="white" style="mix-blend-mode:color"/>
<path d="M22.5563 26.9999L24.4264 32.6437L30.1127 34.4999L24.4264 36.356L22.5563 41.9999L20.6862 36.356L15 34.4999L20.6862 32.6437L22.5563 26.9999Z" fill="white" style="mix-blend-mode:color"/>
<defs>
<filter id="filter0_i_9985_447690" x="21.8945" y="10.7136" width="76.2109" height="85.43" filterUnits="userSpaceOnUse" color-interpolation-filters="sRGB">
<feFlood flood-opacity="0" result="BackgroundImageFix"/>
<feBlend mode="normal" in="SourceGraphic" in2="BackgroundImageFix" result="shape"/>
<feColorMatrix in="SourceAlpha" type="matrix" values="0 0 0 0 0 0 0 0 0 0 0 0 0 0 0 0 0 0 127 0" result="hardAlpha"/>
<feOffset dy="-1.14286"/>
<feGaussianBlur stdDeviation="0.571429"/>
<feComposite in2="hardAlpha" operator="arithmetic" k2="-1" k3="1"/>
<feColorMatrix type="matrix" values="0 0 0 0 0.616667 0 0 0 0 0.407 0 0 0 0 0 0 0 0 0.25 0"/>
<feBlend mode="normal" in2="shape" result="effect1_innerShadow_9985_447690"/>
</filter>
<filter id="filter1_ii_9985_447690" x="27.0908" y="16.5588" width="65.8184" height="74.8824" filterUnits="userSpaceOnUse" color-interpolation-filters="sRGB">
<feFlood flood-opacity="0" result="BackgroundImageFix"/>
<feBlend mode="normal" in="SourceGraphic" in2="BackgroundImageFix" result="shape"/>
<feColorMatrix in="SourceAlpha" type="matrix" values="0 0 0 0 0 0 0 0 0 0 0 0 0 0 0 0 0 0 127 0" result="hardAlpha"/>
<feOffset dy="1.14286"/>
<feGaussianBlur stdDeviation="1.14286"/>
<feComposite in2="hardAlpha" operator="arithmetic" k2="-1" k3="1"/>
<feColorMatrix type="matrix" values="0 0 0 0 0.7 0 0 0 0 0.465967 0 0 0 0 0.0116667 0 0 0 1 0"/>
<feBlend mode="normal" in2="shape" result="effect1_innerShadow_9985_447690"/>
<feColorMatrix in="SourceAlpha" type="matrix" values="0 0 0 0 0 0 0 0 0 0 0 0 0 0 0 0 0 0 127 0" result="hardAlpha"/>
<feOffset dy="-1.14286"/>
<feGaussianBlur stdDeviation="0.571429"/>
<feComposite in2="hardAlpha" operator="arithmetic" k2="-1" k3="1"/>
<feColorMatrix type="matrix" values="0 0 0 0 1 0 0 0 0 0.72 0 0 0 0 0 0 0 0 1 0"/>
<feBlend mode="normal" in2="effect1_innerShadow_9985_447690" result="effect2_innerShadow_9985_447690"/>
</filter>
<filter id="filter2_d_9985_447690" x="26.6683" y="15.3371" width="66.8842" height="76.3158" filterUnits="userSpaceOnUse" color-interpolation-filters="sRGB">
<feFlood flood-opacity="0" result="BackgroundImageFix"/>
<feColorMatrix in="SourceAlpha" type="matrix" values="0 0 0 0 0 0 0 0 0 0 0 0 0 0 0 0 0 0 127 0" result="hardAlpha"/>
<feOffset dy="0.88762"/>
<feGaussianBlur stdDeviation="1.77524"/>
<feColorMatrix type="matrix" values="0 0 0 0 0.417188 0 0 0 0 0.160564 0 0 0 0 0.00450867 0 0 0 1 0"/>
<feBlend mode="normal" in2="BackgroundImageFix" result="effect1_dropShadow_9985_447690"/>
<feBlend mode="normal" in="SourceGraphic" in2="effect1_dropShadow_9985_447690" result="shape"/>
</filter>
<linearGradient id="paint0_linear_9985_447690" x1="30.999" y1="89.9995" x2="53.999" y2="102.5" gradientUnits="userSpaceOnUse">
<stop offset="0.484531" stop-color="#FFC700"/>
<stop offset="0.484631" stop-color="#FFE590"/>
</linearGradient>
<linearGradient id="paint1_linear_9985_447690" x1="30.999" y1="89.9995" x2="53.999" y2="102.5" gradientUnits="userSpaceOnUse">
<stop offset="0.484531" stop-color="#FFC700"/>
<stop offset="0.484631" stop-color="#FFE590"/>
</linearGradient>
<linearGradient id="paint2_linear_9985_447690" x1="77.0106" y1="85.0327" x2="68.9049" y2="89.7125" gradientUnits="userSpaceOnUse">
<stop offset="0.484631" stop-color="#FFE590"/>
<stop offset="0.488859" stop-color="#FFC700"/>
</linearGradient>
<linearGradient id="paint3_linear_9985_447690" x1="27.9487" y1="16.8205" x2="94.6154" y2="91.1795" gradientUnits="userSpaceOnUse">
<stop stop-color="#FFECA9"/>
<stop offset="0.237301" stop-color="#FFD600"/>
<stop offset="1" stop-color="#FF9900"/>
</linearGradient>
<linearGradient id="paint4_linear_9985_447690" x1="60" y1="4" x2="60" y2="104" gradientUnits="userSpaceOnUse">
<stop stop-color="white" stop-opacity="0.5"/>
<stop offset="1" stop-color="white" stop-opacity="0"/>
</linearGradient>
<linearGradient id="paint5_linear_9985_447690" x1="31.8889" y1="20.3889" x2="88.1111" y2="88.2222" gradientUnits="userSpaceOnUse">
<stop stop-color="#FFC700"/>
<stop offset="1" stop-color="#D58500"/>
</linearGradient>
<linearGradient id="paint6_linear_9985_447690" x1="34.8529" y1="22.7059" x2="66.1471" y2="92" gradientUnits="userSpaceOnUse">
<stop stop-color="#FFB13C"/>
<stop offset="0.484375" stop-color="#B45F1D"/>
<stop offset="1" stop-color="#743110"/>
</linearGradient>
<linearGradient id="paint7_linear_9985_447690" x1="60.1106" y1="48.3677" x2="33.4876" y2="49.6478" gradientUnits="userSpaceOnUse">
<stop stop-color="#FFE587"/>
<stop offset="1" stop-color="#FFC548"/>
</linearGradient>
<linearGradient id="paint8_linear_9985_447690" x1="60.1103" y1="52.2993" x2="90.4765" y2="52.2993" gradientUnits="userSpaceOnUse">
<stop stop-color="#F4A431"/>
<stop offset="1" stop-color="#FFCE6A"/>
</linearGradient>
</defs>
</svg>
