<svg width="120" height="120" viewBox="0 0 120 120" fill="none" xmlns="http://www.w3.org/2000/svg">
<path d="M59.9977 0L77.2924 20.0893H42.7029L59.9977 0Z" fill="url(#paint0_linear_9985_449046)"/>
<path d="M60.0023 114.643L42.7076 94.5533L77.2971 94.5533L60.0023 114.643Z" fill="url(#paint1_linear_9985_449046)"/>
<g filter="url(#filter0_f_9985_449046)">
<path d="M59.5258 5.14258L61.5294 11.1896L67.6218 13.1783L61.5294 15.167L59.5258 21.214L57.5221 15.167L51.4297 13.1783L57.5221 11.1896L59.5258 5.14258Z" fill="white"/>
<path d="M59.5258 5.32425L61.4752 11.2075L61.4843 11.2349L61.5117 11.2439L67.4377 13.1783L61.5117 15.1127L61.4843 15.1217L61.4752 15.1491L59.5258 21.0323L57.5763 15.1491L57.5672 15.1217L57.5398 15.1127L51.6138 13.1783L57.5398 11.2439L57.5672 11.2349L57.5763 11.2075L59.5258 5.32425Z" stroke="#3E74FF" stroke-width="0.114286"/>
</g>
<path d="M110.015 85.9813L83.8389 90.8027L101.134 61.0706L110.015 85.9813Z" fill="url(#paint2_linear_9985_449046)"/>
<path d="M9.98516 28.6613L36.1611 23.8399L18.8663 53.572L9.98516 28.6613Z" fill="url(#paint3_linear_9985_449046)"/>
<path d="M110.012 28.661L101.131 53.5717L83.8366 23.8395L110.012 28.661Z" fill="url(#paint4_linear_9985_449046)"/>
<path d="M9.9875 85.9826L18.8686 61.0719L36.1634 90.804L9.9875 85.9826Z" fill="url(#paint5_linear_9985_449046)"/>
<path d="M104.513 56.786C104.513 80.8873 84.8273 100.429 60.5398 100.429C36.2522 100.429 16.567 80.8873 16.567 56.786C16.567 32.6847 36.2522 13.1431 60.5398 13.1431C84.8273 13.1431 104.513 32.6847 104.513 56.786Z" fill="url(#paint6_linear_9985_449046)" stroke="url(#paint7_linear_9985_449046)" stroke-width="0.571429"/>
<g filter="url(#filter1_i_9985_449046)">
<ellipse cx="60.5408" cy="56.7853" rx="38.8611" ry="38.5714" fill="url(#paint8_linear_9985_449046)"/>
</g>
<g filter="url(#filter2_ii_9985_449046)">
<ellipse cx="60.5405" cy="56.7854" rx="32.3843" ry="32.1429" fill="url(#paint9_linear_9985_449046)"/>
</g>
<path d="M43.2658 28.9287L44.0672 31.3475L46.5042 32.143L44.0672 32.9385L43.2658 35.3573L42.4643 32.9385L40.0273 32.143L42.4643 31.3475L43.2658 28.9287Z" fill="white"/>
<path d="M33.5524 18.2139L35.4225 23.8577L41.1088 25.7139L35.4225 27.57L33.5524 33.2139L31.6823 27.57L25.9961 25.7139L31.6823 23.8577L33.5524 18.2139Z" fill="white"/>
<g filter="url(#filter3_d_9985_449046)">
<path d="M60.2705 74.8212L77.8351 81.0671L60.2705 56.8916V74.8212Z" fill="url(#paint10_linear_9985_449046)"/>
<path d="M60.2705 74.8212L77.8351 81.0671L60.2705 56.8916V74.8212Z" fill="url(#paint11_linear_9985_449046)"/>
<path d="M60.2705 74.8212L42.706 81.0671L60.2705 56.8916V74.8212Z" fill="url(#paint12_linear_9985_449046)"/>
<path d="M60.2705 74.8212L42.706 81.0671L60.2705 56.8916V74.8212Z" fill="url(#paint13_linear_9985_449046)"/>
<path d="M77.8351 81.0671L77.3225 62.4321L60.2705 56.8916L77.8351 81.0671Z" fill="url(#paint14_linear_9985_449046)"/>
<path d="M77.8351 81.0671L77.3225 62.4321L60.2705 56.8916L77.8351 81.0671Z" fill="url(#paint15_linear_9985_449046)"/>
<path d="M42.706 81.0671L43.2185 62.4321L60.2705 56.8916L42.706 81.0671Z" fill="url(#paint16_linear_9985_449046)"/>
<path d="M42.706 81.0671L43.2185 62.4321L60.2705 56.8916L42.706 81.0671Z" fill="url(#paint17_linear_9985_449046)"/>
<path d="M31.8477 47.6577L43.2157 62.4325L60.2677 56.8919L31.8477 47.6577Z" fill="url(#paint18_linear_9985_449046)"/>
<path d="M31.8477 47.6577L43.2157 62.4325L60.2677 56.8919L31.8477 47.6577Z" fill="url(#paint19_linear_9985_449046)"/>
<path d="M88.6885 47.6577L77.3205 62.4325L60.2685 56.8919L88.6885 47.6577Z" fill="url(#paint20_linear_9985_449046)"/>
<path d="M88.6885 47.6577L77.3205 62.4325L60.2685 56.8919L88.6885 47.6577Z" fill="url(#paint21_linear_9985_449046)"/>
<path d="M88.6905 47.6573L70.8092 42.3862L60.2705 56.8915L88.6905 47.6573Z" fill="url(#paint22_linear_9985_449046)"/>
<path d="M88.6905 47.6573L70.8092 42.3862L60.2705 56.8915L88.6905 47.6573Z" fill="url(#paint23_linear_9985_449046)"/>
<path d="M31.8505 47.6573L49.7318 42.3862L60.2705 56.8915L31.8505 47.6573Z" fill="url(#paint24_linear_9985_449046)"/>
<path d="M31.8505 47.6573L49.7318 42.3862L60.2705 56.8915L31.8505 47.6573Z" fill="url(#paint25_linear_9985_449046)"/>
<path d="M70.8092 42.3861L60.2705 27.0088V41.9501V56.8914L70.8092 42.3861Z" fill="url(#paint26_linear_9985_449046)"/>
<path d="M70.8092 42.3861L60.2705 27.0088V41.9501V56.8914L70.8092 42.3861Z" fill="url(#paint27_linear_9985_449046)"/>
<path d="M49.7318 42.3861L60.2705 27.0088V56.8914L49.7318 42.3861Z" fill="url(#paint28_linear_9985_449046)"/>
<path d="M49.7318 42.3861L60.2705 27.0088V56.8914L49.7318 42.3861Z" fill="url(#paint29_linear_9985_449046)"/>
</g>
<defs>
<filter id="filter0_f_9985_449046" x="48.5725" y="2.28544" width="21.9067" height="21.7856" filterUnits="userSpaceOnUse" color-interpolation-filters="sRGB">
<feFlood flood-opacity="0" result="BackgroundImageFix"/>
<feBlend mode="normal" in="SourceGraphic" in2="BackgroundImageFix" result="shape"/>
<feGaussianBlur stdDeviation="1.42857" result="effect1_foregroundBlur_9985_449046"/>
</filter>
<filter id="filter1_i_9985_449046" x="21.6797" y="17.071" width="77.7227" height="78.2859" filterUnits="userSpaceOnUse" color-interpolation-filters="sRGB">
<feFlood flood-opacity="0" result="BackgroundImageFix"/>
<feBlend mode="normal" in="SourceGraphic" in2="BackgroundImageFix" result="shape"/>
<feColorMatrix in="SourceAlpha" type="matrix" values="0 0 0 0 0 0 0 0 0 0 0 0 0 0 0 0 0 0 127 0" result="hardAlpha"/>
<feOffset dy="-1.14286"/>
<feGaussianBlur stdDeviation="1.14286"/>
<feComposite in2="hardAlpha" operator="arithmetic" k2="-1" k3="1"/>
<feColorMatrix type="matrix" values="0 0 0 0 0 0 0 0 0 0.172667 0 0 0 0 0.616667 0 0 0 0.15 0"/>
<feBlend mode="normal" in2="shape" result="effect1_innerShadow_9985_449046"/>
</filter>
<filter id="filter2_ii_9985_449046" x="28.1562" y="23.4997" width="64.7686" height="66.5714" filterUnits="userSpaceOnUse" color-interpolation-filters="sRGB">
<feFlood flood-opacity="0" result="BackgroundImageFix"/>
<feBlend mode="normal" in="SourceGraphic" in2="BackgroundImageFix" result="shape"/>
<feColorMatrix in="SourceAlpha" type="matrix" values="0 0 0 0 0 0 0 0 0 0 0 0 0 0 0 0 0 0 127 0" result="hardAlpha"/>
<feOffset dy="1.14286"/>
<feGaussianBlur stdDeviation="2.85714"/>
<feComposite in2="hardAlpha" operator="arithmetic" k2="-1" k3="1"/>
<feColorMatrix type="matrix" values="0 0 0 0 0 0 0 0 0 0.193203 0 0 0 0 0.4875 0 0 0 1 0"/>
<feBlend mode="normal" in2="shape" result="effect1_innerShadow_9985_449046"/>
<feColorMatrix in="SourceAlpha" type="matrix" values="0 0 0 0 0 0 0 0 0 0 0 0 0 0 0 0 0 0 127 0" result="hardAlpha"/>
<feOffset dy="-1.14286"/>
<feGaussianBlur stdDeviation="2.85714"/>
<feComposite in2="hardAlpha" operator="arithmetic" k2="-1" k3="1"/>
<feColorMatrix type="matrix" values="0 0 0 0 0.4375 0 0 0 0 0.62875 0 0 0 0 1 0 0 0 1 0"/>
<feBlend mode="normal" in2="effect1_innerShadow_9985_449046" result="effect2_innerShadow_9985_449046"/>
</filter>
<filter id="filter3_d_9985_449046" x="27.5945" y="23.8189" width="65.3492" height="62.5645" filterUnits="userSpaceOnUse" color-interpolation-filters="sRGB">
<feFlood flood-opacity="0" result="BackgroundImageFix"/>
<feColorMatrix in="SourceAlpha" type="matrix" values="0 0 0 0 0 0 0 0 0 0 0 0 0 0 0 0 0 0 127 0" result="hardAlpha"/>
<feOffset dy="1.0633"/>
<feGaussianBlur stdDeviation="2.1266"/>
<feColorMatrix type="matrix" values="0 0 0 0 0.053728 0 0 0 0 0.223298 0 0 0 0 0.485091 0 0 0 0.8 0"/>
<feBlend mode="normal" in2="BackgroundImageFix" result="effect1_dropShadow_9985_449046"/>
<feBlend mode="normal" in="SourceGraphic" in2="effect1_dropShadow_9985_449046" result="shape"/>
</filter>
<linearGradient id="paint0_linear_9985_449046" x1="52.8083" y1="8.03571" x2="67.187" y2="8.03571" gradientUnits="userSpaceOnUse">
<stop offset="0.488759" stop-color="#E3EBFF"/>
<stop offset="0.488859" stop-color="#D1E5EE"/>
<stop offset="0.488959" stop-color="#B3C2D9"/>
</linearGradient>
<linearGradient id="paint1_linear_9985_449046" x1="67.1917" y1="106.607" x2="52.813" y2="106.607" gradientUnits="userSpaceOnUse">
<stop offset="0.488759" stop-color="#E3EBFF"/>
<stop offset="0.488859" stop-color="#D1E5EE"/>
<stop offset="0.488959" stop-color="#B3C2D9"/>
</linearGradient>
<linearGradient id="paint2_linear_9985_449046" x1="106.598" y1="75.7837" x2="99.4892" y2="88.1892" gradientUnits="userSpaceOnUse">
<stop offset="0.488759" stop-color="#E3EBFF"/>
<stop offset="0.488859" stop-color="#D1E5EE"/>
<stop offset="0.488959" stop-color="#B3C2D9"/>
</linearGradient>
<linearGradient id="paint3_linear_9985_449046" x1="13.4019" y1="38.8589" x2="20.5108" y2="26.4534" gradientUnits="userSpaceOnUse">
<stop offset="0.488759" stop-color="#E3EBFF"/>
<stop offset="0.488859" stop-color="#D1E5EE"/>
<stop offset="0.488959" stop-color="#B3C2D9"/>
</linearGradient>
<linearGradient id="paint4_linear_9985_449046" x1="99.4064" y1="26.4991" x2="106.515" y2="38.9046" gradientUnits="userSpaceOnUse">
<stop offset="0.488759" stop-color="#E3EBFF"/>
<stop offset="0.488859" stop-color="#D1E5EE"/>
<stop offset="0.488959" stop-color="#B3C2D9"/>
</linearGradient>
<linearGradient id="paint5_linear_9985_449046" x1="20.5936" y1="88.1444" x2="13.4846" y2="75.7389" gradientUnits="userSpaceOnUse">
<stop offset="0.488759" stop-color="#E3EBFF"/>
<stop offset="0.488859" stop-color="#D1E5EE"/>
<stop offset="0.488959" stop-color="#B3C2D9"/>
</linearGradient>
<linearGradient id="paint6_linear_9985_449046" x1="32.1689" y1="24.1212" x2="90.6911" y2="89.8862" gradientUnits="userSpaceOnUse">
<stop stop-color="#D5E3FF"/>
<stop offset="0.520833" stop-color="#F0F5FF"/>
<stop offset="1" stop-color="#D0DFFE"/>
</linearGradient>
<linearGradient id="paint7_linear_9985_449046" x1="60.5398" y1="12.8574" x2="60.5398" y2="100.715" gradientUnits="userSpaceOnUse">
<stop stop-color="white" stop-opacity="0.5"/>
<stop offset="1" stop-color="white" stop-opacity="0"/>
</linearGradient>
<linearGradient id="paint8_linear_9985_449046" x1="35.7129" y1="27.321" x2="84.9289" y2="87.1472" gradientUnits="userSpaceOnUse">
<stop stop-color="#B1CCFF"/>
<stop offset="1" stop-color="#D5E3FF"/>
</linearGradient>
<linearGradient id="paint9_linear_9985_449046" x1="39.1098" y1="30.3148" x2="65.4493" y2="89.0762" gradientUnits="userSpaceOnUse">
<stop stop-color="#78B5FF"/>
<stop offset="0.484375" stop-color="#376EC1"/>
<stop offset="1" stop-color="#4A13B0"/>
</linearGradient>
<linearGradient id="paint10_linear_9985_449046" x1="69.0528" y1="67.6708" x2="60.2705" y2="74.9419" gradientUnits="userSpaceOnUse">
<stop stop-color="#EFA733"/>
<stop offset="1" stop-color="#ED8B2A"/>
</linearGradient>
<linearGradient id="paint11_linear_9985_449046" x1="72.2077" y1="73.1474" x2="59.9798" y2="73.1474" gradientUnits="userSpaceOnUse">
<stop offset="0.21023" stop-color="#3A83FF"/>
<stop offset="1" stop-color="#22C9F7"/>
</linearGradient>
<linearGradient id="paint12_linear_9985_449046" x1="51.4883" y1="68.0207" x2="60.2705" y2="74.8625" gradientUnits="userSpaceOnUse">
<stop stop-color="#DB8B2C"/>
<stop offset="1" stop-color="#D46E2A"/>
</linearGradient>
<linearGradient id="paint13_linear_9985_449046" x1="45.6252" y1="76.869" x2="60.5613" y2="73.1474" gradientUnits="userSpaceOnUse">
<stop offset="0.21023" stop-color="#3F7EEA"/>
<stop offset="1" stop-color="#2462C7"/>
</linearGradient>
<linearGradient id="paint14_linear_9985_449046" x1="77.8351" y1="62.7501" x2="69.6191" y2="69.9329" gradientUnits="userSpaceOnUse">
<stop stop-color="#EFB646"/>
<stop offset="0.921875" stop-color="#FDD65C"/>
<stop offset="1" stop-color="#FDE086"/>
</linearGradient>
<linearGradient id="paint15_linear_9985_449046" x1="78.0559" y1="74.2107" x2="69.3136" y2="73.7318" gradientUnits="userSpaceOnUse">
<stop offset="0.0707375" stop-color="#1BA4FF"/>
<stop offset="1" stop-color="#53BAFF"/>
</linearGradient>
<linearGradient id="paint16_linear_9985_449046" x1="42.706" y1="62.2879" x2="51.9064" y2="68.9489" gradientUnits="userSpaceOnUse">
<stop stop-color="#EBA521"/>
<stop offset="0.822917" stop-color="#FDD674"/>
<stop offset="1" stop-color="#FFECBB"/>
</linearGradient>
<linearGradient id="paint17_linear_9985_449046" x1="42.9669" y1="62.5144" x2="50.4101" y2="71.5525" gradientUnits="userSpaceOnUse">
<stop offset="0.0070051" stop-color="#1F6FF8"/>
<stop offset="1" stop-color="#36A5FF"/>
</linearGradient>
<linearGradient id="paint18_linear_9985_449046" x1="46.0577" y1="52.3157" x2="42.9656" y2="62.4325" gradientUnits="userSpaceOnUse">
<stop stop-color="#EE9C25"/>
<stop offset="1" stop-color="#EFAD26"/>
</linearGradient>
<linearGradient id="paint19_linear_9985_449046" x1="46.0577" y1="47.6577" x2="46.0577" y2="62.4325" gradientUnits="userSpaceOnUse">
<stop offset="0.21023" stop-color="#5191FF"/>
<stop offset="1" stop-color="#4DC7FF"/>
</linearGradient>
<linearGradient id="paint20_linear_9985_449046" x1="74.4785" y1="52.7155" x2="78.5491" y2="62.4325" gradientUnits="userSpaceOnUse">
<stop stop-color="#EF904C"/>
<stop offset="1" stop-color="#F0A948"/>
</linearGradient>
<linearGradient id="paint21_linear_9985_449046" x1="74.4785" y1="47.6577" x2="74.4785" y2="62.4325" gradientUnits="userSpaceOnUse">
<stop offset="0.21023" stop-color="#357FFD"/>
<stop offset="1" stop-color="#36A5FF"/>
</linearGradient>
<linearGradient id="paint22_linear_9985_449046" x1="70.0792" y1="42.3862" x2="74.4805" y2="52.6588" gradientUnits="userSpaceOnUse">
<stop stop-color="#F3BA46"/>
<stop offset="1" stop-color="#FFDE80"/>
</linearGradient>
<linearGradient id="paint23_linear_9985_449046" x1="71.1444" y1="42.8431" x2="73.271" y2="52.4128" gradientUnits="userSpaceOnUse">
<stop offset="0.0707375" stop-color="#41B3FF"/>
<stop offset="1" stop-color="#6AE4FF"/>
</linearGradient>
<linearGradient id="paint24_linear_9985_449046" x1="31.8505" y1="47.5603" x2="56.3344" y2="52.2198" gradientUnits="userSpaceOnUse">
<stop stop-color="#FFF5D1"/>
<stop offset="1" stop-color="#E7BC51"/>
</linearGradient>
<linearGradient id="paint25_linear_9985_449046" x1="56.9431" y1="51.1256" x2="48.9993" y2="38.2533" gradientUnits="userSpaceOnUse">
<stop offset="0.0070051" stop-color="#4D8FFF"/>
<stop offset="1" stop-color="#4FD9FF"/>
</linearGradient>
<linearGradient id="paint26_linear_9985_449046" x1="65.5399" y1="27.0088" x2="65.5399" y2="56.8914" gradientUnits="userSpaceOnUse">
<stop stop-color="#F9CF59"/>
<stop offset="1" stop-color="#E4A940"/>
</linearGradient>
<linearGradient id="paint27_linear_9985_449046" x1="65.5399" y1="27.0088" x2="65.5399" y2="56.8914" gradientUnits="userSpaceOnUse">
<stop stop-color="#AFE6FF"/>
<stop offset="1" stop-color="#26AEF8"/>
</linearGradient>
<linearGradient id="paint28_linear_9985_449046" x1="55.0011" y1="27.0088" x2="59.2865" y2="54.6799" gradientUnits="userSpaceOnUse">
<stop stop-color="#FBD860"/>
<stop offset="1" stop-color="#FAF5D8"/>
</linearGradient>
<linearGradient id="paint29_linear_9985_449046" x1="56.2382" y1="27.95" x2="46.1196" y2="36.1461" gradientUnits="userSpaceOnUse">
<stop offset="0.0707375" stop-color="#66CCFF"/>
<stop offset="1" stop-color="#BAE7FF"/>
</linearGradient>
</defs>
</svg>
