<svg width="120" height="121" viewBox="0 0 120 121" fill="none" xmlns="http://www.w3.org/2000/svg">
<path d="M41.999 70.9995L53.2574 77.4995L40.2574 100.016L22.999 103.908L41.999 70.9995Z" fill="url(#paint0_linear_9985_449176)"/>
<path d="M64.5157 83.9995L53.2574 77.4995L40.2574 100.016L45.5157 116.908L64.5157 83.9995Z" fill="url(#paint1_linear_9985_449176)"/>
<path fill-rule="evenodd" clip-rule="evenodd" d="M67.2573 77.5L78.5156 71L97.5156 103.909L80.2583 100.017L75 116.909L56 84L67.2576 77.5004L67.2573 77.5Z" fill="url(#paint2_linear_9985_449176)"/>
<path d="M52.1429 8.86624C57.0049 6.05915 62.9951 6.05915 67.8571 8.86624L95.1584 24.6286C100.02 27.4357 103.016 32.6234 103.016 38.2376V69.7624C103.016 75.3766 100.02 80.5643 95.1584 83.3714L67.8571 99.1338C62.9951 101.941 57.0049 101.941 52.1429 99.1338L24.8416 83.3714C19.9796 80.5643 16.9844 75.3766 16.9844 69.7624V38.2376C16.9844 32.6234 19.9796 27.4357 24.8416 24.6286L52.1429 8.86624Z" fill="url(#paint3_linear_9985_449176)" stroke="url(#paint4_linear_9985_449176)" stroke-width="0.571429"/>
<g filter="url(#filter0_i_9985_449176)">
<path d="M54 13.4641C57.7128 11.3205 62.2872 11.3205 66 13.4641L92.1051 28.5359C95.8179 30.6795 98.1051 34.641 98.1051 38.9282V69.0718C98.1051 73.359 95.8179 77.3205 92.1051 79.4641L66 94.5359C62.2872 96.6795 57.7128 96.6795 54 94.5359L27.8949 79.4641C24.1821 77.3205 21.8949 73.359 21.8949 69.0718V38.9282C21.8949 34.641 24.1821 30.6795 27.8949 28.5359L54 13.4641Z" fill="url(#paint5_linear_9985_449176)"/>
</g>
<g filter="url(#filter1_ii_9985_449176)">
<path d="M54.5 19.1754C57.9034 17.2105 62.0966 17.2105 65.5 19.1754L87.409 31.8246C90.8124 33.7895 92.909 37.4209 92.909 41.3509V66.6491C92.909 70.5791 90.8124 74.2105 87.409 76.1754L65.5 88.8246C62.0966 90.7895 57.9034 90.7895 54.5 88.8246L32.591 76.1754C29.1876 74.2105 27.091 70.5791 27.091 66.6491V41.3509C27.091 37.4209 29.1876 33.7895 32.591 31.8246L54.5 19.1754Z" fill="url(#paint6_linear_9985_449176)"/>
</g>
<g clip-path="url(#clip0_9985_449176)" filter="url(#filter2_d_9985_449176)">
<path d="M72.5856 81.2962C72.5856 74.2782 66.8978 68.5903 59.8797 68.5903C52.8617 68.5903 47.1738 74.2782 47.1738 81.2962C47.1738 88.3143 52.8617 91.4932 59.8797 91.4932C66.8978 91.4932 72.5856 88.3111 72.5856 81.2962Z" fill="#382323"/>
<path d="M72.5856 81.2962C72.5856 74.2782 66.8978 68.5903 59.8797 68.5903C52.8617 68.5903 47.1738 74.2782 47.1738 81.2962C47.1738 88.3143 52.8617 91.4932 59.8797 91.4932C66.8978 91.4932 72.5856 88.3111 72.5856 81.2962Z" fill="url(#paint7_linear_9985_449176)"/>
<path d="M29.0305 46.9118C33.0822 42.8601 38.361 41.575 40.8249 44.0389C43.2888 46.5028 42.0037 51.7848 37.952 55.8333C33.9035 59.8851 26.1575 58.7063 26.1575 58.7063C26.1575 58.7063 24.9787 50.9603 29.0305 46.9118Z" fill="#7C5B5B"/>
<path d="M29.0305 46.9118C33.0822 42.8601 38.361 41.575 40.8249 44.0389C43.2888 46.5028 42.0037 51.7848 37.952 55.8333C33.9035 59.8851 26.1575 58.7063 26.1575 58.7063C26.1575 58.7063 24.9787 50.9603 29.0305 46.9118Z" fill="url(#paint8_linear_9985_449176)"/>
<path d="M30.739 49.2274C32.9645 47.0018 35.8632 46.2965 37.2159 47.6492C38.5687 49.0019 37.8633 51.9006 35.6378 54.1261C33.4122 56.3517 29.1608 55.7043 29.1608 55.7043C29.1608 55.7043 28.5134 51.4529 30.739 49.2274Z" fill="#B75C27"/>
<path d="M90.7259 46.9118C86.6742 42.8601 81.3954 41.575 78.9315 44.0389C76.4676 46.5028 77.7527 51.7848 81.8044 55.8333C85.8561 59.8851 93.5988 58.7063 93.5988 58.7063C93.5988 58.7063 94.7776 50.9603 90.7259 46.9118Z" fill="url(#paint9_linear_9985_449176)"/>
<path d="M89.0056 49.1664C86.7607 46.9215 83.833 46.2097 82.4674 47.5753C81.1018 48.9409 81.8136 51.8686 84.0585 54.1135C86.3033 56.3583 90.5966 55.7045 90.5966 55.7045C90.5966 55.7045 91.2504 51.4112 89.0056 49.1664Z" fill="#70320E"/>
<path d="M48.5458 35.7841C48.5458 35.7841 42.6293 31.9578 42.9352 24.7755C43.2444 17.5932 51.3672 15.0327 51.3672 15.0327C51.3672 15.0327 39.2603 13.9828 33.2697 24.0509C27.2791 34.119 36.3423 47.5785 43.2992 42.2997C50.256 37.0209 48.5458 35.7873 48.5458 35.7873V35.7841Z" fill="#5B3D3D"/>
<path d="M48.5458 35.7841C48.5458 35.7841 42.6293 31.9578 42.9352 24.7755C43.2444 17.5932 51.3672 15.0327 51.3672 15.0327C51.3672 15.0327 39.2603 13.9828 33.2697 24.0509C27.2791 34.119 36.3423 47.5785 43.2992 42.2997C50.256 37.0209 48.5458 35.7873 48.5458 35.7873V35.7841Z" fill="url(#paint10_linear_9985_449176)"/>
<path d="M35.81 37.9291C35.5717 34.0932 39.1757 31.5198 42.8023 32.0093C43.2886 32.077 43.7718 32.1994 44.2098 32.428C43.2435 32.5633 42.3578 32.734 41.4979 32.9756C38.5348 33.7582 36.8407 34.9177 35.8068 37.9291H35.81Z" fill="#FFB65E"/>
<path d="M35.0615 29.0331C36.0857 26.3405 40.7172 25.2229 42.0763 28.1763C41.4193 27.8929 40.8363 27.7351 40.2469 27.6578C38.3918 27.3615 36.5849 27.8929 35.0615 29.0331Z" fill="#FFB65E"/>
<path d="M37.6914 21.3902C39.0055 19.9699 42.2552 21.0231 41.6304 23.1552C40.4355 22.1278 39.2825 21.4772 37.6914 21.3902Z" fill="#FFB65E"/>
<path d="M59.8771 33.626C46.9651 33.626 38.2207 34.473 38.2207 49.7394C38.2207 55.2405 42.4689 59.8269 46.4562 66.7354C49.9572 72.8033 39.7409 79.2255 50.0119 82.5848C52.231 83.3094 55.3809 84.2982 59.8771 84.2982" fill="#7C5B5B"/>
<path d="M59.8771 33.626C46.9651 33.626 38.2207 34.473 38.2207 49.7394C38.2207 55.2405 42.4689 59.8269 46.4562 66.7354C49.9572 72.8033 39.7409 79.2255 50.0119 82.5848C52.231 83.3094 55.3809 84.2982 59.8771 84.2982" fill="url(#paint11_linear_9985_449176)"/>
<path d="M56.8863 78.153C58.1714 79.8117 57.4371 82.5332 57.4371 82.5332C57.4371 82.5332 54.6157 82.5655 53.3306 80.91C52.0455 79.2513 51.7975 77.2898 52.7799 76.5297C53.7622 75.7696 55.6013 76.4975 56.8863 78.1562V78.153Z" fill="#382323"/>
<path d="M56.8863 78.153C58.1714 79.8117 57.4371 82.5332 57.4371 82.5332C57.4371 82.5332 54.6157 82.5655 53.3306 80.91C52.0455 79.2513 51.7975 77.2898 52.7799 76.5297C53.7622 75.7696 55.6013 76.4975 56.8863 78.1562V78.153Z" fill="url(#paint12_linear_9985_449176)"/>
<path d="M71.2101 35.7836C71.2101 35.7836 77.1266 31.9573 76.8206 24.7751C76.5114 17.5928 68.3887 15.0322 68.3887 15.0322C68.3887 15.0322 80.4955 13.9823 86.4861 24.0504C92.4767 34.1185 83.4135 47.578 76.4567 42.2992C69.4998 37.0204 71.2101 35.7868 71.2101 35.7868V35.7836Z" fill="#382323"/>
<path d="M71.2101 35.7836C71.2101 35.7836 77.1266 31.9573 76.8206 24.7751C76.5114 17.5928 68.3887 15.0322 68.3887 15.0322C68.3887 15.0322 80.4955 13.9823 86.4861 24.0504C92.4767 34.1185 83.4135 47.578 76.4567 42.2992C69.4998 37.0204 71.2101 35.7868 71.2101 35.7868V35.7836Z" fill="url(#paint13_linear_9985_449176)"/>
<path d="M83.9469 37.9293C82.9195 34.9243 81.2093 33.752 78.2558 32.9758C77.3959 32.7342 76.5102 32.5667 75.5439 32.4282C75.982 32.1995 76.4651 32.0772 76.9514 32.0095C80.578 31.5167 84.182 34.0934 83.9437 37.9293H83.9469Z" fill="#FFB65E"/>
<path d="M84.6945 29.0331C83.1743 27.893 81.3642 27.3648 79.5091 27.6579C78.9197 27.7352 78.3367 27.893 77.6797 28.1764C77.7924 27.8254 78.0275 27.5323 78.2949 27.2811C80.2949 25.5064 83.7444 26.6852 84.6945 29.0331Z" fill="#FFB65E"/>
<path d="M82.0631 21.3902C80.4721 21.4772 79.319 22.1278 78.1241 23.1552C77.5025 21.0231 80.7491 19.9699 82.0631 21.3902Z" fill="#FFB65E"/>
<path d="M59.8789 33.6255C72.7909 33.6255 81.5353 34.4725 81.5353 49.739C81.5353 55.24 77.2871 59.8264 73.2998 66.7349C69.7989 72.8028 80.0151 79.225 69.7441 82.5843C67.525 83.3089 64.3751 84.2977 59.8789 84.2977" fill="#634444"/>
<path d="M59.8789 33.6255C72.7909 33.6255 81.5353 34.4725 81.5353 49.739C81.5353 55.24 77.2871 59.8264 73.2998 66.7349C69.7989 72.8028 80.0151 79.225 69.7441 82.5843C67.525 83.3089 64.3751 84.2977 59.8789 84.2977" fill="url(#paint14_linear_9985_449176)"/>
<path d="M62.871 78.1525C61.5859 79.8112 62.3202 82.5328 62.3202 82.5328C62.3202 82.5328 65.1416 82.565 66.4267 80.9095C67.7118 79.2508 67.9598 77.2894 66.9774 76.5293C65.9951 75.7692 64.156 76.497 62.871 78.1557V78.1525Z" fill="#382323"/>
<path d="M62.871 78.1525C61.5859 79.8112 62.3202 82.5328 62.3202 82.5328C62.3202 82.5328 65.1416 82.565 66.4267 80.9095C67.7118 79.2508 67.9598 77.2894 66.9774 76.5293C65.9951 75.7692 64.156 76.497 62.871 78.1557V78.1525Z" fill="url(#paint15_linear_9985_449176)"/>
<path d="M62.9268 81.2319C63.6869 82.0049 64.1572 83.0613 64.1572 84.2337C64.1572 86.5977 62.2408 88.5141 59.88 88.5141C57.5192 88.5141 55.5996 86.5977 55.5996 84.2337C55.5996 83.0613 56.0666 82.0049 56.8299 81.2319" stroke="#FFF5A9" stroke-width="0.966228" stroke-miterlimit="10" stroke-linecap="round"/>
<circle cx="70.3789" cy="55.5" r="2.5" fill="#70320E"/>
<circle cx="49.3789" cy="55.6162" r="2.5" fill="#70320E"/>
</g>
<path d="M32.2697 37.7148L33.0711 40.1336L35.5081 40.9291L33.0711 41.7246L32.2697 44.1434L31.4682 41.7246L29.0312 40.9291L31.4682 40.1336L32.2697 37.7148Z" fill="white"/>
<path d="M22.5563 27L24.4264 32.6438L30.1127 34.5L24.4264 36.3562L22.5563 42L20.6862 36.3562L15 34.5L20.6862 32.6438L22.5563 27Z" fill="white"/>
<defs>
<filter id="filter0_i_9985_449176" x="21.8945" y="10.7136" width="76.2109" height="85.43" filterUnits="userSpaceOnUse" color-interpolation-filters="sRGB">
<feFlood flood-opacity="0" result="BackgroundImageFix"/>
<feBlend mode="normal" in="SourceGraphic" in2="BackgroundImageFix" result="shape"/>
<feColorMatrix in="SourceAlpha" type="matrix" values="0 0 0 0 0 0 0 0 0 0 0 0 0 0 0 0 0 0 127 0" result="hardAlpha"/>
<feOffset dy="-1.14286"/>
<feGaussianBlur stdDeviation="0.571429"/>
<feComposite in2="hardAlpha" operator="arithmetic" k2="-1" k3="1"/>
<feColorMatrix type="matrix" values="0 0 0 0 0.616667 0 0 0 0 0.407 0 0 0 0 0 0 0 0 0.25 0"/>
<feBlend mode="normal" in2="shape" result="effect1_innerShadow_9985_449176"/>
</filter>
<filter id="filter1_ii_9985_449176" x="27.0908" y="16.5588" width="65.8184" height="74.8824" filterUnits="userSpaceOnUse" color-interpolation-filters="sRGB">
<feFlood flood-opacity="0" result="BackgroundImageFix"/>
<feBlend mode="normal" in="SourceGraphic" in2="BackgroundImageFix" result="shape"/>
<feColorMatrix in="SourceAlpha" type="matrix" values="0 0 0 0 0 0 0 0 0 0 0 0 0 0 0 0 0 0 127 0" result="hardAlpha"/>
<feOffset dy="1.14286"/>
<feGaussianBlur stdDeviation="1.14286"/>
<feComposite in2="hardAlpha" operator="arithmetic" k2="-1" k3="1"/>
<feColorMatrix type="matrix" values="0 0 0 0 0.7 0 0 0 0 0.465967 0 0 0 0 0.0116667 0 0 0 1 0"/>
<feBlend mode="normal" in2="shape" result="effect1_innerShadow_9985_449176"/>
<feColorMatrix in="SourceAlpha" type="matrix" values="0 0 0 0 0 0 0 0 0 0 0 0 0 0 0 0 0 0 127 0" result="hardAlpha"/>
<feOffset dy="-1.14286"/>
<feGaussianBlur stdDeviation="0.571429"/>
<feComposite in2="hardAlpha" operator="arithmetic" k2="-1" k3="1"/>
<feColorMatrix type="matrix" values="0 0 0 0 1 0 0 0 0 0.72 0 0 0 0 0 0 0 0 1 0"/>
<feBlend mode="normal" in2="effect1_innerShadow_9985_449176" result="effect2_innerShadow_9985_449176"/>
</filter>
<filter id="filter2_d_9985_449176" x="22.4495" y="12.3371" width="74.8627" height="83.5941" filterUnits="userSpaceOnUse" color-interpolation-filters="sRGB">
<feFlood flood-opacity="0" result="BackgroundImageFix"/>
<feColorMatrix in="SourceAlpha" type="matrix" values="0 0 0 0 0 0 0 0 0 0 0 0 0 0 0 0 0 0 127 0" result="hardAlpha"/>
<feOffset dy="0.88762"/>
<feGaussianBlur stdDeviation="1.77524"/>
<feColorMatrix type="matrix" values="0 0 0 0 0.417188 0 0 0 0 0.160564 0 0 0 0 0.00450867 0 0 0 1 0"/>
<feBlend mode="normal" in2="BackgroundImageFix" result="effect1_dropShadow_9985_449176"/>
<feBlend mode="normal" in="SourceGraphic" in2="effect1_dropShadow_9985_449176" result="shape"/>
</filter>
<linearGradient id="paint0_linear_9985_449176" x1="30.999" y1="89.9995" x2="53.999" y2="102.5" gradientUnits="userSpaceOnUse">
<stop offset="0.484531" stop-color="#FFC700"/>
<stop offset="0.484631" stop-color="#FFE590"/>
</linearGradient>
<linearGradient id="paint1_linear_9985_449176" x1="30.999" y1="89.9995" x2="53.999" y2="102.5" gradientUnits="userSpaceOnUse">
<stop offset="0.484531" stop-color="#FFC700"/>
<stop offset="0.484631" stop-color="#FFE590"/>
</linearGradient>
<linearGradient id="paint2_linear_9985_449176" x1="77.0106" y1="85.0327" x2="68.9049" y2="89.7125" gradientUnits="userSpaceOnUse">
<stop offset="0.484631" stop-color="#FFE590"/>
<stop offset="0.488859" stop-color="#FFC700"/>
</linearGradient>
<linearGradient id="paint3_linear_9985_449176" x1="27.9487" y1="16.8205" x2="94.6154" y2="91.1795" gradientUnits="userSpaceOnUse">
<stop stop-color="#FFECA9"/>
<stop offset="0.237301" stop-color="#FFD600"/>
<stop offset="1" stop-color="#FF9900"/>
</linearGradient>
<linearGradient id="paint4_linear_9985_449176" x1="60" y1="4" x2="60" y2="104" gradientUnits="userSpaceOnUse">
<stop stop-color="white" stop-opacity="0.5"/>
<stop offset="1" stop-color="white" stop-opacity="0"/>
</linearGradient>
<linearGradient id="paint5_linear_9985_449176" x1="31.8889" y1="20.3889" x2="88.1111" y2="88.2222" gradientUnits="userSpaceOnUse">
<stop stop-color="#FFC700"/>
<stop offset="1" stop-color="#D58500"/>
</linearGradient>
<linearGradient id="paint6_linear_9985_449176" x1="34.8529" y1="22.7059" x2="66.1471" y2="92" gradientUnits="userSpaceOnUse">
<stop stop-color="#FFB13C"/>
<stop offset="0.484375" stop-color="#B45F1D"/>
<stop offset="1" stop-color="#743110"/>
</linearGradient>
<linearGradient id="paint7_linear_9985_449176" x1="49.3809" y1="88.9995" x2="69.8809" y2="88.4995" gradientUnits="userSpaceOnUse">
<stop stop-color="#B75C27"/>
<stop offset="1" stop-color="#B56131"/>
</linearGradient>
<linearGradient id="paint8_linear_9985_449176" x1="38.877" y1="47.5" x2="24.6779" y2="49.8971" gradientUnits="userSpaceOnUse">
<stop stop-color="#E99921"/>
<stop offset="1" stop-color="#FDB542"/>
</linearGradient>
<linearGradient id="paint9_linear_9985_449176" x1="85.719" y1="48.2912" x2="79.6459" y2="55.8278" gradientUnits="userSpaceOnUse">
<stop stop-color="#E88B48"/>
<stop offset="1" stop-color="#F0A948"/>
</linearGradient>
<linearGradient id="paint10_linear_9985_449176" x1="33.0578" y1="40.3848" x2="49.2388" y2="40.1344" gradientUnits="userSpaceOnUse">
<stop stop-color="#DC7F11"/>
<stop offset="1" stop-color="#A3592F"/>
</linearGradient>
<linearGradient id="paint11_linear_9985_449176" x1="59.8771" y1="51.701" x2="40.5776" y2="52.5021" gradientUnits="userSpaceOnUse">
<stop stop-color="#FFE587"/>
<stop offset="1" stop-color="#FFC548"/>
</linearGradient>
<linearGradient id="paint12_linear_9985_449176" x1="52.3779" y1="76.501" x2="58.2383" y2="81.4904" gradientUnits="userSpaceOnUse">
<stop stop-color="#B75C28"/>
<stop offset="1" stop-color="#924111"/>
</linearGradient>
<linearGradient id="paint13_linear_9985_449176" x1="70.1301" y1="40.3843" x2="86.311" y2="40.1339" gradientUnits="userSpaceOnUse">
<stop stop-color="#DC7F11"/>
<stop offset="1" stop-color="#A3592F"/>
</linearGradient>
<linearGradient id="paint14_linear_9985_449176" x1="59.8789" y1="54.9995" x2="81.8789" y2="54.9995" gradientUnits="userSpaceOnUse">
<stop stop-color="#F4A431"/>
<stop offset="1" stop-color="#FFCE6A"/>
</linearGradient>
<linearGradient id="paint15_linear_9985_449176" x1="66.3809" y1="76.4995" x2="63.9867" y2="82.9124" gradientUnits="userSpaceOnUse">
<stop stop-color="#B75C28"/>
<stop offset="1" stop-color="#924111"/>
</linearGradient>
<clipPath id="clip0_9985_449176">
<rect width="67.7616" height="76.4931" fill="white" transform="translate(26 15)"/>
</clipPath>
</defs>
</svg>
