<svg width="120" height="121" viewBox="0 0 120 121" fill="none" xmlns="http://www.w3.org/2000/svg">
<path d="M41.999 70.9995L53.2574 77.4995L40.2574 100.016L22.999 103.908L41.999 70.9995Z" fill="url(#paint0_linear_9985_449313)"/>
<path d="M64.5157 83.9995L53.2574 77.4995L40.2574 100.016L45.5157 116.908L64.5157 83.9995Z" fill="url(#paint1_linear_9985_449313)"/>
<path fill-rule="evenodd" clip-rule="evenodd" d="M67.2573 77.5L78.5156 71L97.5156 103.909L80.2583 100.017L75 116.909L56 84L67.2576 77.5004L67.2573 77.5Z" fill="url(#paint2_linear_9985_449313)"/>
<path d="M52.1429 8.86624C57.0049 6.05915 62.9951 6.05915 67.8571 8.86624L95.1584 24.6286C100.02 27.4357 103.016 32.6234 103.016 38.2376V69.7624C103.016 75.3766 100.02 80.5643 95.1584 83.3714L67.8571 99.1338C62.9951 101.941 57.0049 101.941 52.1429 99.1338L24.8416 83.3714C19.9796 80.5643 16.9844 75.3766 16.9844 69.7624V38.2376C16.9844 32.6234 19.9796 27.4357 24.8416 24.6286L52.1429 8.86624Z" fill="url(#paint3_linear_9985_449313)" stroke="url(#paint4_linear_9985_449313)" stroke-width="0.571429"/>
<g filter="url(#filter0_i_9985_449313)">
<path d="M54 13.4641C57.7128 11.3205 62.2872 11.3205 66 13.4641L92.1051 28.5359C95.8179 30.6795 98.1051 34.641 98.1051 38.9282V69.0718C98.1051 73.359 95.8179 77.3205 92.1051 79.4641L66 94.5359C62.2872 96.6795 57.7128 96.6795 54 94.5359L27.8949 79.4641C24.1821 77.3205 21.8949 73.359 21.8949 69.0718V38.9282C21.8949 34.641 24.1821 30.6795 27.8949 28.5359L54 13.4641Z" fill="url(#paint5_linear_9985_449313)"/>
</g>
<g filter="url(#filter1_ii_9985_449313)">
<path d="M54.5 19.1754C57.9034 17.2105 62.0966 17.2105 65.5 19.1754L87.409 31.8246C90.8124 33.7895 92.909 37.4209 92.909 41.3509V66.6491C92.909 70.5791 90.8124 74.2105 87.409 76.1754L65.5 88.8246C62.0966 90.7895 57.9034 90.7895 54.5 88.8246L32.591 76.1754C29.1876 74.2105 27.091 70.5791 27.091 66.6491V41.3509C27.091 37.4209 29.1876 33.7895 32.591 31.8246L54.5 19.1754Z" fill="url(#paint6_linear_9985_449313)"/>
</g>
<g filter="url(#filter2_d_9985_449313)">
<path d="M51.1073 26.2764C51.1073 26.2764 47.9821 23.3809 41.5775 24.6745C35.1728 25.9712 30.2946 31.7652 30.219 40.5304C30.1435 49.2986 31.7423 59.2093 30.219 61.6484C28.6957 64.0875 35.327 67.7477 43.6358 56.9212C51.9445 46.0948 51.1073 26.2734 51.1073 26.2734V26.2764Z" fill="#FFB65E"/>
<path d="M51.1073 26.2764C51.1073 26.2764 47.9821 23.3809 41.5775 24.6745C35.1728 25.9712 30.2946 31.7652 30.219 40.5304C30.1435 49.2986 31.7423 59.2093 30.219 61.6484C28.6957 64.0875 35.327 67.7477 43.6358 56.9212C51.9445 46.0948 51.1073 26.2734 51.1073 26.2734V26.2764Z" fill="url(#paint7_linear_9985_449313)"/>
<path d="M54.7162 71.4466C48.7831 70.425 42.4601 71.0023 36.9048 73.387C36.53 73.5653 35.587 74.0308 35.2031 74.2122C35.587 74.0097 36.5088 73.523 36.8776 73.3266C40.8884 71.4224 45.3314 70.5278 49.7593 70.4552C51.458 70.431 53.1415 70.5127 54.8461 70.7696L54.7162 71.4436V71.4466Z" fill="#8F5033"/>
<path d="M54.3991 72.2624C48.3784 72.2019 42.2276 73.7766 37.1227 77.0167C36.7812 77.2525 35.9228 77.86 35.5752 78.1018C35.9198 77.8388 36.754 77.2132 37.0864 76.9623C40.7436 74.4446 44.9872 72.8518 49.3486 72.075C51.02 71.7818 52.6975 71.5914 54.4203 71.5732L54.3991 72.2593V72.2624Z" fill="#8F5033"/>
<path d="M56.429 73.227C50.9825 73.8859 45.5571 76.053 41.4315 79.7223L40.6094 80.4749C40.8814 80.2059 41.5373 79.5591 41.8002 79.2992C43.5926 77.6912 45.6448 76.2978 47.8119 75.2551C50.514 73.9373 53.3702 72.9943 56.3625 72.5439L56.429 73.227Z" fill="#8F5033"/>
<path d="M64.3477 70.7709C70.6102 69.9246 77.2203 70.7406 82.8754 73.6211L83.9907 74.2105L82.8573 73.6604C78.6983 71.6806 74.0195 70.9039 69.4345 70.9703C67.7721 71.0036 66.0886 71.1457 64.4776 71.4419L64.3477 70.7679V70.7709Z" fill="#8F5033"/>
<path d="M64.7744 71.5782C71.0853 71.7414 77.493 73.6033 82.613 77.3451L83.6195 78.1038L82.5889 77.3784C78.7987 74.7609 74.3043 73.2497 69.7675 72.5847C68.1203 72.352 66.4368 72.225 64.7986 72.2613L64.7774 71.5752L64.7744 71.5782Z" fill="#8F5033"/>
<path d="M62.8312 72.542C68.19 73.3883 73.3493 75.6672 77.3934 79.2942C77.6564 79.5511 78.3153 80.207 78.5843 80.4699L77.7621 79.7173C77.3118 79.276 76.5411 78.7078 76.0424 78.3088C75.7341 78.1003 74.9633 77.5714 74.6641 77.3719C72.3096 75.9181 69.7405 74.8028 67.0747 74.0683C65.6602 73.6784 64.1973 73.3762 62.7646 73.2251L62.8312 72.542Z" fill="#8F5033"/>
<path d="M58.3938 73C58.3938 73 55.9389 75.9708 52.6289 76.2534C52.6289 83.45 52.72 84 59.6289 84L59.5 73H58.3938Z" fill="#FF9C80"/>
<path d="M60.864 73C60.864 73 63.3189 75.9708 66.6289 76.2534C66.6289 83.45 66.5378 84 59.6289 84L59.5 73H60.864Z" fill="#E96464"/>
<path d="M59.6588 74.4722C59.6588 74.4722 59.1118 78.6734 52.4805 77.9571C45.8492 77.2408 43.9359 68.0615 43.6518 65.3897C43.3707 62.7178 37.5041 62.0499 36.141 52.4445C34.7779 42.8391 37.4528 36.2078 37.4528 36.2078C37.4528 36.2078 42.0348 28.1257 49.0863 26.4301C49.0863 26.4301 52.8885 24 59.6588 24V74.4722Z" fill="#7C5B5B"/>
<path d="M59.6588 74.4722C59.6588 74.4722 59.1118 78.6734 52.4805 77.9571C45.8492 77.2408 43.9359 68.0615 43.6518 65.3897C43.3707 62.7178 37.5041 62.0499 36.141 52.4445C34.7779 42.8391 37.4528 36.2078 37.4528 36.2078C37.4528 36.2078 42.0348 28.1257 49.0863 26.4301C49.0863 26.4301 52.8885 24 59.6588 24V74.4722Z" fill="url(#paint8_linear_9985_449313)"/>
<path d="M68.213 26.2764C68.213 26.2764 71.3382 23.3809 77.7429 24.6745C84.1475 25.9712 89.0257 31.7652 89.1013 40.5304C89.1768 49.2986 87.578 59.2093 89.1013 61.6484C90.6246 64.0875 83.9933 67.7477 75.6846 56.9212C67.3758 46.0948 68.213 26.2734 68.213 26.2734V26.2764Z" fill="#FFB65E"/>
<path d="M68.213 26.2764C68.213 26.2764 71.3382 23.3809 77.7429 24.6745C84.1475 25.9712 89.0257 31.7652 89.1013 40.5304C89.1768 49.2986 87.578 59.2093 89.1013 61.6484C90.6246 64.0875 83.9933 67.7477 75.6846 56.9212C67.3758 46.0948 68.213 26.2734 68.213 26.2734V26.2764Z" fill="url(#paint9_linear_9985_449313)"/>
<path d="M59.6572 74.4722C59.6572 74.4722 60.2043 78.6734 66.8356 77.9571C73.4669 77.2408 75.3801 68.0615 75.6642 65.3897C75.9453 62.7178 81.8119 62.0499 83.175 52.4445C84.5382 42.8391 81.8633 36.2078 81.8633 36.2078C81.8633 36.2078 77.2812 28.1257 70.2298 26.4301C70.2298 26.4301 66.4276 24 59.6572 24V74.4722Z" fill="#634444"/>
<path d="M59.6572 74.4722C59.6572 74.4722 60.2043 78.6734 66.8356 77.9571C73.4669 77.2408 75.3801 68.0615 75.6642 65.3897C75.9453 62.7178 81.8119 62.0499 83.175 52.4445C84.5382 42.8391 81.8633 36.2078 81.8633 36.2078C81.8633 36.2078 77.2812 28.1257 70.2298 26.4301C70.2298 26.4301 66.4276 24 59.6572 24V74.4722Z" fill="url(#paint10_linear_9985_449313)"/>
<path d="M59.5997 73.2086C61.3497 73.2086 65.2185 69.2492 64.5475 67.3299C63.6015 64.6127 55.598 64.6127 54.6489 67.3299C53.981 69.2522 57.8497 73.2086 59.5967 73.2086H59.5997Z" fill="#AC6C44"/>
<circle cx="71.5" cy="49.5" r="2.5" fill="#70320E"/>
<circle cx="48.5" cy="49.6162" r="2.5" fill="#70320E"/>
</g>
<path d="M32.2697 37.7148L33.0711 40.1336L35.5081 40.9291L33.0711 41.7246L32.2697 44.1434L31.4682 41.7246L29.0312 40.9291L31.4682 40.1336L32.2697 37.7148Z" fill="white"/>
<path d="M22.5563 27L24.4264 32.6438L30.1127 34.5L24.4264 36.3562L22.5563 42L20.6862 36.3562L15 34.5L20.6862 32.6438L22.5563 27Z" fill="white"/>
<defs>
<filter id="filter0_i_9985_449313" x="21.8945" y="10.7136" width="76.2109" height="85.43" filterUnits="userSpaceOnUse" color-interpolation-filters="sRGB">
<feFlood flood-opacity="0" result="BackgroundImageFix"/>
<feBlend mode="normal" in="SourceGraphic" in2="BackgroundImageFix" result="shape"/>
<feColorMatrix in="SourceAlpha" type="matrix" values="0 0 0 0 0 0 0 0 0 0 0 0 0 0 0 0 0 0 127 0" result="hardAlpha"/>
<feOffset dy="-1.14286"/>
<feGaussianBlur stdDeviation="0.571429"/>
<feComposite in2="hardAlpha" operator="arithmetic" k2="-1" k3="1"/>
<feColorMatrix type="matrix" values="0 0 0 0 0.616667 0 0 0 0 0.407 0 0 0 0 0 0 0 0 0.25 0"/>
<feBlend mode="normal" in2="shape" result="effect1_innerShadow_9985_449313"/>
</filter>
<filter id="filter1_ii_9985_449313" x="27.0908" y="16.5588" width="65.8184" height="74.8824" filterUnits="userSpaceOnUse" color-interpolation-filters="sRGB">
<feFlood flood-opacity="0" result="BackgroundImageFix"/>
<feBlend mode="normal" in="SourceGraphic" in2="BackgroundImageFix" result="shape"/>
<feColorMatrix in="SourceAlpha" type="matrix" values="0 0 0 0 0 0 0 0 0 0 0 0 0 0 0 0 0 0 127 0" result="hardAlpha"/>
<feOffset dy="1.14286"/>
<feGaussianBlur stdDeviation="1.14286"/>
<feComposite in2="hardAlpha" operator="arithmetic" k2="-1" k3="1"/>
<feColorMatrix type="matrix" values="0 0 0 0 0.7 0 0 0 0 0.465967 0 0 0 0 0.0116667 0 0 0 1 0"/>
<feBlend mode="normal" in2="shape" result="effect1_innerShadow_9985_449313"/>
<feColorMatrix in="SourceAlpha" type="matrix" values="0 0 0 0 0 0 0 0 0 0 0 0 0 0 0 0 0 0 127 0" result="hardAlpha"/>
<feOffset dy="-1.14286"/>
<feGaussianBlur stdDeviation="0.571429"/>
<feComposite in2="hardAlpha" operator="arithmetic" k2="-1" k3="1"/>
<feColorMatrix type="matrix" values="0 0 0 0 1 0 0 0 0 0.72 0 0 0 0 0 0 0 0 1 0"/>
<feBlend mode="normal" in2="effect1_innerShadow_9985_449313" result="effect2_innerShadow_9985_449313"/>
</filter>
<filter id="filter2_d_9985_449313" x="26.4495" y="21.3371" width="66.4213" height="67.101" filterUnits="userSpaceOnUse" color-interpolation-filters="sRGB">
<feFlood flood-opacity="0" result="BackgroundImageFix"/>
<feColorMatrix in="SourceAlpha" type="matrix" values="0 0 0 0 0 0 0 0 0 0 0 0 0 0 0 0 0 0 127 0" result="hardAlpha"/>
<feOffset dy="0.88762"/>
<feGaussianBlur stdDeviation="1.77524"/>
<feColorMatrix type="matrix" values="0 0 0 0 0.417188 0 0 0 0 0.160564 0 0 0 0 0.00450867 0 0 0 1 0"/>
<feBlend mode="normal" in2="BackgroundImageFix" result="effect1_dropShadow_9985_449313"/>
<feBlend mode="normal" in="SourceGraphic" in2="effect1_dropShadow_9985_449313" result="shape"/>
</filter>
<linearGradient id="paint0_linear_9985_449313" x1="30.999" y1="89.9995" x2="53.999" y2="102.5" gradientUnits="userSpaceOnUse">
<stop offset="0.484531" stop-color="#FFC700"/>
<stop offset="0.484631" stop-color="#FFE590"/>
</linearGradient>
<linearGradient id="paint1_linear_9985_449313" x1="30.999" y1="89.9995" x2="53.999" y2="102.5" gradientUnits="userSpaceOnUse">
<stop offset="0.484531" stop-color="#FFC700"/>
<stop offset="0.484631" stop-color="#FFE590"/>
</linearGradient>
<linearGradient id="paint2_linear_9985_449313" x1="77.0106" y1="85.0327" x2="68.9049" y2="89.7125" gradientUnits="userSpaceOnUse">
<stop offset="0.484631" stop-color="#FFE590"/>
<stop offset="0.488859" stop-color="#FFC700"/>
</linearGradient>
<linearGradient id="paint3_linear_9985_449313" x1="27.9487" y1="16.8205" x2="94.6154" y2="91.1795" gradientUnits="userSpaceOnUse">
<stop stop-color="#FFECA9"/>
<stop offset="0.237301" stop-color="#FFD600"/>
<stop offset="1" stop-color="#FF9900"/>
</linearGradient>
<linearGradient id="paint4_linear_9985_449313" x1="60" y1="4" x2="60" y2="104" gradientUnits="userSpaceOnUse">
<stop stop-color="white" stop-opacity="0.5"/>
<stop offset="1" stop-color="white" stop-opacity="0"/>
</linearGradient>
<linearGradient id="paint5_linear_9985_449313" x1="31.8889" y1="20.3889" x2="88.1111" y2="88.2222" gradientUnits="userSpaceOnUse">
<stop stop-color="#FFC700"/>
<stop offset="1" stop-color="#D58500"/>
</linearGradient>
<linearGradient id="paint6_linear_9985_449313" x1="34.8529" y1="22.7059" x2="66.1471" y2="92" gradientUnits="userSpaceOnUse">
<stop stop-color="#FFB13C"/>
<stop offset="0.484375" stop-color="#B45F1D"/>
<stop offset="1" stop-color="#743110"/>
</linearGradient>
<linearGradient id="paint7_linear_9985_449313" x1="30" y1="44" x2="51" y2="29.5" gradientUnits="userSpaceOnUse">
<stop stop-color="#DC7F11"/>
<stop offset="1" stop-color="#A3592F"/>
</linearGradient>
<linearGradient id="paint8_linear_9985_449313" x1="59.6588" y1="43.276" x2="38.3582" y2="44.1913" gradientUnits="userSpaceOnUse">
<stop stop-color="#FFE587"/>
<stop offset="1" stop-color="#FFC548"/>
</linearGradient>
<linearGradient id="paint9_linear_9985_449313" x1="89.002" y1="38.5" x2="79.002" y2="37" gradientUnits="userSpaceOnUse">
<stop stop-color="#DC7F11"/>
<stop offset="1" stop-color="#A3592F"/>
</linearGradient>
<linearGradient id="paint10_linear_9985_449313" x1="59.6572" y1="46.7943" x2="83.9414" y2="46.7943" gradientUnits="userSpaceOnUse">
<stop stop-color="#F4A431"/>
<stop offset="1" stop-color="#FFCE6A"/>
</linearGradient>
</defs>
</svg>
