<svg width="120" height="121" viewBox="0 0 120 121" fill="none" xmlns="http://www.w3.org/2000/svg">
<path d="M41.999 70.9995L53.2574 77.4995L40.2574 100.016L22.999 103.908L41.999 70.9995Z" fill="url(#paint0_linear_9985_449277)"/>
<path d="M64.5157 83.9995L53.2574 77.4995L40.2574 100.016L45.5157 116.908L64.5157 83.9995Z" fill="url(#paint1_linear_9985_449277)"/>
<path fill-rule="evenodd" clip-rule="evenodd" d="M67.2573 77.5L78.5156 71L97.5156 103.909L80.2583 100.017L75 116.909L56 84L67.2576 77.5004L67.2573 77.5Z" fill="url(#paint2_linear_9985_449277)"/>
<path d="M52.1429 8.86624C57.0049 6.05915 62.9951 6.05915 67.8571 8.86624L95.1584 24.6286C100.02 27.4357 103.016 32.6234 103.016 38.2376V69.7624C103.016 75.3766 100.02 80.5643 95.1584 83.3714L67.8571 99.1338C62.9951 101.941 57.0049 101.941 52.1429 99.1338L24.8416 83.3714C19.9796 80.5643 16.9844 75.3766 16.9844 69.7624V38.2376C16.9844 32.6234 19.9796 27.4357 24.8416 24.6286L52.1429 8.86624Z" fill="url(#paint3_linear_9985_449277)" stroke="url(#paint4_linear_9985_449277)" stroke-width="0.571429"/>
<g filter="url(#filter0_i_9985_449277)">
<path d="M54 13.4641C57.7128 11.3205 62.2872 11.3205 66 13.4641L92.1051 28.5359C95.8179 30.6795 98.1051 34.641 98.1051 38.9282V69.0718C98.1051 73.359 95.8179 77.3205 92.1051 79.4641L66 94.5359C62.2872 96.6795 57.7128 96.6795 54 94.5359L27.8949 79.4641C24.1821 77.3205 21.8949 73.359 21.8949 69.0718V38.9282C21.8949 34.641 24.1821 30.6795 27.8949 28.5359L54 13.4641Z" fill="url(#paint5_linear_9985_449277)"/>
</g>
<g filter="url(#filter1_ii_9985_449277)">
<path d="M54.5 19.1754C57.9034 17.2105 62.0966 17.2105 65.5 19.1754L87.409 31.8246C90.8124 33.7895 92.909 37.4209 92.909 41.3509V66.6491C92.909 70.5791 90.8124 74.2105 87.409 76.1754L65.5 88.8246C62.0966 90.7895 57.9034 90.7895 54.5 88.8246L32.591 76.1754C29.1876 74.2105 27.091 70.5791 27.091 66.6491V41.3509C27.091 37.4209 29.1876 33.7895 32.591 31.8246L54.5 19.1754Z" fill="url(#paint6_linear_9985_449277)"/>
</g>
<g filter="url(#filter2_d_9985_449277)">
<path d="M48 61.2945C45.4992 61.9035 42.7205 63.1862 41.3852 65.4671C39.9562 67.892 41.0893 70.789 41.6126 73.3942C42.5833 77.3361 42.7277 81.4546 37.9606 82.7049C31.4613 84.521 29.4115 77.5667 29.9817 72.4537C30.0864 71.0341 30.4364 69.5964 30.754 68.2127C31.021 66.8255 31.1257 65.4058 31.003 64.0041C30.8009 61.3738 29.2563 57.9868 26.1673 58.1921C23.2478 58.5164 21.3497 61.2261 20 63.597C21.31 61.1684 23.1937 58.3975 26.1529 58.0156C29.3718 57.7381 31.0896 61.2225 31.353 63.9681C31.6237 66.1265 31.2159 68.292 30.7612 70.3963C30.4039 72.4681 30.3354 74.6301 30.7323 76.6911C31.1798 79.2891 32.8037 82.1933 35.7376 82.1933C37.6394 82.1717 39.8984 81.4222 40.7681 79.6206C41.5945 77.7253 41.0316 75.621 40.5805 73.632C40.1005 71.5349 39.3066 69.3441 39.5737 67.1029C40.133 63.0889 44.1206 60.8549 47.7041 59.9217L47.9964 61.2945H48Z" fill="#FFF5A9"/>
<path d="M71.3027 59.9234C75.885 60.9978 80.6878 64.297 79.6712 69.4061C79.3012 72.9252 76.1467 78.5139 79.7609 81.0739C84.2797 83.7565 88.0023 81.5354 88.8807 76.7039C89.2955 74.6415 89.2245 72.4781 88.8508 70.4049C88.3836 68.2992 87.9575 66.1322 88.2415 63.9725C88.5106 61.225 90.2935 57.7347 93.6274 58.016C96.696 58.3982 98.6395 61.1709 100 63.6011C98.6059 61.2286 96.6362 58.5171 93.6124 58.1926C90.4131 57.9907 88.8134 61.38 88.6041 64.0085C88.477 65.4147 88.5854 66.8353 88.862 68.2199C89.1871 69.608 89.5534 71.0431 89.6618 72.4637C90.0991 76.5272 88.9704 82.7217 83.7265 82.9993C81.398 83.0281 78.7406 82.1628 77.6268 80.0391C76.0495 76.5236 78.1164 72.7557 78.4976 69.2547C79.3386 64.8198 74.902 62.1444 71 61.2971L71.3027 59.9234Z" fill="#FFF5A9"/>
<path d="M47.98 75.9247C47.98 75.9247 47.4569 73.3496 49.5751 70.4525C51.6933 67.5555 59.8211 71.0044 59.8211 71.0044V84.1732C59.8211 84.1732 49.1383 81.5607 47.9771 75.9247H47.98Z" fill="#772424"/>
<path d="M47.98 75.9247C47.98 75.9247 47.4569 73.3496 49.5751 70.4525C51.6933 67.5555 59.8211 71.0044 59.8211 71.0044V84.1732C59.8211 84.1732 49.1383 81.5607 47.9771 75.9247H47.98Z" fill="#92471C"/>
<path d="M71.6682 75.9247C71.6682 75.9247 72.1913 73.3496 70.0731 70.4525C67.9549 67.5555 59.8271 71.0044 59.8271 71.0044V84.1732C59.8271 84.1732 70.51 81.5607 71.6711 75.9247H71.6682Z" fill="#783C0E"/>
<path d="M81.1555 23.9597C83.3455 22.3445 79.6926 19.5136 76.4536 25.529C77.129 20.5712 80.1755 19.6716 80.4859 18.3036C80.7963 16.9356 79.4914 15.7859 76.787 17.9616C74.0825 20.1372 69.9697 27.2907 71.2544 34.1597C71.2544 34.1597 67.5642 39.7842 73.4502 42.6439C73.4502 42.6439 78.9195 45.0437 81.0865 41.9484C78.1521 37.8097 78.1665 36.0106 77.9021 33.4441C77.5946 30.4608 78.9684 25.5749 81.1555 23.9626V23.9597Z" fill="#873E15"/>
<path d="M81.1555 23.9597C83.3455 22.3445 79.6926 19.5136 76.4536 25.529C77.129 20.5712 80.1755 19.6716 80.4859 18.3036C80.7963 16.9356 79.4914 15.7859 76.787 17.9616C74.0825 20.1372 69.9697 27.2907 71.2544 34.1597C71.2544 34.1597 67.5642 39.7842 73.4502 42.6439C73.4502 42.6439 78.9195 45.0437 81.0865 41.9484C78.1521 37.8097 78.1665 36.0106 77.9021 33.4441C77.5946 30.4608 78.9684 25.5749 81.1555 23.9626V23.9597Z" fill="url(#paint7_linear_9985_449277)"/>
<path fill-rule="evenodd" clip-rule="evenodd" d="M81.0802 41.9459C81.5602 42.6241 82.1177 43.3599 82.7701 44.1761L82.7673 44.1848C87.4117 49.9874 82.5603 57.1984 78.5827 57.8623C78.2701 57.9143 77.9729 57.9614 77.6897 58.0063C74.778 58.4678 73.3501 58.6942 71.9724 61.544C71.8186 61.8618 71.569 62.1082 71.2734 62.2592C71.3692 62.3422 73.2192 63.9992 72.4996 67.5412C71.761 71.1769 59.828 68.1937 59.828 68.1937V65.019C59.8214 65.0264 59.818 65.0302 59.818 65.0302V44.5354L59.7578 11.084C59.7711 14.7567 60.6986 16.3329 61.9 18.3743C62.0353 18.6043 62.1742 18.8403 62.3156 19.0857C64.3817 22.6727 63.9183 27.4558 63.0552 29.7397C64.7786 25.2927 65.0177 20.7642 62.5024 16.41C63.2582 17.5956 64.3445 18.453 65.436 19.3146C67.578 21.0053 69.7403 22.7121 69.4662 26.9462C69.3327 29.0079 69.7996 29.9149 70.2917 30.8706C70.701 31.6656 71.1277 32.4945 71.2407 34.0498C71.2529 33.5435 71.3263 31.493 71.7184 30.9903C71.951 32.1761 72.7306 33.3781 73.4495 34.4864C73.9833 35.3094 74.4837 36.0808 74.7017 36.7556C75.2132 38.342 75.0437 38.9772 75.0437 38.9772C75.0437 38.9772 76.6301 37.7644 76.6445 35.7353C76.6589 33.7091 78.4322 31.9042 78.4322 31.9042C78.4322 31.9042 78.1994 32.7492 78.3546 33.7235H78.3574C78.3574 33.7235 78.9984 38.8278 81.0705 41.949C81.0711 41.9517 81.0717 41.9544 81.0723 41.957C81.075 41.9533 81.0776 41.9496 81.0802 41.9459ZM71.173 34.2627C71.1866 34.237 71.2022 34.2132 71.2199 34.1914L71.173 34.2627Z" fill="#634444"/>
<path fill-rule="evenodd" clip-rule="evenodd" d="M81.0802 41.9459C81.5602 42.6241 82.1177 43.3599 82.7701 44.1761L82.7673 44.1848C87.4117 49.9874 82.5603 57.1984 78.5827 57.8623C78.2701 57.9143 77.9729 57.9614 77.6897 58.0063C74.778 58.4678 73.3501 58.6942 71.9724 61.544C71.8186 61.8618 71.569 62.1082 71.2734 62.2592C71.3692 62.3422 73.2192 63.9992 72.4996 67.5412C71.761 71.1769 59.828 68.1937 59.828 68.1937V65.019C59.8214 65.0264 59.818 65.0302 59.818 65.0302V44.5354L59.7578 11.084C59.7711 14.7567 60.6986 16.3329 61.9 18.3743C62.0353 18.6043 62.1742 18.8403 62.3156 19.0857C64.3817 22.6727 63.9183 27.4558 63.0552 29.7397C64.7786 25.2927 65.0177 20.7642 62.5024 16.41C63.2582 17.5956 64.3445 18.453 65.436 19.3146C67.578 21.0053 69.7403 22.7121 69.4662 26.9462C69.3327 29.0079 69.7996 29.9149 70.2917 30.8706C70.701 31.6656 71.1277 32.4945 71.2407 34.0498C71.2529 33.5435 71.3263 31.493 71.7184 30.9903C71.951 32.1761 72.7306 33.3781 73.4495 34.4864C73.9833 35.3094 74.4837 36.0808 74.7017 36.7556C75.2132 38.342 75.0437 38.9772 75.0437 38.9772C75.0437 38.9772 76.6301 37.7644 76.6445 35.7353C76.6589 33.7091 78.4322 31.9042 78.4322 31.9042C78.4322 31.9042 78.1994 32.7492 78.3546 33.7235H78.3574C78.3574 33.7235 78.9984 38.8278 81.0705 41.949C81.0711 41.9517 81.0717 41.9544 81.0723 41.957C81.075 41.9533 81.0776 41.9496 81.0802 41.9459ZM71.173 34.2627C71.1866 34.237 71.2022 34.2132 71.2199 34.1914L71.173 34.2627Z" fill="url(#paint8_linear_9985_449277)"/>
<path d="M38.4928 23.9597C36.3027 22.3445 39.9556 19.5136 43.1976 25.529C42.5222 20.5712 39.4757 19.6716 39.1653 18.3036C38.8549 16.9356 40.1597 15.7859 42.8642 17.9616C45.5687 20.1372 49.6814 27.2907 48.3967 34.1597C48.3967 34.1597 52.087 39.7842 46.2009 42.6439C46.2009 42.6439 40.7316 45.0437 38.5646 41.9484C41.499 37.8097 41.4846 36.0106 41.749 33.4441C42.0566 30.4608 40.6828 25.5749 38.4956 23.9626L38.4928 23.9597Z" fill="#AA5931"/>
<path d="M38.4928 23.9597C36.3027 22.3445 39.9556 19.5136 43.1976 25.529C42.5222 20.5712 39.4757 19.6716 39.1653 18.3036C38.8549 16.9356 40.1597 15.7859 42.8642 17.9616C45.5687 20.1372 49.6814 27.2907 48.3967 34.1597C48.3967 34.1597 52.087 39.7842 46.2009 42.6439C46.2009 42.6439 40.7316 45.0437 38.5646 41.9484C41.499 37.8097 41.4846 36.0106 41.749 33.4441C42.0566 30.4608 40.6828 25.5749 38.4956 23.9626L38.4928 23.9597Z" fill="url(#paint9_linear_9985_449277)"/>
<path d="M49.5732 71.9243C49.5732 71.9243 49.6825 75.2036 51.6253 77.0832C51.8581 74.5943 53.1141 73.1199 53.1141 73.1199L49.5732 71.9243Z" fill="#FFF5A9"/>
<path d="M52.5664 82.8232C52.5664 82.8232 52.7532 80.0009 54.4805 78.4346C54.6127 80.5872 55.6531 81.8921 55.6531 81.8921L52.5693 82.8232H52.5664Z" fill="#FFF5A9"/>
<path d="M48.3781 62.2554C48.3781 62.2554 46.4094 63.905 47.1509 67.5407C47.8924 71.1764 59.8226 68.1931 59.8226 68.1931V62.9049C59.8226 62.9049 55.1091 58.0909 48.3781 62.2554Z" fill="#7C5B5B"/>
<path d="M48.3781 62.2554C48.3781 62.2554 46.4094 63.905 47.1509 67.5407C47.8924 71.1764 59.8226 68.1931 59.8226 68.1931V62.9049C59.8226 62.9049 55.1091 58.0909 48.3781 62.2554Z" fill="url(#paint10_linear_9985_449277)"/>
<path d="M59.7581 33.2767V11C56.5248 12.5232 56.3179 17.2798 57.0335 20.1395C57.6831 22.7318 58.1142 24.6718 56.1972 28.7875L56.1914 28.7817H56.1886C57.0393 26.2784 55.996 23.5998 55.2315 21.4127C54.329 18.8318 52.9926 16.5641 55.5419 13.7045C49.5725 15.8169 49.2391 21.8639 50.383 25.7352C51.9436 31.0206 48.3941 34.1619 48.3941 34.1619L41.1832 43.0801L44.0716 43.3042C42.2926 43.6865 39.8467 43.7842 38.562 41.9477C38.0821 42.626 37.5245 43.3617 36.8721 44.178C32.2305 49.9806 37.079 57.1916 41.0567 57.8555C44.5832 58.4418 46.1553 58.4131 47.667 61.5372C48.009 62.2442 48.8281 62.5977 49.5668 62.3333C55.5764 60.1806 59.8213 65.0234 59.8213 65.0234V33.2767H59.7581Z" fill="#7C5B5B"/>
<path d="M59.7581 33.2767V11C56.5248 12.5232 56.3179 17.2798 57.0335 20.1395C57.6831 22.7318 58.1142 24.6718 56.1972 28.7875L56.1914 28.7817H56.1886C57.0393 26.2784 55.996 23.5998 55.2315 21.4127C54.329 18.8318 52.9926 16.5641 55.5419 13.7045C49.5725 15.8169 49.2391 21.8639 50.383 25.7352C51.9436 31.0206 48.3941 34.1619 48.3941 34.1619L41.1832 43.0801L44.0716 43.3042C42.2926 43.6865 39.8467 43.7842 38.562 41.9477C38.0821 42.626 37.5245 43.3617 36.8721 44.178C32.2305 49.9806 37.079 57.1916 41.0567 57.8555C44.5832 58.4418 46.1553 58.4131 47.667 61.5372C48.009 62.2442 48.8281 62.5977 49.5668 62.3333C55.5764 60.1806 59.8213 65.0234 59.8213 65.0234V33.2767H59.7581Z" fill="url(#paint11_linear_9985_449277)"/>
<path d="M41.2724 33.7227C41.2724 33.7227 40.6315 38.827 38.5593 41.9482C37.6684 45.9403 41.5224 46.0639 41.5224 46.0639L47.7706 43.7646L50.2567 40.9969L51.2511 38.5109L48.3914 34.1624C48.3914 34.1624 48.3598 31.5643 47.9114 30.9895C47.5062 33.0559 45.4398 35.1712 44.9282 36.7548C44.4166 38.3413 44.5862 38.9765 44.5862 38.9765C44.5862 38.9765 42.9997 37.7636 42.9853 35.7345C42.971 33.7055 41.1977 31.9034 41.1977 31.9034C41.1977 31.9034 41.4305 32.7484 41.2753 33.7227H41.2724Z" fill="#7C5B5B"/>
<path d="M41.2724 33.7227C41.2724 33.7227 40.6315 38.827 38.5593 41.9482C37.6684 45.9403 41.5224 46.0639 41.5224 46.0639L47.7706 43.7646L50.2567 40.9969L51.2511 38.5109L48.3914 34.1624C48.3914 34.1624 48.3598 31.5643 47.9114 30.9895C47.5062 33.0559 45.4398 35.1712 44.9282 36.7548C44.4166 38.3413 44.5862 38.9765 44.5862 38.9765C44.5862 38.9765 42.9997 37.7636 42.9853 35.7345C42.971 33.7055 41.1977 31.9034 41.1977 31.9034C41.1977 31.9034 41.4305 32.7484 41.2753 33.7227H41.2724Z" fill="url(#paint12_linear_9985_449277)"/>
<path d="M37.2184 40.5003C37.2184 40.5003 39.1095 31.2372 34.2236 26.9463C39.3481 28.8432 42.2997 36.5197 37.2184 40.5003Z" fill="#FF902C"/>
<path d="M37.2184 40.5003C37.2184 40.5003 39.1095 31.2372 34.2236 26.9463C39.3481 28.8432 42.2997 36.5197 37.2184 40.5003Z" fill="url(#paint13_linear_9985_449277)"/>
<path d="M32.8915 52.8642C32.8915 52.8642 31.9172 50.746 33.7537 46.1475C35.5902 41.5462 33.3197 37.1949 30.5233 35.7349C31.3309 37.2897 31.7534 38.9653 30.5233 42.0147C29.2932 45.064 26.5284 51.3467 32.8944 52.867L32.8915 52.8642Z" fill="#FF902C"/>
<path d="M32.8915 52.8642C32.8915 52.8642 31.9172 50.746 33.7537 46.1475C35.5902 41.5462 33.3197 37.1949 30.5233 35.7349C31.3309 37.2897 31.7534 38.9653 30.5233 42.0147C29.2932 45.064 26.5284 51.3467 32.8944 52.867L32.8915 52.8642Z" fill="url(#paint14_linear_9985_449277)"/>
<path d="M47.9817 75.9253C47.9817 75.9253 50.1976 82.1016 59.8256 82.1016V90.764C59.8256 90.764 59.2767 88.5251 57.0378 87.6255C54.7989 86.7231 52.7785 84.9498 52.6865 83.553C52.1318 85.4958 52.8417 86.9185 52.8417 86.9185C52.8417 86.9185 47.289 85.2746 47.9817 75.9282V75.9253Z" fill="#FCA658"/>
<path d="M70.0652 71.9238C70.0652 71.9238 69.956 75.2031 68.0132 77.0827C67.7804 74.5938 66.5244 73.1194 66.5244 73.1194L70.0652 71.9238Z" fill="#FFF5A9"/>
<path d="M82.4216 40.4993C82.4216 40.4993 80.5305 31.2363 85.4164 26.9453C80.292 28.8422 77.3403 36.5188 82.4216 40.4993Z" fill="#DB5526"/>
<path d="M82.4216 40.4993C82.4216 40.4993 80.5305 31.2363 85.4164 26.9453C80.292 28.8422 77.3403 36.5188 82.4216 40.4993Z" fill="url(#paint15_linear_9985_449277)"/>
<path d="M86.7491 52.8632C86.7491 52.8632 87.7234 50.745 85.8869 46.1466C84.0504 41.5452 86.3209 37.1939 89.1173 35.7339C88.3097 37.2887 87.8873 38.9643 89.1173 42.0137C90.3474 45.063 93.1123 51.3457 86.7463 52.8661L86.7491 52.8632Z" fill="#DB5526"/>
<path d="M86.7491 52.8632C86.7491 52.8632 87.7234 50.745 85.8869 46.1466C84.0504 41.5452 86.3209 37.1939 89.1173 35.7339C88.3097 37.2887 87.8873 38.9643 89.1173 42.0137C90.3474 45.063 93.1123 51.3457 86.7463 52.8661L86.7491 52.8632Z" fill="url(#paint16_linear_9985_449277)"/>
<path d="M67.075 82.8223C67.075 82.8223 66.8882 79.9999 65.1609 78.4336C65.0287 80.5863 63.9883 81.8911 63.9883 81.8911L67.0721 82.8223H67.075Z" fill="#FFF5A9"/>
<path d="M71.6613 75.9243C71.6613 75.9243 69.4454 82.1006 59.8174 82.1006V90.763C59.8174 90.763 60.3663 88.5241 62.6052 87.6245C64.8441 86.7221 66.8645 84.9488 66.9565 83.552C67.5112 85.4949 66.8013 86.9175 66.8013 86.9175C66.8013 86.9175 72.354 85.2736 71.6613 75.9272V75.9243Z" fill="#D97007"/>
<circle cx="70.3789" cy="47.5" r="2.5" fill="#70320E"/>
<circle cx="49.3789" cy="47.6162" r="2.5" fill="#70320E"/>
<path d="M59.8261 66.61C59.8261 66.61 51.7385 59.5945 48.1747 64.8741C44.1856 70.786 49.3502 74.2809 59.8261 74.2809V66.61Z" fill="#FCA658"/>
<path d="M53.8668 71.0047C53.8668 71.0047 53.0161 70.039 52.6654 68.8376C52.3119 67.6363 50.645 66.5355 50.257 68.1306C49.869 69.7286 53.8668 71.0047 53.8668 71.0047Z" fill="#91361A"/>
<path d="M59.8203 66.61C59.8203 66.61 67.9079 59.5945 71.4717 64.8741C75.4609 70.786 70.2962 74.2809 59.8203 74.2809V66.61Z" fill="#D97007"/>
<path d="M65.7773 71.0047C65.7773 71.0047 66.6281 70.039 66.9787 68.8376C67.3322 67.6363 68.9991 66.5355 69.3871 68.1306C69.7751 69.7286 65.7773 71.0047 65.7773 71.0047Z" fill="#91361A"/>
</g>
<path d="M32.2697 37.7148L33.0711 40.1336L35.5081 40.9291L33.0711 41.7246L32.2697 44.1434L31.4682 41.7246L29.0312 40.9291L31.4682 40.1336L32.2697 37.7148Z" fill="white"/>
<path d="M22.5563 27L24.4264 32.6438L30.1127 34.5L24.4264 36.3562L22.5563 42L20.6862 36.3562L15 34.5L20.6862 32.6438L22.5563 27Z" fill="white"/>
<defs>
<filter id="filter0_i_9985_449277" x="21.8945" y="10.7136" width="76.2109" height="85.43" filterUnits="userSpaceOnUse" color-interpolation-filters="sRGB">
<feFlood flood-opacity="0" result="BackgroundImageFix"/>
<feBlend mode="normal" in="SourceGraphic" in2="BackgroundImageFix" result="shape"/>
<feColorMatrix in="SourceAlpha" type="matrix" values="0 0 0 0 0 0 0 0 0 0 0 0 0 0 0 0 0 0 127 0" result="hardAlpha"/>
<feOffset dy="-1.14286"/>
<feGaussianBlur stdDeviation="0.571429"/>
<feComposite in2="hardAlpha" operator="arithmetic" k2="-1" k3="1"/>
<feColorMatrix type="matrix" values="0 0 0 0 0.616667 0 0 0 0 0.407 0 0 0 0 0 0 0 0 0.25 0"/>
<feBlend mode="normal" in2="shape" result="effect1_innerShadow_9985_449277"/>
</filter>
<filter id="filter1_ii_9985_449277" x="27.0908" y="16.5588" width="65.8184" height="74.8824" filterUnits="userSpaceOnUse" color-interpolation-filters="sRGB">
<feFlood flood-opacity="0" result="BackgroundImageFix"/>
<feBlend mode="normal" in="SourceGraphic" in2="BackgroundImageFix" result="shape"/>
<feColorMatrix in="SourceAlpha" type="matrix" values="0 0 0 0 0 0 0 0 0 0 0 0 0 0 0 0 0 0 127 0" result="hardAlpha"/>
<feOffset dy="1.14286"/>
<feGaussianBlur stdDeviation="1.14286"/>
<feComposite in2="hardAlpha" operator="arithmetic" k2="-1" k3="1"/>
<feColorMatrix type="matrix" values="0 0 0 0 0.7 0 0 0 0 0.465967 0 0 0 0 0.0116667 0 0 0 1 0"/>
<feBlend mode="normal" in2="shape" result="effect1_innerShadow_9985_449277"/>
<feColorMatrix in="SourceAlpha" type="matrix" values="0 0 0 0 0 0 0 0 0 0 0 0 0 0 0 0 0 0 127 0" result="hardAlpha"/>
<feOffset dy="-1.14286"/>
<feGaussianBlur stdDeviation="0.571429"/>
<feComposite in2="hardAlpha" operator="arithmetic" k2="-1" k3="1"/>
<feColorMatrix type="matrix" values="0 0 0 0 1 0 0 0 0 0.72 0 0 0 0 0 0 0 0 1 0"/>
<feBlend mode="normal" in2="effect1_innerShadow_9985_449277" result="effect2_innerShadow_9985_449277"/>
</filter>
<filter id="filter2_d_9985_449277" x="16.4495" y="8.33714" width="87.101" height="86.8651" filterUnits="userSpaceOnUse" color-interpolation-filters="sRGB">
<feFlood flood-opacity="0" result="BackgroundImageFix"/>
<feColorMatrix in="SourceAlpha" type="matrix" values="0 0 0 0 0 0 0 0 0 0 0 0 0 0 0 0 0 0 127 0" result="hardAlpha"/>
<feOffset dy="0.88762"/>
<feGaussianBlur stdDeviation="1.77524"/>
<feColorMatrix type="matrix" values="0 0 0 0 0.417188 0 0 0 0 0.160564 0 0 0 0 0.00450867 0 0 0 1 0"/>
<feBlend mode="normal" in2="BackgroundImageFix" result="effect1_dropShadow_9985_449277"/>
<feBlend mode="normal" in="SourceGraphic" in2="effect1_dropShadow_9985_449277" result="shape"/>
</filter>
<linearGradient id="paint0_linear_9985_449277" x1="30.999" y1="89.9995" x2="53.999" y2="102.5" gradientUnits="userSpaceOnUse">
<stop offset="0.484531" stop-color="#FFC700"/>
<stop offset="0.484631" stop-color="#FFE590"/>
</linearGradient>
<linearGradient id="paint1_linear_9985_449277" x1="30.999" y1="89.9995" x2="53.999" y2="102.5" gradientUnits="userSpaceOnUse">
<stop offset="0.484531" stop-color="#FFC700"/>
<stop offset="0.484631" stop-color="#FFE590"/>
</linearGradient>
<linearGradient id="paint2_linear_9985_449277" x1="77.0106" y1="85.0327" x2="68.9049" y2="89.7125" gradientUnits="userSpaceOnUse">
<stop offset="0.484631" stop-color="#FFE590"/>
<stop offset="0.488859" stop-color="#FFC700"/>
</linearGradient>
<linearGradient id="paint3_linear_9985_449277" x1="27.9487" y1="16.8205" x2="94.6154" y2="91.1795" gradientUnits="userSpaceOnUse">
<stop stop-color="#FFECA9"/>
<stop offset="0.237301" stop-color="#FFD600"/>
<stop offset="1" stop-color="#FF9900"/>
</linearGradient>
<linearGradient id="paint4_linear_9985_449277" x1="60" y1="4" x2="60" y2="104" gradientUnits="userSpaceOnUse">
<stop stop-color="white" stop-opacity="0.5"/>
<stop offset="1" stop-color="white" stop-opacity="0"/>
</linearGradient>
<linearGradient id="paint5_linear_9985_449277" x1="31.8889" y1="20.3889" x2="88.1111" y2="88.2222" gradientUnits="userSpaceOnUse">
<stop stop-color="#FFC700"/>
<stop offset="1" stop-color="#D58500"/>
</linearGradient>
<linearGradient id="paint6_linear_9985_449277" x1="34.8529" y1="22.7059" x2="66.1471" y2="92" gradientUnits="userSpaceOnUse">
<stop stop-color="#FFB13C"/>
<stop offset="0.484375" stop-color="#B45F1D"/>
<stop offset="1" stop-color="#743110"/>
</linearGradient>
<linearGradient id="paint7_linear_9985_449277" x1="71.1291" y1="40.6147" x2="80.5788" y2="40.5239" gradientUnits="userSpaceOnUse">
<stop stop-color="#DC7F11"/>
<stop offset="1" stop-color="#A3592F"/>
</linearGradient>
<linearGradient id="paint8_linear_9985_449277" x1="59.7578" y1="35.6592" x2="85.0602" y2="35.6592" gradientUnits="userSpaceOnUse">
<stop stop-color="#F4A431"/>
<stop offset="1" stop-color="#FFCE6A"/>
</linearGradient>
<linearGradient id="paint9_linear_9985_449277" x1="38.8452" y1="40.6147" x2="48.2971" y2="40.5239" gradientUnits="userSpaceOnUse">
<stop stop-color="#DC7F11"/>
<stop offset="1" stop-color="#A3592F"/>
</linearGradient>
<linearGradient id="paint10_linear_9985_449277" x1="59.8225" y1="31.8119" x2="37.6795" y2="32.7278" gradientUnits="userSpaceOnUse">
<stop stop-color="#FFE587"/>
<stop offset="1" stop-color="#FFC548"/>
</linearGradient>
<linearGradient id="paint11_linear_9985_449277" x1="59.8225" y1="31.8119" x2="37.6795" y2="32.7278" gradientUnits="userSpaceOnUse">
<stop stop-color="#FFE587"/>
<stop offset="1" stop-color="#FFC548"/>
</linearGradient>
<linearGradient id="paint12_linear_9985_449277" x1="59.8225" y1="31.8119" x2="37.6795" y2="32.7278" gradientUnits="userSpaceOnUse">
<stop stop-color="#FFE587"/>
<stop offset="1" stop-color="#FFC548"/>
</linearGradient>
<linearGradient id="paint13_linear_9985_449277" x1="39.8568" y1="31.781" x2="34.8362" y2="31.9837" gradientUnits="userSpaceOnUse">
<stop stop-color="#FFE587"/>
<stop offset="1" stop-color="#FFC548"/>
</linearGradient>
<linearGradient id="paint14_linear_9985_449277" x1="34.417" y1="41.846" x2="29.4597" y2="42.0022" gradientUnits="userSpaceOnUse">
<stop stop-color="#FFE587"/>
<stop offset="1" stop-color="#FFC548"/>
</linearGradient>
<linearGradient id="paint15_linear_9985_449277" x1="79.7832" y1="32.6625" x2="85.5058" y2="32.6625" gradientUnits="userSpaceOnUse">
<stop stop-color="#F4A431"/>
<stop offset="1" stop-color="#FFCE6A"/>
</linearGradient>
<linearGradient id="paint16_linear_9985_449277" x1="85.2236" y1="42.9604" x2="90.8704" y2="42.9604" gradientUnits="userSpaceOnUse">
<stop stop-color="#F4A431"/>
<stop offset="1" stop-color="#FFCE6A"/>
</linearGradient>
</defs>
</svg>
