<svg width="120" height="121" viewBox="0 0 120 121" fill="none" xmlns="http://www.w3.org/2000/svg">
<path d="M41.999 70.9995L53.2574 77.4995L40.2574 100.016L22.999 103.908L41.999 70.9995Z" fill="url(#paint0_linear_9985_449472)"/>
<path d="M64.5157 83.9995L53.2574 77.4995L40.2574 100.016L45.5157 116.908L64.5157 83.9995Z" fill="url(#paint1_linear_9985_449472)"/>
<path fill-rule="evenodd" clip-rule="evenodd" d="M67.2573 77.5L78.5156 71L97.5156 103.909L80.2583 100.017L75 116.909L56 84L67.2576 77.5004L67.2573 77.5Z" fill="url(#paint2_linear_9985_449472)"/>
<path d="M52.1429 8.86624C57.0049 6.05915 62.9951 6.05915 67.8571 8.86624L95.1584 24.6286C100.02 27.4357 103.016 32.6234 103.016 38.2376V69.7624C103.016 75.3766 100.02 80.5643 95.1584 83.3714L67.8571 99.1338C62.9951 101.941 57.0049 101.941 52.1429 99.1338L24.8416 83.3714C19.9796 80.5643 16.9844 75.3766 16.9844 69.7624V38.2376C16.9844 32.6234 19.9796 27.4357 24.8416 24.6286L52.1429 8.86624Z" fill="url(#paint3_linear_9985_449472)" stroke="url(#paint4_linear_9985_449472)" stroke-width="0.571429"/>
<g filter="url(#filter0_i_9985_449472)">
<path d="M54 13.4641C57.7128 11.3205 62.2872 11.3205 66 13.4641L92.1051 28.5359C95.8179 30.6795 98.1051 34.641 98.1051 38.9282V69.0718C98.1051 73.359 95.8179 77.3205 92.1051 79.4641L66 94.5359C62.2872 96.6795 57.7128 96.6795 54 94.5359L27.8949 79.4641C24.1821 77.3205 21.8949 73.359 21.8949 69.0718V38.9282C21.8949 34.641 24.1821 30.6795 27.8949 28.5359L54 13.4641Z" fill="url(#paint5_linear_9985_449472)"/>
</g>
<g filter="url(#filter1_ii_9985_449472)">
<path d="M54.5 19.1754C57.9034 17.2105 62.0966 17.2105 65.5 19.1754L87.409 31.8246C90.8124 33.7895 92.909 37.4209 92.909 41.3509V66.6491C92.909 70.5791 90.8124 74.2105 87.409 76.1754L65.5 88.8246C62.0966 90.7895 57.9034 90.7895 54.5 88.8246L32.591 76.1754C29.1876 74.2105 27.091 70.5791 27.091 66.6491V41.3509C27.091 37.4209 29.1876 33.7895 32.591 31.8246L54.5 19.1754Z" fill="url(#paint6_linear_9985_449472)"/>
</g>
<g filter="url(#filter2_d_9985_449472)">
<path d="M67.8343 83.1025C67.8343 83.1025 63.9481 85.9366 58.8076 85.6933V93.5008C58.8076 93.5008 67.8343 93.5067 67.8343 83.1025Z" fill="#AB5C34"/>
<path d="M49.7773 83.1025C49.7773 83.1025 53.6635 85.9366 58.804 85.6933V93.5008C58.804 93.5008 49.7773 93.5067 49.7773 83.1025Z" fill="#CC7D35"/>
<path d="M52.5 84.8838C52.5 84.8838 53.5 90.5 58.8071 88.9173V84.8846L52.5 84.8838Z" fill="#FFF5A9"/>
<path d="M65.5 84.8848C65.5 84.8848 64 90.5 58.8086 88.9177V84.885L65.5 84.8848Z" fill="#E9B364"/>
<path d="M47.3556 79.6896C47.3556 79.6896 45.6441 77.3538 45.3627 75.3726C45.0843 73.3943 45.6851 65.9151 45.6851 65.9151L54.7528 61.7036L58.8031 64.2358V67.0874L47.3556 79.6866V79.6896Z" fill="#634444"/>
<path d="M47.3556 79.6896C47.3556 79.6896 45.6441 77.3538 45.3627 75.3726C45.0843 73.3943 45.6851 65.9151 45.6851 65.9151L54.7528 61.7036L58.8031 64.2358V67.0874L47.3556 79.6866V79.6896Z" fill="url(#paint7_linear_9985_449472)"/>
<path d="M70.2551 79.6896C70.2551 79.6896 71.9666 77.3538 72.248 75.3726C72.5264 73.3943 71.9256 65.9151 71.9256 65.9151L62.8579 61.7036L58.8076 64.2358V67.0874L70.2551 79.6866V79.6896Z" fill="#4C3131"/>
<path d="M70.2551 79.6896C70.2551 79.6896 71.9666 77.3538 72.248 75.3726C72.5264 73.3943 71.9256 65.9151 71.9256 65.9151L62.8579 61.7036L58.8076 64.2358V67.0874L70.2551 79.6866V79.6896Z" fill="url(#paint8_linear_9985_449472)"/>
<path d="M43.7445 31.3023C43.7445 31.3023 43.2932 22.727 32.6458 23.6472C31.6259 28.3716 30.4009 36.7711 41.1186 37.0788C46.3236 33.7964 43.7445 31.3023 43.7445 31.3023Z" fill="#7C5B5B"/>
<path d="M43.7445 31.3023C43.7445 31.3023 43.2932 22.727 32.6458 23.6472C31.6259 28.3716 30.4009 36.7711 41.1186 37.0788C46.3236 33.7964 43.7445 31.3023 43.7445 31.3023Z" fill="url(#paint9_linear_9985_449472)"/>
<path d="M41.533 32.0329C41.533 32.0329 41.2927 27.4785 35.6393 27.968C35.0971 30.4767 34.4465 34.9372 40.1379 35.1014C42.9016 33.3576 41.533 32.0358 41.533 32.0358V32.0329Z" fill="#B75C27"/>
<path d="M58.805 25.7432V64.2384C49.0368 64.4993 46.15 72.128 45.3646 75.3752C44.289 72.7522 43.2779 69.9123 42.044 67.1105C39.2628 60.7948 36.332 52.917 36.332 47.7764C36.332 32.2494 45.6987 25.7461 58.805 25.7461V25.7432Z" fill="#7C5B5B"/>
<path d="M58.805 25.7432V64.2384C49.0368 64.4993 46.15 72.128 45.3646 75.3752C44.289 72.7522 43.2779 69.9123 42.044 67.1105C39.2628 60.7948 36.332 52.917 36.332 47.7764C36.332 32.2494 45.6987 25.7461 58.805 25.7461V25.7432Z" fill="url(#paint10_linear_9985_449472)"/>
<path d="M58.8079 67.0869V86.1068C52.8908 86.1068 47.0002 87 47.3604 79.6891C47.8645 69.455 54.6609 67.3888 58.8079 67.0898V67.0869Z" fill="#FCA658"/>
<path d="M54.6498 80.829C55.359 81.7434 54.9517 83.2439 54.9517 83.2439C54.9517 83.2439 53.3954 83.2615 52.6891 82.3471C51.9799 81.4327 51.8451 80.3513 52.3873 79.9322C52.9294 79.5131 53.9435 79.9146 54.6498 80.829Z" fill="#382323"/>
<path d="M54.6498 80.829C55.359 81.7434 54.9517 83.2439 54.9517 83.2439C54.9517 83.2439 53.3954 83.2615 52.6891 82.3471C51.9799 81.4327 51.8451 80.3513 52.3873 79.9322C52.9294 79.5131 53.9435 79.9146 54.6498 80.829Z" fill="url(#paint11_linear_9985_449472)"/>
<path d="M73.8636 31.3023C73.8636 31.3023 74.3149 22.727 84.9623 23.6472C85.9822 28.3716 87.2072 36.7711 76.4895 37.0788C71.2845 33.7964 73.8636 31.3023 73.8636 31.3023Z" fill="url(#paint12_linear_9985_449472)"/>
<path d="M76.0781 32.0329C76.0781 32.0329 76.3185 27.4785 81.9719 27.968C82.514 30.4767 83.1647 34.9372 77.4732 35.1014C74.7095 33.3576 76.0781 32.0358 76.0781 32.0358V32.0329Z" fill="#70320E"/>
<path d="M58.8076 25.7432V64.2384C68.5758 64.4993 71.4625 72.128 72.248 75.3752C73.3236 72.7522 74.3347 69.9123 75.5685 67.1105C78.3498 60.7948 81.2805 52.917 81.2805 47.7764C81.2805 32.2494 71.9139 25.7461 58.8076 25.7461V25.7432Z" fill="#634444"/>
<path d="M58.8076 25.7432V64.2384C68.5758 64.4993 71.4625 72.128 72.248 75.3752C73.3236 72.7522 74.3347 69.9123 75.5685 67.1105C78.3498 60.7948 81.2805 52.917 81.2805 47.7764C81.2805 32.2494 71.9139 25.7461 58.8076 25.7461V25.7432Z" fill="url(#paint13_linear_9985_449472)"/>
<path d="M58.8076 67.0869V86.1068C64.7248 86.1068 70.6152 87 70.2551 79.6891C69.751 69.455 62.9546 67.3888 58.8076 67.0898V67.0869Z" fill="#DD6F37"/>
<path d="M62.9613 80.829C62.252 81.7434 62.6594 83.2439 62.6594 83.2439C62.6594 83.2439 64.2156 83.2615 64.9219 82.3471C65.6312 81.4327 65.766 80.3513 65.2238 79.9322C64.6816 79.5131 63.6676 79.9146 62.9613 80.829Z" fill="#91361A"/>
<path d="M44.8984 29.2393C44.8984 29.2393 45.0274 19.1634 55.6924 18.8351C53.7229 19.9166 53.6643 22.3051 53.6643 22.3051C53.6643 22.3051 55.6924 19.6557 60.024 18.8351C64.3556 18.0145 66.1287 15.7168 66.2254 15.6201C65.4693 18.6065 64.0274 20.7401 62.2543 21.6252C62.2543 21.6252 68.063 20.4763 71.1462 21.3966C70.7857 22.6099 67.6029 23.58 67.6029 23.58C67.6029 23.58 70.3929 26.1532 69.4082 31.9297C66.0115 27.7944 59.3147 23.8731 44.8984 29.2422V29.2393Z" fill="#5B3D3D"/>
<path d="M44.8984 29.2393C44.8984 29.2393 45.0274 19.1634 55.6924 18.8351C53.7229 19.9166 53.6643 22.3051 53.6643 22.3051C53.6643 22.3051 55.6924 19.6557 60.024 18.8351C64.3556 18.0145 66.1287 15.7168 66.2254 15.6201C65.4693 18.6065 64.0274 20.7401 62.2543 21.6252C62.2543 21.6252 68.063 20.4763 71.1462 21.3966C70.7857 22.6099 67.6029 23.58 67.6029 23.58C67.6029 23.58 70.3929 26.1532 69.4082 31.9297C66.0115 27.7944 59.3147 23.8731 44.8984 29.2422V29.2393Z" fill="url(#paint14_linear_9985_449472)"/>
<circle cx="70.5" cy="49.5" r="2.5" fill="#70320E"/>
<circle cx="47.5" cy="49.6162" r="2.5" fill="#70320E"/>
</g>
<path d="M32.2697 37.7148L33.0711 40.1336L35.5081 40.9291L33.0711 41.7246L32.2697 44.1434L31.4682 41.7246L29.0312 40.9291L31.4682 40.1336L32.2697 37.7148Z" fill="white"/>
<path d="M22.5563 27L24.4264 32.6438L30.1127 34.5L24.4264 36.3562L22.5563 42L20.6862 36.3562L15 34.5L20.6862 32.6438L22.5563 27Z" fill="white"/>
<defs>
<filter id="filter0_i_9985_449472" x="21.8945" y="10.7136" width="76.2109" height="85.43" filterUnits="userSpaceOnUse" color-interpolation-filters="sRGB">
<feFlood flood-opacity="0" result="BackgroundImageFix"/>
<feBlend mode="normal" in="SourceGraphic" in2="BackgroundImageFix" result="shape"/>
<feColorMatrix in="SourceAlpha" type="matrix" values="0 0 0 0 0 0 0 0 0 0 0 0 0 0 0 0 0 0 127 0" result="hardAlpha"/>
<feOffset dy="-1.14286"/>
<feGaussianBlur stdDeviation="0.571429"/>
<feComposite in2="hardAlpha" operator="arithmetic" k2="-1" k3="1"/>
<feColorMatrix type="matrix" values="0 0 0 0 0.616667 0 0 0 0 0.407 0 0 0 0 0 0 0 0 0.25 0"/>
<feBlend mode="normal" in2="shape" result="effect1_innerShadow_9985_449472"/>
</filter>
<filter id="filter1_ii_9985_449472" x="27.0908" y="16.5588" width="65.8184" height="74.8824" filterUnits="userSpaceOnUse" color-interpolation-filters="sRGB">
<feFlood flood-opacity="0" result="BackgroundImageFix"/>
<feBlend mode="normal" in="SourceGraphic" in2="BackgroundImageFix" result="shape"/>
<feColorMatrix in="SourceAlpha" type="matrix" values="0 0 0 0 0 0 0 0 0 0 0 0 0 0 0 0 0 0 127 0" result="hardAlpha"/>
<feOffset dy="1.14286"/>
<feGaussianBlur stdDeviation="1.14286"/>
<feComposite in2="hardAlpha" operator="arithmetic" k2="-1" k3="1"/>
<feColorMatrix type="matrix" values="0 0 0 0 0.7 0 0 0 0 0.465967 0 0 0 0 0.0116667 0 0 0 1 0"/>
<feBlend mode="normal" in2="shape" result="effect1_innerShadow_9985_449472"/>
<feColorMatrix in="SourceAlpha" type="matrix" values="0 0 0 0 0 0 0 0 0 0 0 0 0 0 0 0 0 0 127 0" result="hardAlpha"/>
<feOffset dy="-1.14286"/>
<feGaussianBlur stdDeviation="0.571429"/>
<feComposite in2="hardAlpha" operator="arithmetic" k2="-1" k3="1"/>
<feColorMatrix type="matrix" values="0 0 0 0 1 0 0 0 0 0.72 0 0 0 0 0 0 0 0 1 0"/>
<feBlend mode="normal" in2="effect1_innerShadow_9985_449472" result="effect2_innerShadow_9985_449472"/>
</filter>
<filter id="filter2_d_9985_449472" x="28.4495" y="12.9573" width="60.7094" height="84.9818" filterUnits="userSpaceOnUse" color-interpolation-filters="sRGB">
<feFlood flood-opacity="0" result="BackgroundImageFix"/>
<feColorMatrix in="SourceAlpha" type="matrix" values="0 0 0 0 0 0 0 0 0 0 0 0 0 0 0 0 0 0 127 0" result="hardAlpha"/>
<feOffset dy="0.88762"/>
<feGaussianBlur stdDeviation="1.77524"/>
<feColorMatrix type="matrix" values="0 0 0 0 0.417188 0 0 0 0 0.160564 0 0 0 0 0.00450867 0 0 0 1 0"/>
<feBlend mode="normal" in2="BackgroundImageFix" result="effect1_dropShadow_9985_449472"/>
<feBlend mode="normal" in="SourceGraphic" in2="effect1_dropShadow_9985_449472" result="shape"/>
</filter>
<linearGradient id="paint0_linear_9985_449472" x1="30.999" y1="89.9995" x2="53.999" y2="102.5" gradientUnits="userSpaceOnUse">
<stop offset="0.484531" stop-color="#FFC700"/>
<stop offset="0.484631" stop-color="#FFE590"/>
</linearGradient>
<linearGradient id="paint1_linear_9985_449472" x1="30.999" y1="89.9995" x2="53.999" y2="102.5" gradientUnits="userSpaceOnUse">
<stop offset="0.484531" stop-color="#FFC700"/>
<stop offset="0.484631" stop-color="#FFE590"/>
</linearGradient>
<linearGradient id="paint2_linear_9985_449472" x1="77.0106" y1="85.0327" x2="68.9049" y2="89.7125" gradientUnits="userSpaceOnUse">
<stop offset="0.484631" stop-color="#FFE590"/>
<stop offset="0.488859" stop-color="#FFC700"/>
</linearGradient>
<linearGradient id="paint3_linear_9985_449472" x1="27.9487" y1="16.8205" x2="94.6154" y2="91.1795" gradientUnits="userSpaceOnUse">
<stop stop-color="#FFECA9"/>
<stop offset="0.237301" stop-color="#FFD600"/>
<stop offset="1" stop-color="#FF9900"/>
</linearGradient>
<linearGradient id="paint4_linear_9985_449472" x1="60" y1="4" x2="60" y2="104" gradientUnits="userSpaceOnUse">
<stop stop-color="white" stop-opacity="0.5"/>
<stop offset="1" stop-color="white" stop-opacity="0"/>
</linearGradient>
<linearGradient id="paint5_linear_9985_449472" x1="31.8889" y1="20.3889" x2="88.1111" y2="88.2222" gradientUnits="userSpaceOnUse">
<stop stop-color="#FFC700"/>
<stop offset="1" stop-color="#D58500"/>
</linearGradient>
<linearGradient id="paint6_linear_9985_449472" x1="34.8529" y1="22.7059" x2="66.1471" y2="92" gradientUnits="userSpaceOnUse">
<stop stop-color="#FFB13C"/>
<stop offset="0.484375" stop-color="#B45F1D"/>
<stop offset="1" stop-color="#743110"/>
</linearGradient>
<linearGradient id="paint7_linear_9985_449472" x1="55.8425" y1="62.4781" x2="48.2678" y2="80.0584" gradientUnits="userSpaceOnUse">
<stop stop-color="#B75C28"/>
<stop offset="1" stop-color="#924111"/>
</linearGradient>
<linearGradient id="paint8_linear_9985_449472" x1="69.3611" y1="62.4781" x2="61.7863" y2="80.0584" gradientUnits="userSpaceOnUse">
<stop stop-color="#A34D1D"/>
<stop offset="1" stop-color="#7D350B"/>
</linearGradient>
<linearGradient id="paint9_linear_9985_449472" x1="41.9191" y1="27.5354" x2="30.9349" y2="29.2362" gradientUnits="userSpaceOnUse">
<stop stop-color="#E99921"/>
<stop offset="1" stop-color="#FDB542"/>
</linearGradient>
<linearGradient id="paint10_linear_9985_449472" x1="58.8049" y1="43.4471" x2="38.782" y2="44.3277" gradientUnits="userSpaceOnUse">
<stop stop-color="#FFE587"/>
<stop offset="1" stop-color="#FFC548"/>
</linearGradient>
<linearGradient id="paint11_linear_9985_449472" x1="54.4079" y1="79.9159" x2="53.0865" y2="83.4526" gradientUnits="userSpaceOnUse">
<stop stop-color="#B75C28"/>
<stop offset="1" stop-color="#924111"/>
</linearGradient>
<linearGradient id="paint12_linear_9985_449472" x1="79.4163" y1="28.1997" x2="74.2412" y2="34.0906" gradientUnits="userSpaceOnUse">
<stop stop-color="#E88B48"/>
<stop offset="1" stop-color="#F0A948"/>
</linearGradient>
<linearGradient id="paint13_linear_9985_449472" x1="58.8076" y1="47.5701" x2="81.6371" y2="47.5701" gradientUnits="userSpaceOnUse">
<stop stop-color="#F4A431"/>
<stop offset="1" stop-color="#FFCE6A"/>
</linearGradient>
<linearGradient id="paint14_linear_9985_449472" x1="47.1781" y1="30.1539" x2="68.3385" y2="29.4053" gradientUnits="userSpaceOnUse">
<stop stop-color="#DC7F11"/>
<stop offset="1" stop-color="#A3592F"/>
</linearGradient>
</defs>
</svg>
