<svg width="120" height="120" viewBox="0 0 120 120" fill="none" xmlns="http://www.w3.org/2000/svg">
<path d="M59.9986 0L77.2934 20.0893H42.7038L59.9986 0Z" fill="url(#paint0_linear_9985_447421)"/>
<path d="M60.0014 114.643L42.7066 94.5538L77.2962 94.5538L60.0014 114.643Z" fill="url(#paint1_linear_9985_447421)"/>
<g filter="url(#filter0_f_9985_447421)">
<path d="M59.5248 5.14307L61.5285 11.19L67.6209 13.1788L61.5285 15.1675L59.5248 21.2145L57.5211 15.1675L51.4287 13.1788L57.5211 11.19L59.5248 5.14307Z" fill="white" fill-opacity="0.62"/>
<path d="M59.5248 5.32474L61.4742 11.208L61.4833 11.2354L61.5107 11.2444L67.4367 13.1788L61.5107 15.1132L61.4833 15.1222L61.4742 15.1495L59.5248 21.0328L57.5753 15.1495L57.5663 15.1222L57.5388 15.1132L51.6129 13.1788L57.5388 11.2444L57.5663 11.2354L57.5753 11.208L59.5248 5.32474Z" stroke="#FFC886" stroke-width="0.114286"/>
</g>
<path d="M110.015 85.9828L83.8389 90.8042L101.134 61.072L110.015 85.9828Z" fill="url(#paint2_linear_9985_447421)"/>
<path d="M9.98516 28.6603L36.1611 23.8389L18.8663 53.571L9.98516 28.6603Z" fill="url(#paint3_linear_9985_447421)"/>
<path d="M110.013 28.6605L101.132 53.5712L83.8376 23.8391L110.013 28.6605Z" fill="url(#paint4_linear_9985_447421)"/>
<path d="M9.98653 85.9826L18.8676 61.0719L36.1624 90.804L9.98653 85.9826Z" fill="url(#paint5_linear_9985_447421)"/>
<path d="M104.514 56.7855C104.514 80.8868 84.8283 100.428 60.5407 100.428C36.2532 100.428 16.5679 80.8868 16.5679 56.7855C16.5679 32.6842 36.2532 13.1426 60.5407 13.1426C84.8283 13.1426 104.514 32.6842 104.514 56.7855Z" fill="url(#paint6_linear_9985_447421)" stroke="url(#paint7_linear_9985_447421)" stroke-width="0.571429"/>
<g filter="url(#filter1_i_9985_447421)">
<ellipse cx="60.5408" cy="56.7858" rx="38.8611" ry="38.5714" fill="url(#paint8_linear_9985_447421)"/>
</g>
<g filter="url(#filter2_i_9985_447421)">
<ellipse cx="60.5396" cy="56.7859" rx="32.3843" ry="32.1429" fill="url(#paint9_linear_9985_447421)"/>
</g>
<path d="M43.2667 28.9287L44.0682 31.3475L46.5052 32.143L44.0682 32.9385L43.2667 35.3573L42.4653 32.9385L40.0283 32.143L42.4653 31.3475L43.2667 28.9287Z" fill="white"/>
<path d="M33.5514 18.2144L35.4215 23.8582L41.1078 25.7144L35.4215 27.5705L33.5514 33.2144L31.6814 27.5705L25.9951 25.7144L31.6814 23.8582L33.5514 18.2144Z" fill="white"/>
<g filter="url(#filter3_d_9985_447421)">
<path d="M60.4962 76.8407L72.9642 51.4893H48.0283L60.4962 76.8407Z" fill="#C4C4C4"/>
<path d="M60.4962 76.8407L72.9642 51.4893H48.0283L60.4962 76.8407Z" fill="url(#paint10_linear_9985_447421)"/>
<path d="M88.9973 51.4895L79.023 37.0029L78.3105 40.6246L85.4351 51.4895H88.9973Z" fill="#C4C4C4"/>
<path d="M88.9973 51.4895L79.023 37.0029L78.3105 40.6246L85.4351 51.4895H88.9973Z" fill="url(#paint11_linear_9985_447421)"/>
<path d="M85.4347 51.4899L78.3102 40.625L72.9668 51.4899H85.4347Z" fill="#C4C4C4"/>
<path d="M85.4347 51.4899L78.3102 40.625L72.9668 51.4899H85.4347Z" fill="url(#paint12_linear_9985_447421)"/>
<path d="M72.9689 51.4899L78.3123 40.625H60.501L72.9689 51.4899Z" fill="#C4C4C4"/>
<path d="M72.9689 51.4899L78.3123 40.625H60.501L72.9689 51.4899Z" fill="url(#paint13_linear_9985_447421)"/>
<path d="M60.4962 40.625L72.9642 51.4899H48.0283L60.4962 40.625Z" fill="#C4C4C4"/>
<path d="M60.4962 40.625L72.9642 51.4899H48.0283L60.4962 40.625Z" fill="url(#paint14_linear_9985_447421)"/>
<path d="M60.4988 40.625H42.6875L48.0309 51.4899L60.4988 40.625Z" fill="#C4C4C4"/>
<path d="M60.4988 40.625H42.6875L48.0309 51.4899L60.4988 40.625Z" fill="url(#paint15_linear_9985_447421)"/>
<path d="M79.0221 37.0029H41.9746L42.6871 40.6246H60.4984H78.3097L79.0221 37.0029Z" fill="#C4C4C4"/>
<path d="M79.0221 37.0029H41.9746L42.6871 40.6246H60.4984H78.3097L79.0221 37.0029Z" fill="url(#paint16_linear_9985_447421)"/>
<path d="M42.687 40.625L35.5625 51.4899H48.0304L42.687 40.625Z" fill="#C4C4C4"/>
<path d="M42.687 40.625L35.5625 51.4899H48.0304L42.687 40.625Z" fill="url(#paint17_linear_9985_447421)"/>
<path d="M32 51.4865L41.9743 37L42.6868 40.6216L35.5623 51.4865H32Z" fill="#C4C4C4"/>
<path d="M32 51.4865L41.9743 37L42.6868 40.6216L35.5623 51.4865H32Z" fill="url(#paint18_linear_9985_447421)"/>
<path d="M60.4981 80.4623L32 51.4893H35.5623L60.4981 76.8407V80.4623Z" fill="#C4C4C4"/>
<path d="M60.4981 80.4623L32 51.4893H35.5623L60.4981 76.8407V80.4623Z" fill="url(#paint19_linear_9985_447421)"/>
<path d="M88.9991 51.4893L60.501 80.4623V76.8407L85.4368 51.4893H88.9991Z" fill="#C4C4C4"/>
<path d="M88.9991 51.4893L60.501 80.4623V76.8407L85.4368 51.4893H88.9991Z" fill="url(#paint20_linear_9985_447421)"/>
<path d="M60.4983 76.8407L35.5625 51.4893H48.0304L60.4983 76.8407Z" fill="#C4C4C4"/>
<path d="M60.4983 76.8407L35.5625 51.4893H48.0304L60.4983 76.8407Z" fill="url(#paint21_linear_9985_447421)"/>
<path d="M85.4368 51.4893L60.501 76.8407L72.9689 51.4893H85.4368Z" fill="url(#paint22_linear_9985_447421)"/>
</g>
<path d="M59.9978 0L77.2926 20.0893H42.7031L59.9978 0Z" fill="white" style="mix-blend-mode:color"/>
<path d="M60.0025 114.643L42.7078 94.5533H77.2973L60.0025 114.643Z" fill="white" style="mix-blend-mode:color"/>
<path d="M59.526 5.14258L61.5296 11.1896L67.622 13.1783L61.5296 15.167L59.526 21.214L57.5223 15.167L51.4299 13.1783L57.5223 11.1896L59.526 5.14258Z" fill="white" style="mix-blend-mode:color"/>
<path d="M110.015 85.9823L83.8391 90.8037L101.134 61.0716L110.015 85.9823Z" fill="white" style="mix-blend-mode:color"/>
<path d="M9.98535 28.6603L36.1613 23.8389L18.8665 53.571L9.98535 28.6603Z" fill="white" style="mix-blend-mode:color"/>
<path d="M110.013 28.66L101.132 53.5707L83.8368 23.8386L110.013 28.66Z" fill="white" style="mix-blend-mode:color"/>
<path d="M9.9877 85.9826L18.8688 61.0719L36.1636 90.804L9.9877 85.9826Z" fill="white" style="mix-blend-mode:color"/>
<path d="M104.798 56.786C104.798 81.0471 84.9833 100.715 60.54 100.715C36.0967 100.715 16.2814 81.0471 16.2814 56.786C16.2814 32.5249 36.0967 12.8574 60.54 12.8574C84.9833 12.8574 104.798 32.5249 104.798 56.786Z" fill="white" style="mix-blend-mode:color"/>
<path d="M99.4022 56.7853C99.4022 78.0877 82.0034 95.3567 60.541 95.3567C39.0786 95.3567 21.6799 78.0877 21.6799 56.7853C21.6799 35.4829 39.0786 18.2139 60.541 18.2139C82.0034 18.2139 99.4022 35.4829 99.4022 56.7853Z" fill="white" style="mix-blend-mode:color"/>
<path d="M92.925 56.7854C92.925 74.5374 78.4261 88.9283 60.5407 88.9283C42.6554 88.9283 28.1564 74.5374 28.1564 56.7854C28.1564 39.0334 42.6554 24.6426 60.5407 24.6426C78.4261 24.6426 92.925 39.0334 92.925 56.7854Z" fill="white" style="mix-blend-mode:color"/>
<path d="M43.266 28.9287L44.0674 31.3475L46.5044 32.143L44.0674 32.9385L43.266 35.3573L42.4645 32.9385L40.0275 32.143L42.4645 31.3475L43.266 28.9287Z" fill="white" style="mix-blend-mode:color"/>
<path d="M33.5526 18.2139L35.4227 23.8577L41.109 25.7139L35.4227 27.57L33.5526 33.2139L31.6825 27.57L25.9963 25.7139L31.6825 23.8577L33.5526 18.2139Z" fill="white" style="mix-blend-mode:color"/>
<path d="M60.4962 76.8409L72.9641 51.4895H48.0283L60.4962 76.8409Z" fill="white" style="mix-blend-mode:color"/>
<path d="M88.9973 51.4893L79.023 37.0028L78.3105 40.6244L85.4351 51.4893H88.9973Z" fill="white" style="mix-blend-mode:color"/>
<path d="M85.4351 51.4893L78.3105 40.6244L72.9666 51.4901L85.4351 51.4893Z" fill="white" style="mix-blend-mode:color"/>
<path d="M72.9691 51.4901L78.3125 40.6252H60.5012L72.9691 51.4901Z" fill="white" style="mix-blend-mode:color"/>
<path d="M60.4962 40.6252L72.9641 51.4895H48.0283L60.4962 40.6252Z" fill="white" style="mix-blend-mode:color"/>
<path d="M60.4994 40.6252H42.6881L48.0315 51.4901L60.4994 40.6252Z" fill="white" style="mix-blend-mode:color"/>
<path d="M79.023 37.0028H41.9748L42.6872 40.6244H78.3105L79.023 37.0028Z" fill="white" style="mix-blend-mode:color"/>
<path d="M42.6881 40.6252L35.5628 51.4901H48.0315L42.6881 40.6252Z" fill="white" style="mix-blend-mode:color"/>
<path d="M32.0002 51.4865L41.9745 37L42.687 40.6216L35.5625 51.4865H32.0002Z" fill="white" style="mix-blend-mode:color"/>
<path d="M60.4983 80.4626L32.0002 51.4895L35.5628 51.4901L60.4983 76.8409V80.4626Z" fill="white" style="mix-blend-mode:color"/>
<path d="M88.9993 51.4895L60.5012 80.4626V76.8409L85.437 51.4895H88.9993Z" fill="white" style="mix-blend-mode:color"/>
<path d="M60.4983 76.8409L35.5628 51.4901H48.0315L60.4983 76.8409Z" fill="white" style="mix-blend-mode:color"/>
<path d="M85.437 51.4895L60.5012 76.8409L72.9691 51.4901L85.437 51.4895Z" fill="white" style="mix-blend-mode:color"/>
<defs>
<filter id="filter0_f_9985_447421" x="48.5716" y="2.28592" width="21.9067" height="21.7856" filterUnits="userSpaceOnUse" color-interpolation-filters="sRGB">
<feFlood flood-opacity="0" result="BackgroundImageFix"/>
<feBlend mode="normal" in="SourceGraphic" in2="BackgroundImageFix" result="shape"/>
<feGaussianBlur stdDeviation="1.42857" result="effect1_foregroundBlur_9985_447421"/>
</filter>
<filter id="filter1_i_9985_447421" x="21.6797" y="17.0715" width="77.7227" height="78.2859" filterUnits="userSpaceOnUse" color-interpolation-filters="sRGB">
<feFlood flood-opacity="0" result="BackgroundImageFix"/>
<feBlend mode="normal" in="SourceGraphic" in2="BackgroundImageFix" result="shape"/>
<feColorMatrix in="SourceAlpha" type="matrix" values="0 0 0 0 0 0 0 0 0 0 0 0 0 0 0 0 0 0 127 0" result="hardAlpha"/>
<feOffset dy="-1.14286"/>
<feGaussianBlur stdDeviation="1.14286"/>
<feComposite in2="hardAlpha" operator="arithmetic" k2="-1" k3="1"/>
<feColorMatrix type="matrix" values="0 0 0 0 0 0 0 0 0 0.172667 0 0 0 0 0.616667 0 0 0 0.15 0"/>
<feBlend mode="normal" in2="shape" result="effect1_innerShadow_9985_447421"/>
</filter>
<filter id="filter2_i_9985_447421" x="28.1553" y="23.5002" width="64.7686" height="65.4285" filterUnits="userSpaceOnUse" color-interpolation-filters="sRGB">
<feFlood flood-opacity="0" result="BackgroundImageFix"/>
<feBlend mode="normal" in="SourceGraphic" in2="BackgroundImageFix" result="shape"/>
<feColorMatrix in="SourceAlpha" type="matrix" values="0 0 0 0 0 0 0 0 0 0 0 0 0 0 0 0 0 0 127 0" result="hardAlpha"/>
<feOffset dy="-1.14286"/>
<feGaussianBlur stdDeviation="2.85714"/>
<feComposite in2="hardAlpha" operator="arithmetic" k2="-1" k3="1"/>
<feColorMatrix type="matrix" values="0 0 0 0 0.574984 0 0 0 0 0 0 0 0 0 0.0862476 0 0 0 1 0"/>
<feBlend mode="normal" in2="shape" result="effect1_innerShadow_9985_447421"/>
</filter>
<filter id="filter3_d_9985_447421" x="28" y="34" width="64.999" height="51.4624" filterUnits="userSpaceOnUse" color-interpolation-filters="sRGB">
<feFlood flood-opacity="0" result="BackgroundImageFix"/>
<feColorMatrix in="SourceAlpha" type="matrix" values="0 0 0 0 0 0 0 0 0 0 0 0 0 0 0 0 0 0 127 0" result="hardAlpha"/>
<feOffset dy="1"/>
<feGaussianBlur stdDeviation="2"/>
<feColorMatrix type="matrix" values="0 0 0 0 0.405046 0 0 0 0 0 0 0 0 0 0.202523 0 0 0 0.8 0"/>
<feBlend mode="normal" in2="BackgroundImageFix" result="effect1_dropShadow_9985_447421"/>
<feBlend mode="normal" in="SourceGraphic" in2="effect1_dropShadow_9985_447421" result="shape"/>
</filter>
<linearGradient id="paint0_linear_9985_447421" x1="52.8093" y1="8.03571" x2="67.1879" y2="8.03571" gradientUnits="userSpaceOnUse">
<stop offset="0.488759" stop-color="#FFB7B7"/>
<stop offset="0.488959" stop-color="#D15C5C"/>
</linearGradient>
<linearGradient id="paint1_linear_9985_447421" x1="67.1907" y1="106.607" x2="52.8121" y2="106.607" gradientUnits="userSpaceOnUse">
<stop offset="0.488759" stop-color="#FF8686"/>
<stop offset="0.488859" stop-color="#D1E5EE"/>
<stop offset="0.488959" stop-color="#D15C5C"/>
</linearGradient>
<linearGradient id="paint2_linear_9985_447421" x1="106.598" y1="75.7852" x2="99.4892" y2="88.1907" gradientUnits="userSpaceOnUse">
<stop offset="0.488759" stop-color="#FF8686"/>
<stop offset="0.488859" stop-color="#D1E5EE"/>
<stop offset="0.488959" stop-color="#D15C5C"/>
</linearGradient>
<linearGradient id="paint3_linear_9985_447421" x1="13.4019" y1="38.8579" x2="20.5108" y2="26.4524" gradientUnits="userSpaceOnUse">
<stop offset="0.488759" stop-color="#FF8686"/>
<stop offset="0.488859" stop-color="#D1E5EE"/>
<stop offset="0.488959" stop-color="#D15C5C"/>
</linearGradient>
<linearGradient id="paint4_linear_9985_447421" x1="99.4074" y1="26.4986" x2="106.516" y2="38.9041" gradientUnits="userSpaceOnUse">
<stop offset="0.488759" stop-color="#FF8686"/>
<stop offset="0.488859" stop-color="#D1E5EE"/>
<stop offset="0.488959" stop-color="#D15C5C"/>
</linearGradient>
<linearGradient id="paint5_linear_9985_447421" x1="20.5926" y1="88.1444" x2="13.4837" y2="75.7389" gradientUnits="userSpaceOnUse">
<stop offset="0.488759" stop-color="#FF8686"/>
<stop offset="0.488859" stop-color="#D1E5EE"/>
<stop offset="0.488959" stop-color="#D15C5C"/>
</linearGradient>
<linearGradient id="paint6_linear_9985_447421" x1="32.1699" y1="24.1207" x2="90.6921" y2="89.8857" gradientUnits="userSpaceOnUse">
<stop stop-color="#FFADAD"/>
<stop offset="0.520833" stop-color="#FFCECB"/>
<stop offset="1" stop-color="#B41212"/>
</linearGradient>
<linearGradient id="paint7_linear_9985_447421" x1="60.5407" y1="12.8569" x2="60.5407" y2="100.714" gradientUnits="userSpaceOnUse">
<stop stop-color="white" stop-opacity="0.5"/>
<stop offset="1" stop-color="white" stop-opacity="0"/>
</linearGradient>
<linearGradient id="paint8_linear_9985_447421" x1="35.7129" y1="27.3215" x2="84.9289" y2="87.1477" gradientUnits="userSpaceOnUse">
<stop stop-color="#D35B5B"/>
<stop offset="1" stop-color="#FFB2B2"/>
</linearGradient>
<linearGradient id="paint9_linear_9985_447421" x1="39.1088" y1="30.3153" x2="65.4483" y2="89.0766" gradientUnits="userSpaceOnUse">
<stop stop-color="#FB5E71"/>
<stop offset="0.484375" stop-color="#B83B54"/>
<stop offset="1" stop-color="#7F2C45"/>
</linearGradient>
<linearGradient id="paint10_linear_9985_447421" x1="60.4962" y1="51.4893" x2="60.4962" y2="76.8407" gradientUnits="userSpaceOnUse">
<stop stop-color="#E95E88"/>
<stop offset="1" stop-color="#FDA4B1"/>
</linearGradient>
<linearGradient id="paint11_linear_9985_447421" x1="78.3105" y1="38.5826" x2="87.4462" y2="51.4895" gradientUnits="userSpaceOnUse">
<stop stop-color="#D84F58"/>
<stop offset="1" stop-color="#E56269"/>
</linearGradient>
<linearGradient id="paint12_linear_9985_447421" x1="80.6708" y1="43.7614" x2="73.9214" y2="50.7123" gradientUnits="userSpaceOnUse">
<stop stop-color="#D76372"/>
<stop offset="1" stop-color="#FFCEDA"/>
</linearGradient>
<linearGradient id="paint13_linear_9985_447421" x1="60.501" y1="40.625" x2="74.9293" y2="47.7895" gradientUnits="userSpaceOnUse">
<stop stop-color="#F3B7C3"/>
<stop offset="1" stop-color="#F68AAC"/>
</linearGradient>
<linearGradient id="paint14_linear_9985_447421" x1="60.4962" y1="40.625" x2="60.4962" y2="51.4899" gradientUnits="userSpaceOnUse">
<stop stop-color="#FCD5E3"/>
<stop offset="1" stop-color="#FBF2FE"/>
</linearGradient>
<linearGradient id="paint15_linear_9985_447421" x1="60.4988" y1="40.625" x2="45.5378" y2="46.0575" gradientUnits="userSpaceOnUse">
<stop stop-color="#E9DBFB"/>
<stop offset="1" stop-color="#EDE1FF"/>
</linearGradient>
<linearGradient id="paint16_linear_9985_447421" x1="41.9746" y1="38.8137" x2="79.0221" y2="38.8137" gradientUnits="userSpaceOnUse">
<stop stop-color="#EDD7FD"/>
<stop offset="0.895833" stop-color="#FDFCFF"/>
</linearGradient>
<linearGradient id="paint17_linear_9985_447421" x1="43.2726" y1="40.625" x2="41.7965" y2="51.4899" gradientUnits="userSpaceOnUse">
<stop stop-color="#D7A0A9"/>
<stop offset="1" stop-color="#EFB4C9"/>
</linearGradient>
<linearGradient id="paint18_linear_9985_447421" x1="42.2366" y1="38.4048" x2="33.8806" y2="51.4865" gradientUnits="userSpaceOnUse">
<stop stop-color="#F7E0FD"/>
<stop offset="1" stop-color="#FEEDFF"/>
</linearGradient>
<linearGradient id="paint19_linear_9985_447421" x1="34.202" y1="51.4893" x2="60.4981" y2="78.5097" gradientUnits="userSpaceOnUse">
<stop stop-color="#FF6A94"/>
<stop offset="1" stop-color="#F556E0"/>
</linearGradient>
<linearGradient id="paint20_linear_9985_447421" x1="86.696" y1="51.4893" x2="60.501" y2="79.0995" gradientUnits="userSpaceOnUse">
<stop stop-color="#EF33AA"/>
<stop offset="1" stop-color="#FE25CB"/>
</linearGradient>
<linearGradient id="paint21_linear_9985_447421" x1="41.1322" y1="51.4893" x2="60.4983" y2="76.8407" gradientUnits="userSpaceOnUse">
<stop stop-color="#FF859A"/>
<stop offset="1" stop-color="#D4374F"/>
</linearGradient>
<linearGradient id="paint22_linear_9985_447421" x1="78.8757" y1="51.4893" x2="60.501" y2="76.8407" gradientUnits="userSpaceOnUse">
<stop stop-color="#D54973"/>
<stop offset="1" stop-color="#E581A2"/>
</linearGradient>
</defs>
</svg>
