<svg width="120" height="120" viewBox="0 0 120 120" fill="none" xmlns="http://www.w3.org/2000/svg">
<path d="M42.999 69.9995L54.2574 76.4995L41.2574 99.0162L23.999 102.908L42.999 69.9995Z" fill="url(#paint0_linear_9985_449429)"/>
<path d="M65.5157 82.9995L54.2574 76.4995L41.2574 99.0162L46.5157 115.908L65.5157 82.9995Z" fill="url(#paint1_linear_9985_449429)"/>
<path fill-rule="evenodd" clip-rule="evenodd" d="M68.2573 76.5L79.5156 70L98.5156 102.909L81.2583 99.0169L76 115.909L57 83L68.2576 76.5004L68.2573 76.5Z" fill="url(#paint2_linear_9985_449429)"/>
<path d="M53.1429 7.86624C58.0049 5.05915 63.9951 5.05915 68.8571 7.86624L96.1584 23.6286C101.02 26.4357 104.016 31.6234 104.016 37.2376V68.7624C104.016 74.3766 101.02 79.5643 96.1584 82.3714L68.8571 98.1338C63.9951 100.941 58.0049 100.941 53.1429 98.1338L25.8416 82.3714C20.9796 79.5643 17.9844 74.3766 17.9844 68.7624V37.2376C17.9844 31.6234 20.9796 26.4357 25.8416 23.6286L53.1429 7.86624Z" fill="url(#paint3_linear_9985_449429)" stroke="url(#paint4_linear_9985_449429)" stroke-width="0.571429"/>
<g filter="url(#filter0_i_9985_449429)">
<path d="M55 12.4641C58.7128 10.3205 63.2872 10.3205 67 12.4641L93.1051 27.5359C96.8179 29.6795 99.1051 33.641 99.1051 37.9282V68.0718C99.1051 72.359 96.8179 76.3205 93.1051 78.4641L67 93.5359C63.2872 95.6795 58.7128 95.6795 55 93.5359L28.8949 78.4641C25.1821 76.3205 22.8949 72.359 22.8949 68.0718V37.9282C22.8949 33.641 25.1821 29.6795 28.8949 27.5359L55 12.4641Z" fill="url(#paint5_linear_9985_449429)"/>
</g>
<g filter="url(#filter1_ii_9985_449429)">
<path d="M55.5 18.1754C58.9034 16.2105 63.0966 16.2105 66.5 18.1754L88.409 30.8246C91.8124 32.7895 93.909 36.4209 93.909 40.3509V65.6491C93.909 69.5791 91.8124 73.2105 88.409 75.1754L66.5 87.8246C63.0966 89.7895 58.9034 89.7895 55.5 87.8246L33.591 75.1754C30.1876 73.2105 28.091 69.5791 28.091 65.6491V40.3509C28.091 36.4209 30.1876 32.7895 33.591 30.8246L55.5 18.1754Z" fill="url(#paint6_linear_9985_449429)"/>
</g>
<g filter="url(#filter2_d_9985_449429)">
<path d="M33.3123 43.2116C32.9914 42.7822 24.6673 38.0972 17.8231 45.7335C10.9831 53.3691 21.4645 76.7785 41.5079 66.644C50.5151 54.3938 33.3089 43.2122 33.3089 43.2122L33.3123 43.2116Z" fill="#382323"/>
<path d="M33.3123 43.2116C32.9914 42.7822 24.6673 38.0972 17.8231 45.7335C10.9831 53.3691 21.4645 76.7785 41.5079 66.644C50.5151 54.3938 33.3089 43.2122 33.3089 43.2122L33.3123 43.2116Z" fill="url(#paint7_linear_9985_449429)"/>
<path d="M35.3676 48.8162C35.0497 48.5556 27.3954 45.2803 23.6998 52.2634C20.0006 59.2515 33.1094 72.7774 42.1721 64.3709C39.5814 52.7891 35.3676 48.8162 35.3676 48.8162Z" fill="#FFAF4C"/>
<path d="M60.7257 35.0763V81.3834C49.5045 81.3414 41.7126 75.9648 40.6745 70.7923C39.5914 65.3857 41.3856 62.1813 41.3856 62.1813C41.3856 62.1813 41.3856 62.1783 41.3826 62.1783C34.1938 54.7945 40.3295 41.473 40.3295 41.473L45.19 38.8087L57.8394 35.0283L60.7257 35.0793V35.0763Z" fill="#7C5B5B"/>
<path d="M60.7257 35.0763V81.3834C49.5045 81.3414 41.7126 75.9648 40.6745 70.7923C39.5914 65.3857 41.3856 62.1813 41.3856 62.1813C41.3856 62.1813 41.3856 62.1783 41.3826 62.1783C34.1938 54.7945 40.3295 41.473 40.3295 41.473L45.19 38.8087L57.8394 35.0283L60.7257 35.0793V35.0763Z" fill="url(#paint8_linear_9985_449429)"/>
<path d="M60.7254 26V44.6651C60.7254 44.6651 53.1016 36.5042 45.4717 41.1127C37.8419 45.7242 37.3408 55.3012 41.3823 62.178C41.1873 62.0279 34.3855 56.6484 35.6997 46.1622C36.9688 36.0151 49.5762 26.6241 60.7254 26.003V26Z" fill="#382323"/>
<path d="M60.7254 26V44.6651C60.7254 44.6651 53.1016 36.5042 45.4717 41.1127C37.8419 45.7242 37.3408 55.3012 41.3823 62.178C41.1873 62.0279 34.3855 56.6484 35.6997 46.1622C36.9688 36.0151 49.5762 26.6241 60.7254 26.003V26Z" fill="url(#paint9_linear_9985_449429)"/>
<path d="M88.0724 43.2116C88.3934 42.7822 96.7175 38.0972 103.562 45.7335C110.402 53.3691 99.9203 76.7785 79.8769 66.644C70.8696 54.3938 88.0758 43.2122 88.0758 43.2122L88.0724 43.2116Z" fill="#382323"/>
<path d="M88.0724 43.2116C88.3934 42.7822 96.7175 38.0972 103.562 45.7335C110.402 53.3691 99.9203 76.7785 79.8769 66.644C70.8696 54.3938 88.0758 43.2122 88.0758 43.2122L88.0724 43.2116Z" fill="url(#paint10_linear_9985_449429)"/>
<path d="M86.0171 48.8162C86.3351 48.5556 93.9893 45.2803 97.685 52.2634C101.384 59.2515 88.2754 72.7774 79.2127 64.3709C81.8033 52.7891 86.0171 48.8162 86.0171 48.8162Z" fill="#FB9459"/>
<path d="M60.7236 35.0763V81.3834C71.9449 81.3414 79.7367 75.9648 80.7748 70.7923C81.858 65.3857 80.0638 62.1813 80.0638 62.1813C80.0638 62.1813 80.0638 62.1783 80.0668 62.1783C87.2555 54.7945 81.1199 41.473 81.1199 41.473L76.2593 38.8087L63.6099 35.0283L60.7236 35.0793V35.0763Z" fill="#634444"/>
<path d="M60.7236 35.0763V81.3834C71.9449 81.3414 79.7367 75.9648 80.7748 70.7923C81.858 65.3857 80.0638 62.1813 80.0638 62.1813C80.0638 62.1813 80.0638 62.1783 80.0668 62.1783C87.2555 54.7945 81.1199 41.473 81.1199 41.473L76.2593 38.8087L63.6099 35.0283L60.7236 35.0793V35.0763Z" fill="url(#paint11_linear_9985_449429)"/>
<path d="M60.7236 26V44.6651C60.7236 44.6651 68.3475 36.5042 75.9773 41.1127C83.6071 45.7242 84.1082 55.3012 80.0668 62.178C80.2618 62.0279 87.0635 56.6484 85.7494 46.1622C84.4802 36.0151 71.8729 26.6241 60.7236 26.003V26Z" fill="#382323"/>
<path d="M60.7236 26V44.6651C60.7236 44.6651 68.3475 36.5042 75.9773 41.1127C83.6071 45.7242 84.1082 55.3012 80.0668 62.178C80.2618 62.0279 87.0635 56.6484 85.7494 46.1622C84.4802 36.0151 71.8729 26.6241 60.7236 26.003V26Z" fill="url(#paint12_linear_9985_449429)"/>
<path d="M59.3189 66.2065C59.3189 66.2065 59.0999 64.2413 57.8367 64.4063C56.5736 64.5713 57.4497 66.0115 58.1368 65.9215C58.8239 65.8345 59.0729 66.3265 59.3189 66.2035V66.2065Z" fill="#382323"/>
<path d="M59.3189 66.2065C59.3189 66.2065 59.0999 64.2413 57.8367 64.4063C56.5736 64.5713 57.4497 66.0115 58.1368 65.9215C58.8239 65.8345 59.0729 66.3265 59.3189 66.2035V66.2065Z" fill="url(#paint13_linear_9985_449429)"/>
<path d="M61.5859 66.2065C61.5859 66.2065 61.805 64.2413 63.0681 64.4063C64.3312 64.5713 63.4551 66.0115 62.7681 65.9215C62.081 65.8315 61.832 66.3265 61.5859 66.2035V66.2065Z" fill="#382323"/>
<path d="M61.5859 66.2065C61.5859 66.2065 61.805 64.2413 63.0681 64.4063C64.3312 64.5713 63.4551 66.0115 62.7681 65.9215C62.081 65.8315 61.832 66.3265 61.5859 66.2035V66.2065Z" fill="url(#paint14_linear_9985_449429)"/>
<path d="M48.6241 69.0469C50.8113 73.7724 55.3838 72.2092 58.9482 70.127C60.1514 69.5539 61.6005 69.8599 62.7346 70.433C64.2708 71.3091 65.84 71.7891 67.6252 71.7381C68.7533 71.7351 69.8904 71.4711 70.7965 70.79C71.7506 70.115 72.3117 69.0408 72.8338 68.0117C72.4767 69.1548 72.0147 70.319 71.0786 71.1381C68.6663 73.1723 64.9369 73.6922 62.3506 72.2371C61.3845 71.793 60.3014 71.502 59.2933 71.946C55.5759 74.1303 50.2113 74.3064 48.6211 69.0499L48.6241 69.0469Z" fill="#873E15"/>
<circle cx="70.7266" cy="56.5" r="2.5" fill="#70320E"/>
<circle cx="50.5" cy="56.6162" r="2.5" fill="#70320E"/>
</g>
<path d="M32.2697 37.7148L33.0711 40.1336L35.5081 40.9291L33.0711 41.7246L32.2697 44.1434L31.4682 41.7246L29.0312 40.9291L31.4682 40.1336L32.2697 37.7148Z" fill="white"/>
<path d="M22.5563 27L24.4264 32.6438L30.1127 34.5L24.4264 36.3562L22.5563 42L20.6862 36.3562L15 34.5L20.6862 32.6438L22.5563 27Z" fill="white"/>
<defs>
<filter id="filter0_i_9985_449429" x="22.8945" y="9.71359" width="76.2109" height="85.43" filterUnits="userSpaceOnUse" color-interpolation-filters="sRGB">
<feFlood flood-opacity="0" result="BackgroundImageFix"/>
<feBlend mode="normal" in="SourceGraphic" in2="BackgroundImageFix" result="shape"/>
<feColorMatrix in="SourceAlpha" type="matrix" values="0 0 0 0 0 0 0 0 0 0 0 0 0 0 0 0 0 0 127 0" result="hardAlpha"/>
<feOffset dy="-1.14286"/>
<feGaussianBlur stdDeviation="0.571429"/>
<feComposite in2="hardAlpha" operator="arithmetic" k2="-1" k3="1"/>
<feColorMatrix type="matrix" values="0 0 0 0 0.616667 0 0 0 0 0.407 0 0 0 0 0 0 0 0 0.25 0"/>
<feBlend mode="normal" in2="shape" result="effect1_innerShadow_9985_449429"/>
</filter>
<filter id="filter1_ii_9985_449429" x="28.0908" y="15.5588" width="65.8184" height="74.8824" filterUnits="userSpaceOnUse" color-interpolation-filters="sRGB">
<feFlood flood-opacity="0" result="BackgroundImageFix"/>
<feBlend mode="normal" in="SourceGraphic" in2="BackgroundImageFix" result="shape"/>
<feColorMatrix in="SourceAlpha" type="matrix" values="0 0 0 0 0 0 0 0 0 0 0 0 0 0 0 0 0 0 127 0" result="hardAlpha"/>
<feOffset dy="1.14286"/>
<feGaussianBlur stdDeviation="1.14286"/>
<feComposite in2="hardAlpha" operator="arithmetic" k2="-1" k3="1"/>
<feColorMatrix type="matrix" values="0 0 0 0 0.7 0 0 0 0 0.465967 0 0 0 0 0.0116667 0 0 0 1 0"/>
<feBlend mode="normal" in2="shape" result="effect1_innerShadow_9985_449429"/>
<feColorMatrix in="SourceAlpha" type="matrix" values="0 0 0 0 0 0 0 0 0 0 0 0 0 0 0 0 0 0 127 0" result="hardAlpha"/>
<feOffset dy="-1.14286"/>
<feGaussianBlur stdDeviation="0.571429"/>
<feComposite in2="hardAlpha" operator="arithmetic" k2="-1" k3="1"/>
<feColorMatrix type="matrix" values="0 0 0 0 1 0 0 0 0 0.72 0 0 0 0 0 0 0 0 1 0"/>
<feBlend mode="normal" in2="effect1_innerShadow_9985_449429" result="effect2_innerShadow_9985_449429"/>
</filter>
<filter id="filter2_d_9985_449429" x="12.1829" y="23.3371" width="97.0189" height="62.4843" filterUnits="userSpaceOnUse" color-interpolation-filters="sRGB">
<feFlood flood-opacity="0" result="BackgroundImageFix"/>
<feColorMatrix in="SourceAlpha" type="matrix" values="0 0 0 0 0 0 0 0 0 0 0 0 0 0 0 0 0 0 127 0" result="hardAlpha"/>
<feOffset dy="0.88762"/>
<feGaussianBlur stdDeviation="1.77524"/>
<feColorMatrix type="matrix" values="0 0 0 0 0.417188 0 0 0 0 0.160564 0 0 0 0 0.00450867 0 0 0 1 0"/>
<feBlend mode="normal" in2="BackgroundImageFix" result="effect1_dropShadow_9985_449429"/>
<feBlend mode="normal" in="SourceGraphic" in2="effect1_dropShadow_9985_449429" result="shape"/>
</filter>
<linearGradient id="paint0_linear_9985_449429" x1="31.999" y1="88.9995" x2="54.999" y2="101.5" gradientUnits="userSpaceOnUse">
<stop offset="0.484531" stop-color="#FFC700"/>
<stop offset="0.484631" stop-color="#FFE590"/>
</linearGradient>
<linearGradient id="paint1_linear_9985_449429" x1="31.999" y1="88.9995" x2="54.999" y2="101.5" gradientUnits="userSpaceOnUse">
<stop offset="0.484531" stop-color="#FFC700"/>
<stop offset="0.484631" stop-color="#FFE590"/>
</linearGradient>
<linearGradient id="paint2_linear_9985_449429" x1="78.0106" y1="84.0327" x2="69.9049" y2="88.7125" gradientUnits="userSpaceOnUse">
<stop offset="0.484631" stop-color="#FFE590"/>
<stop offset="0.488859" stop-color="#FFC700"/>
</linearGradient>
<linearGradient id="paint3_linear_9985_449429" x1="28.9487" y1="15.8205" x2="95.6154" y2="90.1795" gradientUnits="userSpaceOnUse">
<stop stop-color="#FFECA9"/>
<stop offset="0.237301" stop-color="#FFD600"/>
<stop offset="1" stop-color="#FF9900"/>
</linearGradient>
<linearGradient id="paint4_linear_9985_449429" x1="61" y1="3" x2="61" y2="103" gradientUnits="userSpaceOnUse">
<stop stop-color="white" stop-opacity="0.5"/>
<stop offset="1" stop-color="white" stop-opacity="0"/>
</linearGradient>
<linearGradient id="paint5_linear_9985_449429" x1="32.8889" y1="19.3889" x2="89.1111" y2="87.2222" gradientUnits="userSpaceOnUse">
<stop stop-color="#FFC700"/>
<stop offset="1" stop-color="#D58500"/>
</linearGradient>
<linearGradient id="paint6_linear_9985_449429" x1="35.8529" y1="21.7059" x2="67.1471" y2="91" gradientUnits="userSpaceOnUse">
<stop stop-color="#FFB13C"/>
<stop offset="0.484375" stop-color="#B45F1D"/>
<stop offset="1" stop-color="#743110"/>
</linearGradient>
<linearGradient id="paint7_linear_9985_449429" x1="42.8019" y1="64.3389" x2="21.1843" y2="67.6888" gradientUnits="userSpaceOnUse">
<stop stop-color="#F09713"/>
<stop offset="1" stop-color="#CC7134"/>
</linearGradient>
<linearGradient id="paint8_linear_9985_449429" x1="60.7257" y1="51.5634" x2="40.3865" y2="52.5366" gradientUnits="userSpaceOnUse">
<stop stop-color="#FFE587"/>
<stop offset="1" stop-color="#FFC548"/>
</linearGradient>
<linearGradient id="paint9_linear_9985_449429" x1="37.7194" y1="58.2389" x2="58.0511" y2="57.9277" gradientUnits="userSpaceOnUse">
<stop stop-color="#BE6822"/>
<stop offset="1" stop-color="#CA7D25"/>
</linearGradient>
<linearGradient id="paint10_linear_9985_449429" x1="78.5829" y1="64.3389" x2="100.2" y2="67.6888" gradientUnits="userSpaceOnUse">
<stop stop-color="#A3592F"/>
<stop offset="0.9" stop-color="#E58109"/>
</linearGradient>
<linearGradient id="paint11_linear_9985_449429" x1="60.7236" y1="54.5813" x2="83.922" y2="54.5813" gradientUnits="userSpaceOnUse">
<stop stop-color="#F4A431"/>
<stop offset="1" stop-color="#FFCE6A"/>
</linearGradient>
<linearGradient id="paint12_linear_9985_449429" x1="62.9118" y1="58.2389" x2="83.2435" y2="57.9277" gradientUnits="userSpaceOnUse">
<stop stop-color="#A3592F"/>
<stop offset="1" stop-color="#DE8818"/>
</linearGradient>
<linearGradient id="paint13_linear_9985_449429" x1="58.8537" y1="64.4752" x2="58.3065" y2="66.44" gradientUnits="userSpaceOnUse">
<stop stop-color="#B75C28"/>
<stop offset="1" stop-color="#924111"/>
</linearGradient>
<linearGradient id="paint14_linear_9985_449429" x1="63.2443" y1="64.4751" x2="62.6972" y2="66.4399" gradientUnits="userSpaceOnUse">
<stop stop-color="#B75C28"/>
<stop offset="1" stop-color="#924111"/>
</linearGradient>
</defs>
</svg>
