<svg width="120" height="120" viewBox="0 0 120 120" fill="none" xmlns="http://www.w3.org/2000/svg">
<path d="M38 69L49.2583 75.5L36.2583 98.0167L19 101.909L38 69Z" fill="#D9D9D9"/>
<path d="M38 69L49.2583 75.5L36.2583 98.0167L19 101.909L38 69Z" fill="url(#paint0_linear_9985_447475)"/>
<path d="M60.5166 82L49.2583 75.5L36.2583 98.0167L41.5166 114.909L60.5166 82Z" fill="url(#paint1_linear_9985_447475)"/>
<path d="M82.5156 69L71.2573 75.5L84.2573 98.0167L101.516 101.909L82.5156 69Z" fill="#D9D9D9"/>
<path d="M82.5156 69L71.2573 75.5L84.2573 98.0167L101.516 101.909L82.5156 69Z" fill="url(#paint2_linear_9985_447475)"/>
<path d="M59.999 82L71.2574 75.5L84.2574 98.0167L78.999 114.909L59.999 82Z" fill="url(#paint3_linear_9985_447475)"/>
<path d="M104.513 51.786C104.513 75.8873 84.8273 95.4288 60.5398 95.4288C36.2522 95.4288 16.567 75.8873 16.567 51.786C16.567 27.6847 36.2522 8.14314 60.5398 8.14314C84.8273 8.14314 104.513 27.6847 104.513 51.786Z" fill="url(#paint4_linear_9985_447475)" stroke="url(#paint5_linear_9985_447475)" stroke-width="0.571429"/>
<g filter="url(#filter0_i_9985_447475)">
<ellipse cx="60.5408" cy="51.7853" rx="38.8611" ry="38.5714" fill="url(#paint6_linear_9985_447475)"/>
</g>
<g filter="url(#filter1_ii_9985_447475)">
<ellipse cx="60.5405" cy="51.7854" rx="32.3843" ry="32.1429" fill="url(#paint7_linear_9985_447475)"/>
</g>
<g clip-path="url(#clip0_9985_447475)" filter="url(#filter2_d_9985_447475)">
<rect x="78.0732" y="18.3921" width="21.9761" height="25.6387" rx="6.92688" transform="rotate(42.7275 78.0732 18.3921)" fill="url(#paint8_linear_9985_447475)"/>
<path fill-rule="evenodd" clip-rule="evenodd" d="M63.6011 35.9133C63.4473 37.0545 63.5799 38.2219 63.9944 39.3079C64.5733 40.8248 65.9653 42.1105 68.7492 44.682C71.5332 47.2534 72.9252 48.5392 74.4832 48.9961C75.9358 49.4221 77.4881 49.3605 78.9024 48.8207C80.4193 48.2418 81.705 46.8498 84.2765 44.0658L86.7616 41.3753L86.7616 41.3752C89.3331 38.5913 90.6188 37.1993 91.0757 35.6413C91.5017 34.1887 91.4401 32.6364 90.9003 31.2221C90.6455 30.5544 90.2332 29.9316 89.614 29.2241C89.5675 29.569 89.4949 29.9116 89.396 30.2487C88.9391 31.8067 87.6534 33.1987 85.0819 35.9827L82.5968 38.6732C80.0253 41.4572 78.7396 42.8492 77.2227 43.4281C75.8084 43.9679 74.2562 44.0295 72.8035 43.6035C71.2455 43.1466 69.8535 41.8609 67.0696 39.2894C65.511 37.8498 64.3887 36.8132 63.6011 35.9133Z" fill="url(#paint9_linear_9985_447475)" fill-opacity="0.5"/>
<g filter="url(#filter3_b_9985_447475)">
<path d="M68.1312 29.1546C69.5038 27.6686 71.821 27.5767 73.307 28.9492L84.0692 38.8899C85.5552 40.2624 85.6471 42.5796 84.2746 44.0656L63.2848 66.7902C62.3839 67.7655 61.235 68.4776 59.9607 68.8504L53.7094 70.6795L44.0234 61.7329L45.351 55.356C45.6217 54.0562 46.2406 52.8544 47.1414 51.8791L68.1312 29.1546Z" fill="url(#paint10_linear_9985_447475)"/>
</g>
<path fill-rule="evenodd" clip-rule="evenodd" d="M50.5098 67.7239L53.7093 70.6791L59.9606 68.8501C61.2349 68.4773 62.3838 67.7651 63.2847 66.7898L84.2745 44.0653C85.647 42.5793 85.5551 40.2621 84.0691 38.8895L83.3302 38.207C83.2148 38.3814 83.0843 38.549 82.9387 38.7079L60.0259 63.7194C59.0425 64.7929 57.7883 65.5767 56.3973 65.987L50.5098 67.7239Z" fill="url(#paint11_linear_9985_447475)"/>
<rect width="14.6507" height="3.66268" rx="1.83134" transform="matrix(-0.734589 -0.678512 -0.678513 0.734589 81.5859 41.5791)" fill="url(#paint12_linear_9985_447475)" fill-opacity="0.6"/>
<path d="M53.7153 70.6795L44.0293 61.7329L42.0391 71.2898C41.7572 72.6433 43.0193 73.809 44.3462 73.4208L53.7153 70.6795Z" fill="url(#paint13_linear_9985_447475)"/>
</g>
<path d="M38 69L49.2583 75.5L36.2583 98.0167L19 101.909L38 69Z" fill="white" style="mix-blend-mode:color"/>
<path d="M60.5167 82L49.2583 75.5L36.2583 98.0167L41.5167 114.909L60.5167 82Z" fill="white" style="mix-blend-mode:color"/>
<path d="M82.5156 69L71.2573 75.5L84.2573 98.0167L101.516 101.909L82.5156 69Z" fill="white" style="mix-blend-mode:color"/>
<path d="M59.999 82L71.2573 75.5L84.2573 98.0167L78.999 114.909L59.999 82Z" fill="white" style="mix-blend-mode:color"/>
<path d="M104.798 51.786C104.798 76.0471 84.9831 95.7146 60.5398 95.7146C36.0965 95.7146 16.2812 76.0471 16.2812 51.786C16.2812 27.5249 36.0965 7.85742 60.5398 7.85742C84.9831 7.85742 104.798 27.5249 104.798 51.786Z" fill="white" style="mix-blend-mode:color"/>
<path d="M99.402 51.7853C99.402 73.0877 82.0032 90.3567 60.5408 90.3567C39.0784 90.3567 21.6797 73.0877 21.6797 51.7853C21.6797 30.4829 39.0784 13.2139 60.5408 13.2139C82.0032 13.2139 99.402 30.4829 99.402 51.7853Z" fill="white" style="mix-blend-mode:color"/>
<path d="M92.9248 51.7854C92.9248 69.5374 78.4259 83.9283 60.5405 83.9283C42.6552 83.9283 28.1562 69.5374 28.1562 51.7854C28.1562 34.0334 42.6552 19.6426 60.5405 19.6426C78.4259 19.6426 92.9248 34.0334 92.9248 51.7854Z" fill="white" style="mix-blend-mode:color"/>
<defs>
<filter id="filter0_i_9985_447475" x="21.6797" y="12.071" width="77.7227" height="78.2859" filterUnits="userSpaceOnUse" color-interpolation-filters="sRGB">
<feFlood flood-opacity="0" result="BackgroundImageFix"/>
<feBlend mode="normal" in="SourceGraphic" in2="BackgroundImageFix" result="shape"/>
<feColorMatrix in="SourceAlpha" type="matrix" values="0 0 0 0 0 0 0 0 0 0 0 0 0 0 0 0 0 0 127 0" result="hardAlpha"/>
<feOffset dy="-1.14286"/>
<feGaussianBlur stdDeviation="1.14286"/>
<feComposite in2="hardAlpha" operator="arithmetic" k2="-1" k3="1"/>
<feColorMatrix type="matrix" values="0 0 0 0 0 0 0 0 0 0.172667 0 0 0 0 0.616667 0 0 0 0.15 0"/>
<feBlend mode="normal" in2="shape" result="effect1_innerShadow_9985_447475"/>
</filter>
<filter id="filter1_ii_9985_447475" x="28.1562" y="18.4997" width="64.7686" height="66.5714" filterUnits="userSpaceOnUse" color-interpolation-filters="sRGB">
<feFlood flood-opacity="0" result="BackgroundImageFix"/>
<feBlend mode="normal" in="SourceGraphic" in2="BackgroundImageFix" result="shape"/>
<feColorMatrix in="SourceAlpha" type="matrix" values="0 0 0 0 0 0 0 0 0 0 0 0 0 0 0 0 0 0 127 0" result="hardAlpha"/>
<feOffset dy="1.14286"/>
<feGaussianBlur stdDeviation="2.85714"/>
<feComposite in2="hardAlpha" operator="arithmetic" k2="-1" k3="1"/>
<feColorMatrix type="matrix" values="0 0 0 0 0.528548 0 0 0 0 0.200257 0 0 0 0 0 0 0 0 1 0"/>
<feBlend mode="normal" in2="shape" result="effect1_innerShadow_9985_447475"/>
<feColorMatrix in="SourceAlpha" type="matrix" values="0 0 0 0 0 0 0 0 0 0 0 0 0 0 0 0 0 0 127 0" result="hardAlpha"/>
<feOffset dy="-1.14286"/>
<feGaussianBlur stdDeviation="2.85714"/>
<feComposite in2="hardAlpha" operator="arithmetic" k2="-1" k3="1"/>
<feColorMatrix type="matrix" values="0 0 0 0 0.79738 0 0 0 0 0.295326 0 0 0 0 0 0 0 0 1 0"/>
<feBlend mode="normal" in2="effect1_innerShadow_9985_447475" result="effect2_innerShadow_9985_447475"/>
</filter>
<filter id="filter2_d_9985_447475" x="32.805" y="16.8977" width="65.3598" height="64.5556" filterUnits="userSpaceOnUse" color-interpolation-filters="sRGB">
<feFlood flood-opacity="0" result="BackgroundImageFix"/>
<feColorMatrix in="SourceAlpha" type="matrix" values="0 0 0 0 0 0 0 0 0 0 0 0 0 0 0 0 0 0 127 0" result="hardAlpha"/>
<feOffset dy="1.03411"/>
<feGaussianBlur stdDeviation="2.06821"/>
<feColorMatrix type="matrix" values="0 0 0 0 0.568799 0 0 0 0 0.31336 0 0 0 0 0.112658 0 0 0 1 0"/>
<feBlend mode="normal" in2="BackgroundImageFix" result="effect1_dropShadow_9985_447475"/>
<feBlend mode="normal" in="SourceGraphic" in2="effect1_dropShadow_9985_447475" result="shape"/>
</filter>
<filter id="filter3_b_9985_447475" x="37.0966" y="21.0502" width="55.0774" height="56.5564" filterUnits="userSpaceOnUse" color-interpolation-filters="sRGB">
<feFlood flood-opacity="0" result="BackgroundImageFix"/>
<feGaussianBlur in="BackgroundImageFix" stdDeviation="3.46344"/>
<feComposite in2="SourceAlpha" operator="in" result="effect1_backgroundBlur_9985_447475"/>
<feBlend mode="normal" in="SourceGraphic" in2="effect1_backgroundBlur_9985_447475" result="shape"/>
</filter>
<linearGradient id="paint0_linear_9985_447475" x1="42.7583" y1="86.7583" x2="31.5" y2="80.2583" gradientUnits="userSpaceOnUse">
<stop stop-color="#C16F34"/>
<stop offset="1" stop-color="#FFC27A"/>
</linearGradient>
<linearGradient id="paint1_linear_9985_447475" x1="42.7583" y1="86.7583" x2="54.0166" y2="93.2583" gradientUnits="userSpaceOnUse">
<stop stop-color="#FFC27A"/>
<stop offset="1" stop-color="#C16F34"/>
</linearGradient>
<linearGradient id="paint2_linear_9985_447475" x1="77.7573" y1="86.7583" x2="89.0156" y2="80.2583" gradientUnits="userSpaceOnUse">
<stop stop-color="#C16F34"/>
<stop offset="1" stop-color="#FFC27A"/>
</linearGradient>
<linearGradient id="paint3_linear_9985_447475" x1="77.7574" y1="86.7583" x2="66.499" y2="93.2583" gradientUnits="userSpaceOnUse">
<stop stop-color="#FFC27A"/>
<stop offset="1" stop-color="#C16F34"/>
</linearGradient>
<linearGradient id="paint4_linear_9985_447475" x1="32.1689" y1="19.1212" x2="90.6911" y2="84.8862" gradientUnits="userSpaceOnUse">
<stop stop-color="#FFC887"/>
<stop offset="0.520833" stop-color="#FFE7CB"/>
<stop offset="1" stop-color="#B45612"/>
</linearGradient>
<linearGradient id="paint5_linear_9985_447475" x1="60.5398" y1="7.85742" x2="60.5398" y2="95.7146" gradientUnits="userSpaceOnUse">
<stop stop-color="white" stop-opacity="0.5"/>
<stop offset="1" stop-color="white" stop-opacity="0"/>
</linearGradient>
<linearGradient id="paint6_linear_9985_447475" x1="35.7129" y1="22.321" x2="84.9289" y2="82.1472" gradientUnits="userSpaceOnUse">
<stop stop-color="#D28E5D"/>
<stop offset="1" stop-color="#FFC887"/>
</linearGradient>
<linearGradient id="paint7_linear_9985_447475" x1="39.1098" y1="25.3148" x2="65.4493" y2="84.0762" gradientUnits="userSpaceOnUse">
<stop stop-color="#DC6C40"/>
<stop offset="0.484375" stop-color="#D25E16"/>
<stop offset="1" stop-color="#9A3900"/>
</linearGradient>
<linearGradient id="paint8_linear_9985_447475" x1="78.7464" y1="25.6106" x2="95.7703" y2="16.2971" gradientUnits="userSpaceOnUse">
<stop stop-color="#CF5E4D"/>
<stop offset="1" stop-color="#951E03"/>
</linearGradient>
<linearGradient id="paint9_linear_9985_447475" x1="73.6709" y1="24.1515" x2="92.4958" y2="28.8608" gradientUnits="userSpaceOnUse">
<stop stop-color="#AD28CE"/>
<stop offset="1" stop-color="#5D0947"/>
</linearGradient>
<linearGradient id="paint10_linear_9985_447475" x1="73.6691" y1="57.9219" x2="56.3823" y2="41.4392" gradientUnits="userSpaceOnUse">
<stop offset="0.21023" stop-color="#DC9633"/>
<stop offset="0.604347" stop-color="#FFD195"/>
<stop offset="1" stop-color="#FFEDCE"/>
</linearGradient>
<linearGradient id="paint11_linear_9985_447475" x1="73.6672" y1="57.9214" x2="56.3804" y2="41.4387" gradientUnits="userSpaceOnUse">
<stop offset="0.21023" stop-color="#BD5E23"/>
<stop offset="0.604347" stop-color="#FFD17C"/>
<stop offset="1" stop-color="#FFF8EC"/>
</linearGradient>
<linearGradient id="paint12_linear_9985_447475" x1="14.9305" y1="2.04229" x2="-6.21608" y2="1.50372" gradientUnits="userSpaceOnUse">
<stop stop-color="#FCFDFE"/>
<stop offset="1" stop-color="#FCFDFE" stop-opacity="0"/>
</linearGradient>
<linearGradient id="paint13_linear_9985_447475" x1="43.3512" y1="63.7046" x2="49.3277" y2="75.016" gradientUnits="userSpaceOnUse">
<stop stop-color="white"/>
<stop offset="1" stop-color="#F3B03C"/>
</linearGradient>
<clipPath id="clip0_9985_447475">
<rect width="57.0866" height="56.2825" fill="white" transform="translate(36.9414 20)"/>
</clipPath>
</defs>
</svg>
