<svg width="120" height="121" viewBox="0 0 120 121" fill="none" xmlns="http://www.w3.org/2000/svg">
<path d="M41.999 70.9995L53.2574 77.4995L40.2574 100.016L22.999 103.908L41.999 70.9995Z" fill="url(#paint0_linear_9985_449257)"/>
<path d="M64.5157 83.9995L53.2574 77.4995L40.2574 100.016L45.5157 116.908L64.5157 83.9995Z" fill="url(#paint1_linear_9985_449257)"/>
<path fill-rule="evenodd" clip-rule="evenodd" d="M67.2573 77.5L78.5156 71L97.5156 103.909L80.2583 100.017L75 116.909L56 84L67.2576 77.5004L67.2573 77.5Z" fill="url(#paint2_linear_9985_449257)"/>
<path d="M52.1429 8.86624C57.0049 6.05915 62.9951 6.05915 67.8571 8.86624L95.1584 24.6286C100.02 27.4357 103.016 32.6234 103.016 38.2376V69.7624C103.016 75.3766 100.02 80.5643 95.1584 83.3714L67.8571 99.1338C62.9951 101.941 57.0049 101.941 52.1429 99.1338L24.8416 83.3714C19.9796 80.5643 16.9844 75.3766 16.9844 69.7624V38.2376C16.9844 32.6234 19.9796 27.4357 24.8416 24.6286L52.1429 8.86624Z" fill="url(#paint3_linear_9985_449257)" stroke="url(#paint4_linear_9985_449257)" stroke-width="0.571429"/>
<g filter="url(#filter0_i_9985_449257)">
<path d="M54 13.4641C57.7128 11.3205 62.2872 11.3205 66 13.4641L92.1051 28.5359C95.8179 30.6795 98.1051 34.641 98.1051 38.9282V69.0718C98.1051 73.359 95.8179 77.3205 92.1051 79.4641L66 94.5359C62.2872 96.6795 57.7128 96.6795 54 94.5359L27.8949 79.4641C24.1821 77.3205 21.8949 73.359 21.8949 69.0718V38.9282C21.8949 34.641 24.1821 30.6795 27.8949 28.5359L54 13.4641Z" fill="url(#paint5_linear_9985_449257)"/>
</g>
<g filter="url(#filter1_ii_9985_449257)">
<path d="M54.5 19.1754C57.9034 17.2105 62.0966 17.2105 65.5 19.1754L87.409 31.8246C90.8124 33.7895 92.909 37.4209 92.909 41.3509V66.6491C92.909 70.5791 90.8124 74.2105 87.409 76.1754L65.5 88.8246C62.0966 90.7895 57.9034 90.7895 54.5 88.8246L32.591 76.1754C29.1876 74.2105 27.091 70.5791 27.091 66.6491V41.3509C27.091 37.4209 29.1876 33.7895 32.591 31.8246L54.5 19.1754Z" fill="url(#paint6_linear_9985_449257)"/>
</g>
<g filter="url(#filter2_d_9985_449257)">
<path d="M34.19 29.5243C37.055 34.4866 41.8214 37.0942 44.839 35.352C47.8566 33.6097 47.9824 28.1751 45.1166 23.2158C42.2547 18.2544 34.4676 17.3882 34.4676 17.3882C34.4676 17.3882 31.3242 24.5651 34.19 29.5243Z" fill="#7C5B5B"/>
<path d="M34.19 29.5243C37.055 34.4866 41.8214 37.0942 44.839 35.352C47.8566 33.6097 47.9824 28.1751 45.1166 23.2158C42.2547 18.2544 34.4676 17.3882 34.4676 17.3882C34.4676 17.3882 31.3242 24.5651 34.19 29.5243Z" fill="url(#paint7_linear_9985_449257)"/>
<path d="M36.4395 27.7292C38.0132 30.4549 40.6305 31.8865 42.2873 30.93C43.944 29.9734 44.0129 26.991 42.4392 24.2652C40.8655 21.5395 36.5914 21.0645 36.5914 21.0645C36.5914 21.0645 34.8658 25.0035 36.4395 27.7292Z" fill="#B75C27"/>
<path d="M85.5683 29.5254C82.7033 34.4878 77.937 37.0953 74.9193 35.3531C71.9017 33.6109 71.7759 28.1762 74.6417 23.217C77.5067 18.2547 85.2907 17.3893 85.2907 17.3893C85.2907 17.3893 88.4341 24.5662 85.5683 29.5254Z" fill="url(#paint8_linear_9985_449257)"/>
<path d="M83.323 27.7936C81.7356 30.543 79.0919 31.9883 77.4194 31.0226C75.7469 30.057 75.6767 27.0449 77.2641 24.2955C78.8514 21.5461 83.1676 21.0664 83.1676 21.0664C83.1676 21.0664 84.9104 25.0442 83.323 27.7936Z" fill="#70320E"/>
<path d="M60.1722 83.3829V22.003C60.1722 22.003 52.3139 21.7474 48.9941 25.9431C45.6743 30.1357 39.412 41.0956 36.4008 46.2513C33.3896 51.4071 29.727 56.7873 31.1141 63.5453C32.5012 70.3033 41.3539 77.1361 49.951 78.7414C51.1075 81.0544 55.9298 84.2339 60.1691 83.386L60.1722 83.3829Z" fill="#7C5B5B"/>
<path d="M60.1722 83.3829V22.003C60.1722 22.003 52.3139 21.7474 48.9941 25.9431C45.6743 30.1357 39.412 41.0956 36.4008 46.2513C33.3896 51.4071 29.727 56.7873 31.1141 63.5453C32.5012 70.3033 41.3539 77.1361 49.951 78.7414C51.1075 81.0544 55.9298 84.2339 60.1691 83.386L60.1722 83.3829Z" fill="url(#paint9_linear_9985_449257)"/>
<path d="M60.1807 83.3829V22.003C60.1807 22.003 68.039 21.7474 71.3588 25.9431C74.6785 30.1357 80.9409 41.0956 83.9521 46.2513C86.9632 51.4071 90.6259 56.7873 89.2388 63.5453C87.8516 70.3033 78.9989 77.1361 70.4018 78.7414C69.2454 81.0544 64.4231 84.2339 60.1838 83.386L60.1807 83.3829Z" fill="url(#paint10_linear_9985_449257)"/>
<path d="M73.6562 59.2175C69.7928 54.0032 59.9903 55.0073 59.9903 55.0073C59.9903 55.0073 50.1877 54.0032 46.3243 59.2175C42.4608 64.4318 43.7134 75.8646 59.9903 76.2371C76.2707 75.8646 77.5234 64.4318 73.6562 59.2175Z" fill="#E77A27"/>
<path d="M65.6097 63.0857C64.7134 65.165 64.5134 67.9579 65.4383 68.4208C66.3632 68.8837 68.3131 66.9086 69.2059 64.8294C70.1022 62.7501 69.6022 61.3575 68.6773 60.8908C67.7524 60.4279 66.5025 61.0027 65.6097 63.0819V63.0857Z" fill="#91361A"/>
<path d="M55.3422 63.0857C56.2386 65.165 56.4386 67.9579 55.5137 68.4208C54.5887 68.8837 52.6389 66.9086 51.7461 64.8294C50.8497 62.7501 51.3497 61.3575 52.2746 60.8908C53.1995 60.4279 54.4495 61.0027 55.3422 63.0819V63.0857Z" fill="#91361A"/>
<circle cx="71.1303" cy="46.6972" r="2.42129" fill="#70320E"/>
<circle cx="48.8539" cy="46.81" r="2.42129" fill="#70320E"/>
</g>
<path d="M32.2697 37.7148L33.0711 40.1336L35.5081 40.9291L33.0711 41.7246L32.2697 44.1434L31.4682 41.7246L29.0312 40.9291L31.4682 40.1336L32.2697 37.7148Z" fill="white"/>
<path d="M22.5563 27L24.4264 32.6438L30.1127 34.5L24.4264 36.3562L22.5563 42L20.6862 36.3562L15 34.5L20.6862 32.6438L22.5563 27Z" fill="white"/>
<defs>
<filter id="filter0_i_9985_449257" x="21.8945" y="10.7136" width="76.2109" height="85.43" filterUnits="userSpaceOnUse" color-interpolation-filters="sRGB">
<feFlood flood-opacity="0" result="BackgroundImageFix"/>
<feBlend mode="normal" in="SourceGraphic" in2="BackgroundImageFix" result="shape"/>
<feColorMatrix in="SourceAlpha" type="matrix" values="0 0 0 0 0 0 0 0 0 0 0 0 0 0 0 0 0 0 127 0" result="hardAlpha"/>
<feOffset dy="-1.14286"/>
<feGaussianBlur stdDeviation="0.571429"/>
<feComposite in2="hardAlpha" operator="arithmetic" k2="-1" k3="1"/>
<feColorMatrix type="matrix" values="0 0 0 0 0.616667 0 0 0 0 0.407 0 0 0 0 0 0 0 0 0.25 0"/>
<feBlend mode="normal" in2="shape" result="effect1_innerShadow_9985_449257"/>
</filter>
<filter id="filter1_ii_9985_449257" x="27.0908" y="16.5588" width="65.8184" height="74.8824" filterUnits="userSpaceOnUse" color-interpolation-filters="sRGB">
<feFlood flood-opacity="0" result="BackgroundImageFix"/>
<feBlend mode="normal" in="SourceGraphic" in2="BackgroundImageFix" result="shape"/>
<feColorMatrix in="SourceAlpha" type="matrix" values="0 0 0 0 0 0 0 0 0 0 0 0 0 0 0 0 0 0 127 0" result="hardAlpha"/>
<feOffset dy="1.14286"/>
<feGaussianBlur stdDeviation="1.14286"/>
<feComposite in2="hardAlpha" operator="arithmetic" k2="-1" k3="1"/>
<feColorMatrix type="matrix" values="0 0 0 0 0.7 0 0 0 0 0.465967 0 0 0 0 0.0116667 0 0 0 1 0"/>
<feBlend mode="normal" in2="shape" result="effect1_innerShadow_9985_449257"/>
<feColorMatrix in="SourceAlpha" type="matrix" values="0 0 0 0 0 0 0 0 0 0 0 0 0 0 0 0 0 0 127 0" result="hardAlpha"/>
<feOffset dy="-1.14286"/>
<feGaussianBlur stdDeviation="0.571429"/>
<feComposite in2="hardAlpha" operator="arithmetic" k2="-1" k3="1"/>
<feColorMatrix type="matrix" values="0 0 0 0 1 0 0 0 0 0.72 0 0 0 0 0 0 0 0 1 0"/>
<feBlend mode="normal" in2="effect1_innerShadow_9985_449257" result="effect2_innerShadow_9985_449257"/>
</filter>
<filter id="filter2_d_9985_449257" x="27.261" y="14.7253" width="65.8305" height="73.2391" filterUnits="userSpaceOnUse" color-interpolation-filters="sRGB">
<feFlood flood-opacity="0" result="BackgroundImageFix"/>
<feColorMatrix in="SourceAlpha" type="matrix" values="0 0 0 0 0 0 0 0 0 0 0 0 0 0 0 0 0 0 127 0" result="hardAlpha"/>
<feOffset dy="0.88762"/>
<feGaussianBlur stdDeviation="1.77524"/>
<feColorMatrix type="matrix" values="0 0 0 0 0.417188 0 0 0 0 0.160564 0 0 0 0 0.00450867 0 0 0 1 0"/>
<feBlend mode="normal" in2="BackgroundImageFix" result="effect1_dropShadow_9985_449257"/>
<feBlend mode="normal" in="SourceGraphic" in2="effect1_dropShadow_9985_449257" result="shape"/>
</filter>
<linearGradient id="paint0_linear_9985_449257" x1="30.999" y1="89.9995" x2="53.999" y2="102.5" gradientUnits="userSpaceOnUse">
<stop offset="0.484531" stop-color="#FFC700"/>
<stop offset="0.484631" stop-color="#FFE590"/>
</linearGradient>
<linearGradient id="paint1_linear_9985_449257" x1="30.999" y1="89.9995" x2="53.999" y2="102.5" gradientUnits="userSpaceOnUse">
<stop offset="0.484531" stop-color="#FFC700"/>
<stop offset="0.484631" stop-color="#FFE590"/>
</linearGradient>
<linearGradient id="paint2_linear_9985_449257" x1="77.0106" y1="85.0327" x2="68.9049" y2="89.7125" gradientUnits="userSpaceOnUse">
<stop offset="0.484631" stop-color="#FFE590"/>
<stop offset="0.488859" stop-color="#FFC700"/>
</linearGradient>
<linearGradient id="paint3_linear_9985_449257" x1="27.9487" y1="16.8205" x2="94.6154" y2="91.1795" gradientUnits="userSpaceOnUse">
<stop stop-color="#FFECA9"/>
<stop offset="0.237301" stop-color="#FFD600"/>
<stop offset="1" stop-color="#FF9900"/>
</linearGradient>
<linearGradient id="paint4_linear_9985_449257" x1="60" y1="4" x2="60" y2="104" gradientUnits="userSpaceOnUse">
<stop stop-color="white" stop-opacity="0.5"/>
<stop offset="1" stop-color="white" stop-opacity="0"/>
</linearGradient>
<linearGradient id="paint5_linear_9985_449257" x1="31.8889" y1="20.3889" x2="88.1111" y2="88.2222" gradientUnits="userSpaceOnUse">
<stop stop-color="#FFC700"/>
<stop offset="1" stop-color="#D58500"/>
</linearGradient>
<linearGradient id="paint6_linear_9985_449257" x1="34.8529" y1="22.7059" x2="66.1471" y2="92" gradientUnits="userSpaceOnUse">
<stop stop-color="#FFB13C"/>
<stop offset="0.484375" stop-color="#B45F1D"/>
<stop offset="1" stop-color="#743110"/>
</linearGradient>
<linearGradient id="paint7_linear_9985_449257" x1="43.8532" y1="31.5046" x2="30.7583" y2="25.5143" gradientUnits="userSpaceOnUse">
<stop stop-color="#E99921"/>
<stop offset="1" stop-color="#FDB542"/>
</linearGradient>
<linearGradient id="paint8_linear_9985_449257" x1="80.375" y1="29.489" x2="72.5583" y2="23.781" gradientUnits="userSpaceOnUse">
<stop stop-color="#E88B48"/>
<stop offset="1" stop-color="#F0A948"/>
</linearGradient>
<linearGradient id="paint9_linear_9985_449257" x1="60.1722" y1="43.9466" x2="34.018" y2="45.1589" gradientUnits="userSpaceOnUse">
<stop stop-color="#FFE587"/>
<stop offset="1" stop-color="#FFC548"/>
</linearGradient>
<linearGradient id="paint10_linear_9985_449257" x1="60.1807" y1="47.9523" x2="90.0072" y2="47.9523" gradientUnits="userSpaceOnUse">
<stop stop-color="#F4A431"/>
<stop offset="1" stop-color="#FFCE6A"/>
</linearGradient>
</defs>
</svg>
