<svg width="120" height="121" viewBox="0 0 120 121" fill="none" xmlns="http://www.w3.org/2000/svg">
<path d="M41.999 70.9995L53.2574 77.4995L40.2574 100.016L22.999 103.908L41.999 70.9995Z" fill="url(#paint0_linear_9985_449339)"/>
<path d="M64.5157 83.9995L53.2574 77.4995L40.2574 100.016L45.5157 116.908L64.5157 83.9995Z" fill="url(#paint1_linear_9985_449339)"/>
<path fill-rule="evenodd" clip-rule="evenodd" d="M67.2573 77.5L78.5156 71L97.5156 103.909L80.2583 100.017L75 116.909L56 84L67.2576 77.5004L67.2573 77.5Z" fill="url(#paint2_linear_9985_449339)"/>
<path d="M52.1429 8.86624C57.0049 6.05915 62.9951 6.05915 67.8571 8.86624L95.1584 24.6286C100.02 27.4357 103.016 32.6234 103.016 38.2376V69.7624C103.016 75.3766 100.02 80.5643 95.1584 83.3714L67.8571 99.1338C62.9951 101.941 57.0049 101.941 52.1429 99.1338L24.8416 83.3714C19.9796 80.5643 16.9844 75.3766 16.9844 69.7624V38.2376C16.9844 32.6234 19.9796 27.4357 24.8416 24.6286L52.1429 8.86624Z" fill="url(#paint3_linear_9985_449339)" stroke="url(#paint4_linear_9985_449339)" stroke-width="0.571429"/>
<g filter="url(#filter0_i_9985_449339)">
<path d="M54 13.4641C57.7128 11.3205 62.2872 11.3205 66 13.4641L92.1051 28.5359C95.8179 30.6795 98.1051 34.641 98.1051 38.9282V69.0718C98.1051 73.359 95.8179 77.3205 92.1051 79.4641L66 94.5359C62.2872 96.6795 57.7128 96.6795 54 94.5359L27.8949 79.4641C24.1821 77.3205 21.8949 73.359 21.8949 69.0718V38.9282C21.8949 34.641 24.1821 30.6795 27.8949 28.5359L54 13.4641Z" fill="url(#paint5_linear_9985_449339)"/>
</g>
<g filter="url(#filter1_ii_9985_449339)">
<path d="M54.5 19.1754C57.9034 17.2105 62.0966 17.2105 65.5 19.1754L87.409 31.8246C90.8124 33.7895 92.909 37.4209 92.909 41.3509V66.6491C92.909 70.5791 90.8124 74.2105 87.409 76.1754L65.5 88.8246C62.0966 90.7895 57.9034 90.7895 54.5 88.8246L32.591 76.1754C29.1876 74.2105 27.091 70.5791 27.091 66.6491V41.3509C27.091 37.4209 29.1876 33.7895 32.591 31.8246L54.5 19.1754Z" fill="url(#paint6_linear_9985_449339)"/>
</g>
<g filter="url(#filter2_d_9985_449339)">
<path d="M49.4472 38C49.4472 38 41.2813 25.6047 36 24.3016C37.6061 19.3225 47.3166 22.2464 51 34.7906L49.4472 38Z" fill="#FFB65E"/>
<path d="M49.4472 38C49.4472 38 41.2813 25.6047 36 24.3016C37.6061 19.3225 47.3166 22.2464 51 34.7906L49.4472 38Z" fill="url(#paint7_linear_9985_449339)"/>
<path d="M54.1322 74.0489C47.2567 72.8657 39.9278 73.5329 33.4895 76.3001C33.0557 76.5072 31.9613 77.0462 31.5176 77.2565C31.9613 77.0199 33.0327 76.4579 33.4566 76.2311C38.1038 74.0258 43.2538 72.9906 48.3873 72.9051C50.3527 72.8789 52.3081 72.9709 54.2833 73.27L54.1322 74.0489Z" fill="#F4E9D8"/>
<path d="M53.7638 74.995C46.7865 74.9227 39.6613 76.75 33.7456 80.5065C33.3512 80.7793 32.3554 81.4859 31.9512 81.7653C32.3521 81.4629 33.3184 80.7333 33.7029 80.4441C37.9392 77.5257 42.8591 75.6819 47.9105 74.7814C49.8463 74.4429 51.7919 74.2227 53.7901 74.1997L53.7638 74.995Z" fill="#F4E9D8"/>
<path d="M56.1128 76.1133C49.8027 76.8791 43.5123 79.3867 38.7304 83.6395L37.7773 84.5104C38.0928 84.1982 38.8553 83.4489 39.1577 83.1498C41.2347 81.2863 43.6142 79.6726 46.1251 78.4632C49.2572 76.935 52.5667 75.8438 56.0339 75.3213L56.1128 76.1133Z" fill="#F4E9D8"/>
<path d="M60 33.0674C60 33.0674 51.2526 32.0065 48.3619 38.3017C45.4711 44.5969 46.6163 47.0734 41.3078 52.6975C35.9994 58.3215 33.2489 70.1822 47.383 75.2817C47.383 75.2817 47.9344 79.247 52.7306 79.9005C57.5301 80.5541 60 77.7728 60 77.7728V33.0674Z" fill="#7C5B5B"/>
<path d="M60 33.0674C60 33.0674 51.2526 32.0065 48.3619 38.3017C45.4711 44.5969 46.6163 47.0734 41.3078 52.6975C35.9994 58.3215 33.2489 70.1822 47.383 75.2817C47.383 75.2817 47.9344 79.247 52.7306 79.9005C57.5301 80.5541 60 77.7728 60 77.7728V33.0674Z" fill="url(#paint8_linear_9985_449339)"/>
<path d="M53.1052 35.4166C53.1052 35.4166 48.2378 17.7516 38.7168 16.1642C29.1957 14.5735 24.4895 24.9392 23.98 30.0267C23.4706 35.1143 25.5707 39.1304 27.2238 39.1896C28.877 39.2487 35.7688 33.7471 37.4121 27.5947C39.052 21.4423 47.5279 23.0462 50.8572 36.8693L53.1085 35.4166H53.1052Z" fill="#7C5B5B"/>
<path d="M53.1052 35.4166C53.1052 35.4166 48.2378 17.7516 38.7168 16.1642C29.1957 14.5735 24.4895 24.9392 23.98 30.0267C23.4706 35.1143 25.5707 39.1304 27.2238 39.1896C28.877 39.2487 35.7688 33.7471 37.4121 27.5947C39.052 21.4423 47.5279 23.0462 50.8572 36.8693L53.1085 35.4166H53.1052Z" fill="url(#paint9_linear_9985_449339)"/>
<path d="M70.4493 38C70.4493 38 78.0707 26.3794 83 25.1577C81.501 20.4899 72.4379 23.231 69 34.9912L70.4493 38Z" fill="#E2A09F"/>
<path d="M70.4493 38C70.4493 38 78.0707 26.3794 83 25.1577C81.501 20.4899 72.4379 23.231 69 34.9912L70.4493 38Z" fill="url(#paint10_linear_9985_449339)"/>
<path d="M65.2943 73.2666C72.5542 72.2872 80.2118 73.2304 86.7651 76.5696L88.0568 77.2532L86.7421 76.6156C81.9208 74.3216 76.5014 73.4211 71.1871 73.4999C69.2579 73.5361 67.3089 73.7037 65.4422 74.0488L65.291 73.2699L65.2943 73.2666Z" fill="#DAC5AC"/>
<path d="M65.7881 74.1997C73.1039 74.387 80.5281 76.5463 86.4603 80.8845L87.627 81.7653L86.4307 80.9272C82.0399 77.8938 76.8275 76.142 71.5724 75.373C69.6629 75.1035 67.714 74.9556 65.8144 74.9983L65.7881 74.203V74.1997Z" fill="#DAC5AC"/>
<path d="M63.5418 75.3207C69.75 76.3001 75.7315 78.9424 80.418 83.1459C80.7237 83.4417 81.4861 84.2041 81.7984 84.5065L80.8453 83.6356C80.326 83.1229 79.4288 82.4656 78.8504 82.0055C78.4921 81.7623 77.6015 81.151 77.2531 80.9176C74.522 79.2316 71.5477 77.9433 68.4584 77.0888C66.8184 76.6353 65.1259 76.2869 63.4629 76.1094L63.5418 75.3174V75.3207Z" fill="#DAC5AC"/>
<path d="M60.001 33.0674C60.001 33.0674 68.7484 32.0065 71.6391 38.3017C74.5299 44.5969 73.3847 47.0734 78.6931 52.6975C84.0016 58.3216 86.7521 70.1822 72.6179 75.2817C72.6179 75.2817 72.0665 79.247 67.2703 79.9005C62.4709 80.5541 60.001 77.7728 60.001 77.7728V33.0674Z" fill="#634444"/>
<path d="M60.001 33.0674C60.001 33.0674 68.7484 32.0065 71.6391 38.3017C74.5299 44.5969 73.3847 47.0734 78.6931 52.6975C84.0016 58.3216 86.7521 70.1822 72.6179 75.2817C72.6179 75.2817 72.0665 79.247 67.2703 79.9005C62.4709 80.5541 60.001 77.7728 60.001 77.7728V33.0674Z" fill="url(#paint11_linear_9985_449339)"/>
<path d="M66.472 35.4166C66.472 35.4166 71.3394 17.7516 80.8604 16.1642C90.3815 14.5735 95.0878 24.9392 95.5972 30.0267C96.1066 35.1143 94.0065 39.1304 92.3534 39.1896C90.7003 39.2487 83.8084 33.7471 82.1652 27.5947C80.5252 21.4423 72.0493 23.0462 68.72 36.8693L66.4688 35.4166H66.472Z" fill="#634444"/>
<path d="M66.472 35.4166C66.472 35.4166 71.3394 17.7516 80.8604 16.1642C90.3815 14.5735 95.0878 24.9392 95.5972 30.0267C96.1066 35.1143 94.0065 39.1304 92.3534 39.1896C90.7003 39.2487 83.8084 33.7471 82.1652 27.5947C80.5252 21.4423 72.0493 23.0462 68.72 36.8693L66.4688 35.4166H66.472Z" fill="url(#paint12_linear_9985_449339)"/>
<path d="M59.6587 78.9995C59.6587 78.9995 58.1185 80.1912 56.0524 80.7049C55.7974 82.5315 56.2967 85.9439 58.1185 86.8932C58.6018 87.1475 59.6162 86.873 59.6587 86.411C59.6587 83.5087 59.6587 78.9995 59.6587 78.9995Z" fill="#FFF5A9"/>
<path d="M60.3066 79.0038C60.3066 79.0038 61.8739 80.0868 63.9317 80.5998C64.1813 82.401 63.7033 85.9049 61.9399 86.8669C61.4354 87.1424 60.3544 86.809 60.312 86.3174C60.3136 83.3171 60.312 78.9995 60.312 78.9995L60.3066 79.0038Z" fill="#FFF5A9"/>
<path d="M59.789 76.287C61.2778 76.287 64.5676 73.2009 63.999 71.7056C63.1938 69.589 56.3842 69.589 55.579 71.7056C55.0104 73.2042 58.3002 76.287 59.789 76.287Z" fill="#AC6C44"/>
<circle cx="70.3789" cy="53.5" r="2.5" fill="#70320E"/>
<circle cx="49.3789" cy="53.6162" r="2.5" fill="#70320E"/>
</g>
<path d="M32.2697 37.7148L33.0711 40.1336L35.5081 40.9291L33.0711 41.7246L32.2697 44.1434L31.4682 41.7246L29.0312 40.9291L31.4682 40.1336L32.2697 37.7148Z" fill="white"/>
<path d="M22.5563 27L24.4264 32.6438L30.1127 34.5L24.4264 36.3562L22.5563 42L20.6862 36.3562L15 34.5L20.6862 32.6438L22.5563 27Z" fill="white"/>
<defs>
<filter id="filter0_i_9985_449339" x="21.8945" y="10.7136" width="76.2109" height="85.43" filterUnits="userSpaceOnUse" color-interpolation-filters="sRGB">
<feFlood flood-opacity="0" result="BackgroundImageFix"/>
<feBlend mode="normal" in="SourceGraphic" in2="BackgroundImageFix" result="shape"/>
<feColorMatrix in="SourceAlpha" type="matrix" values="0 0 0 0 0 0 0 0 0 0 0 0 0 0 0 0 0 0 127 0" result="hardAlpha"/>
<feOffset dy="-1.14286"/>
<feGaussianBlur stdDeviation="0.571429"/>
<feComposite in2="hardAlpha" operator="arithmetic" k2="-1" k3="1"/>
<feColorMatrix type="matrix" values="0 0 0 0 0.616667 0 0 0 0 0.407 0 0 0 0 0 0 0 0 0.25 0"/>
<feBlend mode="normal" in2="shape" result="effect1_innerShadow_9985_449339"/>
</filter>
<filter id="filter1_ii_9985_449339" x="27.0908" y="16.5588" width="65.8184" height="74.8824" filterUnits="userSpaceOnUse" color-interpolation-filters="sRGB">
<feFlood flood-opacity="0" result="BackgroundImageFix"/>
<feBlend mode="normal" in="SourceGraphic" in2="BackgroundImageFix" result="shape"/>
<feColorMatrix in="SourceAlpha" type="matrix" values="0 0 0 0 0 0 0 0 0 0 0 0 0 0 0 0 0 0 127 0" result="hardAlpha"/>
<feOffset dy="1.14286"/>
<feGaussianBlur stdDeviation="1.14286"/>
<feComposite in2="hardAlpha" operator="arithmetic" k2="-1" k3="1"/>
<feColorMatrix type="matrix" values="0 0 0 0 0.7 0 0 0 0 0.465967 0 0 0 0 0.0116667 0 0 0 1 0"/>
<feBlend mode="normal" in2="shape" result="effect1_innerShadow_9985_449339"/>
<feColorMatrix in="SourceAlpha" type="matrix" values="0 0 0 0 0 0 0 0 0 0 0 0 0 0 0 0 0 0 127 0" result="hardAlpha"/>
<feOffset dy="-1.14286"/>
<feGaussianBlur stdDeviation="0.571429"/>
<feComposite in2="hardAlpha" operator="arithmetic" k2="-1" k3="1"/>
<feColorMatrix type="matrix" values="0 0 0 0 1 0 0 0 0 0.72 0 0 0 0 0 0 0 0 1 0"/>
<feBlend mode="normal" in2="effect1_innerShadow_9985_449339" result="effect2_innerShadow_9985_449339"/>
</filter>
<filter id="filter2_d_9985_449339" x="20.3519" y="13.3371" width="78.8734" height="78.0912" filterUnits="userSpaceOnUse" color-interpolation-filters="sRGB">
<feFlood flood-opacity="0" result="BackgroundImageFix"/>
<feColorMatrix in="SourceAlpha" type="matrix" values="0 0 0 0 0 0 0 0 0 0 0 0 0 0 0 0 0 0 127 0" result="hardAlpha"/>
<feOffset dy="0.88762"/>
<feGaussianBlur stdDeviation="1.77524"/>
<feColorMatrix type="matrix" values="0 0 0 0 0.417188 0 0 0 0 0.160564 0 0 0 0 0.00450867 0 0 0 1 0"/>
<feBlend mode="normal" in2="BackgroundImageFix" result="effect1_dropShadow_9985_449339"/>
<feBlend mode="normal" in="SourceGraphic" in2="effect1_dropShadow_9985_449339" result="shape"/>
</filter>
<linearGradient id="paint0_linear_9985_449339" x1="30.999" y1="89.9995" x2="53.999" y2="102.5" gradientUnits="userSpaceOnUse">
<stop offset="0.484531" stop-color="#FFC700"/>
<stop offset="0.484631" stop-color="#FFE590"/>
</linearGradient>
<linearGradient id="paint1_linear_9985_449339" x1="30.999" y1="89.9995" x2="53.999" y2="102.5" gradientUnits="userSpaceOnUse">
<stop offset="0.484531" stop-color="#FFC700"/>
<stop offset="0.484631" stop-color="#FFE590"/>
</linearGradient>
<linearGradient id="paint2_linear_9985_449339" x1="77.0106" y1="85.0327" x2="68.9049" y2="89.7125" gradientUnits="userSpaceOnUse">
<stop offset="0.484631" stop-color="#FFE590"/>
<stop offset="0.488859" stop-color="#FFC700"/>
</linearGradient>
<linearGradient id="paint3_linear_9985_449339" x1="27.9487" y1="16.8205" x2="94.6154" y2="91.1795" gradientUnits="userSpaceOnUse">
<stop stop-color="#FFECA9"/>
<stop offset="0.237301" stop-color="#FFD600"/>
<stop offset="1" stop-color="#FF9900"/>
</linearGradient>
<linearGradient id="paint4_linear_9985_449339" x1="60" y1="4" x2="60" y2="104" gradientUnits="userSpaceOnUse">
<stop stop-color="white" stop-opacity="0.5"/>
<stop offset="1" stop-color="white" stop-opacity="0"/>
</linearGradient>
<linearGradient id="paint5_linear_9985_449339" x1="31.8889" y1="20.3889" x2="88.1111" y2="88.2222" gradientUnits="userSpaceOnUse">
<stop stop-color="#FFC700"/>
<stop offset="1" stop-color="#D58500"/>
</linearGradient>
<linearGradient id="paint6_linear_9985_449339" x1="34.8529" y1="22.7059" x2="66.1471" y2="92" gradientUnits="userSpaceOnUse">
<stop stop-color="#FFB13C"/>
<stop offset="0.484375" stop-color="#B45F1D"/>
<stop offset="1" stop-color="#743110"/>
</linearGradient>
<linearGradient id="paint7_linear_9985_449339" x1="50.5" y1="38" x2="39.6163" y2="23.9102" gradientUnits="userSpaceOnUse">
<stop stop-color="#DC7F11"/>
<stop offset="1" stop-color="#A3592F"/>
</linearGradient>
<linearGradient id="paint8_linear_9985_449339" x1="60" y1="49.7651" x2="39.5141" y2="50.7388" gradientUnits="userSpaceOnUse">
<stop stop-color="#FFE587"/>
<stop offset="1" stop-color="#FFC548"/>
</linearGradient>
<linearGradient id="paint9_linear_9985_449339" x1="53.1084" y1="24.272" x2="27.4205" y2="27.4144" gradientUnits="userSpaceOnUse">
<stop stop-color="#FFC548"/>
<stop offset="1" stop-color="#FFE587"/>
</linearGradient>
<linearGradient id="paint10_linear_9985_449339" x1="69" y1="37" x2="82" y2="23.5" gradientUnits="userSpaceOnUse">
<stop stop-color="#DC7F11"/>
<stop offset="1" stop-color="#A3592F"/>
</linearGradient>
<linearGradient id="paint11_linear_9985_449339" x1="60.001" y1="52.825" x2="83.3659" y2="52.825" gradientUnits="userSpaceOnUse">
<stop stop-color="#F4A431"/>
<stop offset="1" stop-color="#FFCE6A"/>
</linearGradient>
<linearGradient id="paint12_linear_9985_449339" x1="66.4687" y1="25.7818" x2="96.1383" y2="25.7818" gradientUnits="userSpaceOnUse">
<stop stop-color="#F4A431"/>
<stop offset="1" stop-color="#FFCE6A"/>
</linearGradient>
</defs>
</svg>
