<svg width="120" height="121" viewBox="0 0 120 121" fill="none" xmlns="http://www.w3.org/2000/svg">
<path d="M41.999 70.9995L53.2574 77.4995L40.2574 100.016L22.999 103.908L41.999 70.9995Z" fill="url(#paint0_linear_9985_449203)"/>
<path d="M64.5157 83.9995L53.2574 77.4995L40.2574 100.016L45.5157 116.908L64.5157 83.9995Z" fill="url(#paint1_linear_9985_449203)"/>
<path fill-rule="evenodd" clip-rule="evenodd" d="M67.2573 77.5L78.5156 71L97.5156 103.909L80.2583 100.017L75 116.909L56 84L67.2576 77.5004L67.2573 77.5Z" fill="url(#paint2_linear_9985_449203)"/>
<path d="M52.1429 8.86624C57.0049 6.05915 62.9951 6.05915 67.8571 8.86624L95.1584 24.6286C100.02 27.4357 103.016 32.6234 103.016 38.2376V69.7624C103.016 75.3766 100.02 80.5643 95.1584 83.3714L67.8571 99.1338C62.9951 101.941 57.0049 101.941 52.1429 99.1338L24.8416 83.3714C19.9796 80.5643 16.9844 75.3766 16.9844 69.7624V38.2376C16.9844 32.6234 19.9796 27.4357 24.8416 24.6286L52.1429 8.86624Z" fill="url(#paint3_linear_9985_449203)" stroke="url(#paint4_linear_9985_449203)" stroke-width="0.571429"/>
<g filter="url(#filter0_i_9985_449203)">
<path d="M54 13.4641C57.7128 11.3205 62.2872 11.3205 66 13.4641L92.1051 28.5359C95.8179 30.6795 98.1051 34.641 98.1051 38.9282V69.0718C98.1051 73.359 95.8179 77.3205 92.1051 79.4641L66 94.5359C62.2872 96.6795 57.7128 96.6795 54 94.5359L27.8949 79.4641C24.1821 77.3205 21.8949 73.359 21.8949 69.0718V38.9282C21.8949 34.641 24.1821 30.6795 27.8949 28.5359L54 13.4641Z" fill="url(#paint5_linear_9985_449203)"/>
</g>
<g filter="url(#filter1_ii_9985_449203)">
<path d="M54.5 19.1754C57.9034 17.2105 62.0966 17.2105 65.5 19.1754L87.409 31.8246C90.8124 33.7895 92.909 37.4209 92.909 41.3509V66.6491C92.909 70.5791 90.8124 74.2105 87.409 76.1754L65.5 88.8246C62.0966 90.7895 57.9034 90.7895 54.5 88.8246L32.591 76.1754C29.1876 74.2105 27.091 70.5791 27.091 66.6491V41.3509C27.091 37.4209 29.1876 33.7895 32.591 31.8246L54.5 19.1754Z" fill="url(#paint6_linear_9985_449203)"/>
</g>
<g filter="url(#filter2_d_9985_449203)">
<path d="M54.7861 82.8574C54.7861 82.8574 53.8538 87.5903 55.8132 91.0031C56.2483 90.3608 56.7752 89.0437 56.7752 89.0437C56.7752 89.0437 56.8581 91.1866 58.5482 93.0395C60.2383 94.8895 60.2057 96.9526 60.2057 96.9526C60.2057 96.9526 63.586 93.5398 63.3492 89.1443C63.7606 92.3706 63.361 93.3355 63.361 93.3355C63.361 93.3355 66.5755 91.5773 65.723 83.3665L54.7861 82.8604V82.8574Z" fill="#5B3D3D"/>
<path d="M54.7861 82.8574C54.7861 82.8574 53.8538 87.5903 55.8132 91.0031C56.2483 90.3608 56.7752 89.0437 56.7752 89.0437C56.7752 89.0437 56.8581 91.1866 58.5482 93.0395C60.2383 94.8895 60.2057 96.9526 60.2057 96.9526C60.2057 96.9526 63.586 93.5398 63.3492 89.1443C63.7606 92.3706 63.361 93.3355 63.361 93.3355C63.361 93.3355 66.5755 91.5773 65.723 83.3665L54.7861 82.8604V82.8574Z" fill="url(#paint7_linear_9985_449203)"/>
<path d="M67.5824 78.0332C67.5824 78.0332 64.2703 80.4485 59.8926 80.2413V86.8952C59.8926 86.8952 67.5824 86.9011 67.5824 78.0362V78.0332Z" fill="#AB5C34"/>
<path d="M52.1963 78.0332C52.1963 78.0332 55.5084 80.4485 59.8862 80.2413V86.8952C59.8862 86.8952 52.1963 86.9011 52.1963 78.0362V78.0332Z" fill="#CC7D35"/>
<path d="M54.2939 79.0483C54.2939 79.0483 55.5312 83.8375 59.8882 83.8375V80.401L54.2939 79.0483Z" fill="#FFF5A9"/>
<path d="M65.4829 79.0483C65.4829 79.0483 64.2457 83.8375 59.8887 83.8375V80.401L65.4829 79.0483Z" fill="#E9B364"/>
<path d="M44.7675 36.4059C44.7675 36.4059 45.6506 16.2584 25.1987 22.083C31.673 17.085 39.0533 14.4249 47.28 20.5281C55.5094 26.6328 55.1858 40.4419 55.1858 40.4419L44.7675 36.4059Z" fill="#4F5356"/>
<path d="M44.7675 36.4059C44.7675 36.4059 45.6506 16.2584 25.1987 22.083C31.673 17.085 39.0533 14.4249 47.28 20.5281C55.5094 26.6328 55.1858 40.4419 55.1858 40.4419L44.7675 36.4059Z" fill="url(#paint8_linear_9985_449203)"/>
<path d="M51.8346 26.8566C49.5017 25.7125 47.8341 26.0237 45.6764 27.2833C45.0392 27.641 44.4299 28.0566 43.7908 28.5354C43.9119 28.1497 44.1206 27.7994 44.3628 27.4789C46.1758 25.0958 49.7514 24.5014 51.8327 26.8585L51.8346 26.8566Z" fill="#FFB65E"/>
<path d="M47.1239 21.2764C45.5848 21.4963 44.232 22.2379 43.3283 23.4807C43.0321 23.8664 42.7861 24.295 42.57 24.839C42.4321 24.5707 42.3986 24.2651 42.4079 23.9652C42.5383 21.7814 45.2159 20.4678 47.1239 21.2764Z" fill="#FFB65E"/>
<path d="M41.1822 18.3764C40.3121 19.3472 40.0214 20.3906 39.9245 21.6763C38.3314 20.8024 39.6003 18.3149 41.1822 18.3764Z" fill="#FFB65E"/>
<path d="M59.8881 29.6621V81.1706C48.2971 81.5732 48.5931 73.4038 45.2602 64.3198C43.2652 58.8824 40.2432 52.9685 40.2432 48.6529C40.2432 34.5341 48.8861 29.6621 59.8881 29.6621Z" fill="#7C5B5B"/>
<path d="M59.8881 29.6621V81.1706C48.2971 81.5732 48.5931 73.4038 45.2602 64.3198C43.2652 58.8824 40.2432 52.9685 40.2432 48.6529C40.2432 34.5341 48.8861 29.6621 59.8881 29.6621Z" fill="url(#paint9_linear_9985_449203)"/>
<path d="M43.4068 37.7161C43.4068 37.7161 36.445 36.4996 31.2385 41.4338C26.035 46.368 25.7627 58.4 25.7627 58.4C25.7627 58.4 36.5812 58.6102 41.0063 47.1494C45.4314 35.6886 43.4038 37.7161 43.4038 37.7161H43.4068Z" fill="#7C5B5B"/>
<path d="M43.4068 37.7161C43.4068 37.7161 36.445 36.4996 31.2385 41.4338C26.035 46.368 25.7627 58.4 25.7627 58.4C25.7627 58.4 36.5812 58.6102 41.0063 47.1494C45.4314 35.6886 43.4038 37.7161 43.4038 37.7161H43.4068Z" fill="url(#paint10_linear_9985_449203)"/>
<path d="M38.9582 43.0704C38.9582 43.0704 34.8736 42.3571 31.8189 45.2519C28.7643 48.1467 28.6074 55.2091 28.6074 55.2091C28.6074 55.2091 34.6604 55.2091 37.5523 48.6055C38.9701 45.3673 38.9582 43.0704 38.9582 43.0704Z" fill="#B75C27"/>
<path d="M55.4673 74.3894C56.2103 75.3484 55.784 76.9231 55.784 76.9231C55.784 76.9231 54.1531 76.9438 53.4102 75.9848C52.6672 75.0258 52.5252 73.8921 53.0935 73.4511C53.6618 73.0101 54.7244 73.4304 55.4673 74.3894Z" fill="#382323"/>
<path d="M55.4673 74.3894C56.2103 75.3484 55.784 76.9231 55.784 76.9231C55.784 76.9231 54.1531 76.9438 53.4102 75.9848C52.6672 75.0258 52.5252 73.8921 53.0935 73.4511C53.6618 73.0101 54.7244 73.4304 55.4673 74.3894Z" fill="url(#paint11_linear_9985_449203)"/>
<path d="M76.0152 36.4041C76.0152 36.4041 75.1321 16.2567 95.584 22.0813C89.1097 17.0833 81.7295 14.4232 73.5027 20.5264C65.2733 26.631 65.597 40.4402 65.597 40.4402L76.0152 36.4041Z" fill="#4F5356"/>
<path d="M76.0152 36.4041C76.0152 36.4041 75.1321 16.2567 95.584 22.0813C89.1097 17.0833 81.7295 14.4232 73.5027 20.5264C65.2733 26.631 65.597 40.4402 65.597 40.4402L76.0152 36.4041Z" fill="url(#paint12_linear_9985_449203)"/>
<path d="M69.0014 26.8566C71.3342 25.7125 73.0018 26.0237 75.1595 27.2833C75.7968 27.641 76.406 28.0566 77.0452 28.5354C76.924 28.1497 76.7154 27.7994 76.4731 27.4789C74.6602 25.0958 71.0845 24.5014 69.0032 26.8585L69.0014 26.8566Z" fill="#FFB65E"/>
<path d="M73.7121 21.2764C75.2512 21.4963 76.6039 22.2379 77.5076 23.4807C77.8039 23.8664 78.0498 24.295 78.2659 24.839C78.4038 24.5707 78.4374 24.2651 78.428 23.9652C78.2976 21.7814 75.6201 20.4678 73.7121 21.2764Z" fill="#FFB65E"/>
<path d="M79.6537 18.3764C80.5239 19.3472 80.8145 20.3906 80.9114 21.6763C82.5045 20.8024 81.2356 18.3149 79.6537 18.3764Z" fill="#FFB65E"/>
<path d="M59.8887 29.6621V81.1706C71.4797 81.5732 71.1837 73.4038 74.5166 64.3198C76.5116 58.8824 79.5336 52.9685 79.5336 48.6529C79.5336 34.5341 70.8907 29.6621 59.8887 29.6621Z" fill="#634444"/>
<path d="M59.8887 29.6621V81.1706C71.4797 81.5732 71.1837 73.4038 74.5166 64.3198C76.5116 58.8824 79.5336 52.9685 79.5336 48.6529C79.5336 34.5341 70.8907 29.6621 59.8887 29.6621Z" fill="url(#paint13_linear_9985_449203)"/>
<path d="M76.3689 37.7166C76.3689 37.7166 83.3306 36.5001 88.5371 41.4343C93.7406 46.3685 94.0129 58.4005 94.0129 58.4005C94.0129 58.4005 83.1944 58.6107 78.7694 47.1499C74.3443 35.6891 76.3718 37.7166 76.3718 37.7166H76.3689Z" fill="url(#paint14_linear_9985_449203)"/>
<path d="M80.8184 43.0704C80.8184 43.0704 84.903 42.3571 87.9577 45.2519C91.0123 48.1467 91.1692 55.2091 91.1692 55.2091C91.1692 55.2091 85.1162 55.2091 82.2243 48.6055C80.8065 45.3673 80.8184 43.0704 80.8184 43.0704Z" fill="#70320E"/>
<path d="M64.3105 74.3894C63.5675 75.3484 63.9937 76.9231 63.9937 76.9231C63.9937 76.9231 65.6247 76.9438 66.3676 75.9848C67.1105 75.0258 67.2526 73.8921 66.6843 73.4511C66.116 73.0101 65.0534 73.4304 64.3105 74.3894Z" fill="#382323"/>
<path d="M64.3105 74.3894C63.5675 75.3484 63.9937 76.9231 63.9937 76.9231C63.9937 76.9231 65.6247 76.9438 66.3676 75.9848C67.1105 75.0258 67.2526 73.8921 66.6843 73.4511C66.116 73.0101 65.0534 73.4304 64.3105 74.3894Z" fill="url(#paint15_linear_9985_449203)"/>
<circle cx="70.498" cy="53.5005" r="2.5" fill="#70320E"/>
<circle cx="49.498" cy="53.6167" r="2.5" fill="#70320E"/>
</g>
<path d="M32.2697 37.7148L33.0711 40.1336L35.5081 40.9291L33.0711 41.7246L32.2697 44.1434L31.4682 41.7246L29.0312 40.9291L31.4682 40.1336L32.2697 37.7148Z" fill="white"/>
<path d="M22.5563 27L24.4264 32.6438L30.1127 34.5L24.4264 36.3562L22.5563 42L20.6862 36.3562L15 34.5L20.6862 32.6438L22.5563 27Z" fill="white"/>
<defs>
<filter id="filter0_i_9985_449203" x="21.8945" y="10.7136" width="76.2109" height="85.43" filterUnits="userSpaceOnUse" color-interpolation-filters="sRGB">
<feFlood flood-opacity="0" result="BackgroundImageFix"/>
<feBlend mode="normal" in="SourceGraphic" in2="BackgroundImageFix" result="shape"/>
<feColorMatrix in="SourceAlpha" type="matrix" values="0 0 0 0 0 0 0 0 0 0 0 0 0 0 0 0 0 0 127 0" result="hardAlpha"/>
<feOffset dy="-1.14286"/>
<feGaussianBlur stdDeviation="0.571429"/>
<feComposite in2="hardAlpha" operator="arithmetic" k2="-1" k3="1"/>
<feColorMatrix type="matrix" values="0 0 0 0 0.616667 0 0 0 0 0.407 0 0 0 0 0 0 0 0 0.25 0"/>
<feBlend mode="normal" in2="shape" result="effect1_innerShadow_9985_449203"/>
</filter>
<filter id="filter1_ii_9985_449203" x="27.0908" y="16.5588" width="65.8184" height="74.8824" filterUnits="userSpaceOnUse" color-interpolation-filters="sRGB">
<feFlood flood-opacity="0" result="BackgroundImageFix"/>
<feBlend mode="normal" in="SourceGraphic" in2="BackgroundImageFix" result="shape"/>
<feColorMatrix in="SourceAlpha" type="matrix" values="0 0 0 0 0 0 0 0 0 0 0 0 0 0 0 0 0 0 127 0" result="hardAlpha"/>
<feOffset dy="1.14286"/>
<feGaussianBlur stdDeviation="1.14286"/>
<feComposite in2="hardAlpha" operator="arithmetic" k2="-1" k3="1"/>
<feColorMatrix type="matrix" values="0 0 0 0 0.7 0 0 0 0 0.465967 0 0 0 0 0.0116667 0 0 0 1 0"/>
<feBlend mode="normal" in2="shape" result="effect1_innerShadow_9985_449203"/>
<feColorMatrix in="SourceAlpha" type="matrix" values="0 0 0 0 0 0 0 0 0 0 0 0 0 0 0 0 0 0 127 0" result="hardAlpha"/>
<feOffset dy="-1.14286"/>
<feGaussianBlur stdDeviation="0.571429"/>
<feComposite in2="hardAlpha" operator="arithmetic" k2="-1" k3="1"/>
<feColorMatrix type="matrix" values="0 0 0 0 1 0 0 0 0 0.72 0 0 0 0 0 0 0 0 1 0"/>
<feBlend mode="normal" in2="effect1_innerShadow_9985_449203" result="effect2_innerShadow_9985_449203"/>
</filter>
<filter id="filter2_d_9985_449203" x="21.6478" y="14.3332" width="77.4867" height="87.0575" filterUnits="userSpaceOnUse" color-interpolation-filters="sRGB">
<feFlood flood-opacity="0" result="BackgroundImageFix"/>
<feColorMatrix in="SourceAlpha" type="matrix" values="0 0 0 0 0 0 0 0 0 0 0 0 0 0 0 0 0 0 127 0" result="hardAlpha"/>
<feOffset dy="0.88762"/>
<feGaussianBlur stdDeviation="1.77524"/>
<feColorMatrix type="matrix" values="0 0 0 0 0.417188 0 0 0 0 0.160564 0 0 0 0 0.00450867 0 0 0 1 0"/>
<feBlend mode="normal" in2="BackgroundImageFix" result="effect1_dropShadow_9985_449203"/>
<feBlend mode="normal" in="SourceGraphic" in2="effect1_dropShadow_9985_449203" result="shape"/>
</filter>
<linearGradient id="paint0_linear_9985_449203" x1="30.999" y1="89.9995" x2="53.999" y2="102.5" gradientUnits="userSpaceOnUse">
<stop offset="0.484531" stop-color="#FFC700"/>
<stop offset="0.484631" stop-color="#FFE590"/>
</linearGradient>
<linearGradient id="paint1_linear_9985_449203" x1="30.999" y1="89.9995" x2="53.999" y2="102.5" gradientUnits="userSpaceOnUse">
<stop offset="0.484531" stop-color="#FFC700"/>
<stop offset="0.484631" stop-color="#FFE590"/>
</linearGradient>
<linearGradient id="paint2_linear_9985_449203" x1="77.0106" y1="85.0327" x2="68.9049" y2="89.7125" gradientUnits="userSpaceOnUse">
<stop offset="0.484631" stop-color="#FFE590"/>
<stop offset="0.488859" stop-color="#FFC700"/>
</linearGradient>
<linearGradient id="paint3_linear_9985_449203" x1="27.9487" y1="16.8205" x2="94.6154" y2="91.1795" gradientUnits="userSpaceOnUse">
<stop stop-color="#FFECA9"/>
<stop offset="0.237301" stop-color="#FFD600"/>
<stop offset="1" stop-color="#FF9900"/>
</linearGradient>
<linearGradient id="paint4_linear_9985_449203" x1="60" y1="4" x2="60" y2="104" gradientUnits="userSpaceOnUse">
<stop stop-color="white" stop-opacity="0.5"/>
<stop offset="1" stop-color="white" stop-opacity="0"/>
</linearGradient>
<linearGradient id="paint5_linear_9985_449203" x1="31.8889" y1="20.3889" x2="88.1111" y2="88.2222" gradientUnits="userSpaceOnUse">
<stop stop-color="#FFC700"/>
<stop offset="1" stop-color="#D58500"/>
</linearGradient>
<linearGradient id="paint6_linear_9985_449203" x1="34.8529" y1="22.7059" x2="66.1471" y2="92" gradientUnits="userSpaceOnUse">
<stop stop-color="#FFB13C"/>
<stop offset="0.484375" stop-color="#B45F1D"/>
<stop offset="1" stop-color="#743110"/>
</linearGradient>
<linearGradient id="paint7_linear_9985_449203" x1="59.998" y1="85.5" x2="59.7806" y2="98.9965" gradientUnits="userSpaceOnUse">
<stop stop-color="#FFAB48"/>
<stop offset="1" stop-color="#EA6A20"/>
</linearGradient>
<linearGradient id="paint8_linear_9985_449203" x1="39.4971" y1="25.5005" x2="51.4393" y2="24.0312" gradientUnits="userSpaceOnUse">
<stop stop-color="#DC7F11"/>
<stop offset="1" stop-color="#A3592F"/>
</linearGradient>
<linearGradient id="paint9_linear_9985_449203" x1="59.8881" y1="48.0405" x2="42.375" y2="48.6891" gradientUnits="userSpaceOnUse">
<stop stop-color="#FFE587"/>
<stop offset="1" stop-color="#FFC548"/>
</linearGradient>
<linearGradient id="paint10_linear_9985_449203" x1="40.2645" y1="43.6811" x2="24.1673" y2="46.0438" gradientUnits="userSpaceOnUse">
<stop stop-color="#E99921"/>
<stop offset="1" stop-color="#FDB542"/>
</linearGradient>
<linearGradient id="paint11_linear_9985_449203" x1="52.8603" y1="73.4335" x2="56.2501" y2="76.3175" gradientUnits="userSpaceOnUse">
<stop stop-color="#B75C28"/>
<stop offset="1" stop-color="#924111"/>
</linearGradient>
<linearGradient id="paint12_linear_9985_449203" x1="71.498" y1="21.001" x2="85.3107" y2="28.9582" gradientUnits="userSpaceOnUse">
<stop stop-color="#DC7F11"/>
<stop offset="1" stop-color="#A3592F"/>
</linearGradient>
<linearGradient id="paint13_linear_9985_449203" x1="59.8887" y1="51.3949" x2="79.8453" y2="51.3949" gradientUnits="userSpaceOnUse">
<stop stop-color="#F4A431"/>
<stop offset="1" stop-color="#FFCE6A"/>
</linearGradient>
<linearGradient id="paint14_linear_9985_449203" x1="84.9605" y1="44.7062" x2="76.9348" y2="53.366" gradientUnits="userSpaceOnUse">
<stop stop-color="#E88B48"/>
<stop offset="1" stop-color="#F0A948"/>
</linearGradient>
<linearGradient id="paint15_linear_9985_449203" x1="66.3403" y1="73.4329" x2="64.9546" y2="77.1421" gradientUnits="userSpaceOnUse">
<stop stop-color="#B75C28"/>
<stop offset="1" stop-color="#924111"/>
</linearGradient>
</defs>
</svg>
