<svg width="120" height="121" viewBox="0 0 120 121" fill="none" xmlns="http://www.w3.org/2000/svg">
<path d="M41.999 70.9995L53.2574 77.4995L40.2574 100.016L22.999 103.908L41.999 70.9995Z" fill="url(#paint0_linear_9985_447525)"/>
<path d="M64.5157 83.9995L53.2574 77.4995L40.2574 100.016L45.5157 116.908L64.5157 83.9995Z" fill="url(#paint1_linear_9985_447525)"/>
<path fill-rule="evenodd" clip-rule="evenodd" d="M67.2573 77.5L78.5156 71L97.5156 103.909L80.2583 100.017L75 116.909L56 84L67.2576 77.5004L67.2573 77.5Z" fill="url(#paint2_linear_9985_447525)"/>
<path d="M52.1429 8.86624C57.0049 6.05915 62.9951 6.05915 67.8571 8.86624L95.1584 24.6286C100.02 27.4357 103.016 32.6234 103.016 38.2376V69.7624C103.016 75.3766 100.02 80.5643 95.1584 83.3714L67.8571 99.1338C62.9951 101.941 57.0049 101.941 52.1429 99.1338L24.8416 83.3714C19.9796 80.5643 16.9844 75.3766 16.9844 69.7624V38.2376C16.9844 32.6234 19.9796 27.4357 24.8416 24.6286L52.1429 8.86624Z" fill="url(#paint3_linear_9985_447525)" stroke="url(#paint4_linear_9985_447525)" stroke-width="0.571429"/>
<g filter="url(#filter0_i_9985_447525)">
<path d="M54 13.4641C57.7128 11.3205 62.2872 11.3205 66 13.4641L92.1051 28.5359C95.8179 30.6795 98.1051 34.641 98.1051 38.9282V69.0718C98.1051 73.359 95.8179 77.3205 92.1051 79.4641L66 94.5359C62.2872 96.6795 57.7128 96.6795 54 94.5359L27.8949 79.4641C24.1821 77.3205 21.8949 73.359 21.8949 69.0718V38.9282C21.8949 34.641 24.1821 30.6795 27.8949 28.5359L54 13.4641Z" fill="url(#paint5_linear_9985_447525)"/>
</g>
<g filter="url(#filter1_ii_9985_447525)">
<path d="M54.5 19.1754C57.9034 17.2105 62.0966 17.2105 65.5 19.1754L87.409 31.8246C90.8124 33.7895 92.909 37.4209 92.909 41.3509V66.6491C92.909 70.5791 90.8124 74.2105 87.409 76.1754L65.5 88.8246C62.0966 90.7895 57.9034 90.7895 54.5 88.8246L32.591 76.1754C29.1876 74.2105 27.091 70.5791 27.091 66.6491V41.3509C27.091 37.4209 29.1876 33.7895 32.591 31.8246L54.5 19.1754Z" fill="url(#paint6_linear_9985_447525)"/>
</g>
<g filter="url(#filter2_d_9985_447525)">
<path d="M54.7861 82.8574C54.7861 82.8574 53.8538 87.5903 55.8132 91.0031C56.2483 90.3608 56.7752 89.0437 56.7752 89.0437C56.7752 89.0437 56.8581 91.1866 58.5482 93.0395C60.2383 94.8895 60.2057 96.9526 60.2057 96.9526C60.2057 96.9526 63.586 93.5398 63.3492 89.1443C63.7606 92.3706 63.361 93.3355 63.361 93.3355C63.361 93.3355 66.5755 91.5773 65.723 83.3665L54.7861 82.8604V82.8574Z" fill="#5B3D3D"/>
<path d="M54.7861 82.8574C54.7861 82.8574 53.8538 87.5903 55.8132 91.0031C56.2483 90.3608 56.7752 89.0437 56.7752 89.0437C56.7752 89.0437 56.8581 91.1866 58.5482 93.0395C60.2383 94.8895 60.2057 96.9526 60.2057 96.9526C60.2057 96.9526 63.586 93.5398 63.3492 89.1443C63.7606 92.3706 63.361 93.3355 63.361 93.3355C63.361 93.3355 66.5755 91.5773 65.723 83.3665L54.7861 82.8604V82.8574Z" fill="url(#paint7_linear_9985_447525)"/>
<path d="M67.5824 78.0332C67.5824 78.0332 64.2703 80.4485 59.8926 80.2413V86.8952C59.8926 86.8952 67.5824 86.9011 67.5824 78.0362V78.0332Z" fill="#AB5C34"/>
<path d="M52.1963 78.0332C52.1963 78.0332 55.5084 80.4485 59.8862 80.2413V86.8952C59.8862 86.8952 52.1963 86.9011 52.1963 78.0362V78.0332Z" fill="#CC7D35"/>
<path d="M54.2939 79.0483C54.2939 79.0483 55.5312 83.8375 59.8882 83.8375V80.401L54.2939 79.0483Z" fill="#FFF5A9"/>
<path d="M65.4829 79.0483C65.4829 79.0483 64.2457 83.8375 59.8887 83.8375V80.401L65.4829 79.0483Z" fill="#E9B364"/>
<path d="M44.7675 36.4059C44.7675 36.4059 45.6506 16.2584 25.1987 22.083C31.673 17.085 39.0533 14.4249 47.28 20.5281C55.5094 26.6328 55.1858 40.4419 55.1858 40.4419L44.7675 36.4059Z" fill="#4F5356"/>
<path d="M44.7675 36.4059C44.7675 36.4059 45.6506 16.2584 25.1987 22.083C31.673 17.085 39.0533 14.4249 47.28 20.5281C55.5094 26.6328 55.1858 40.4419 55.1858 40.4419L44.7675 36.4059Z" fill="url(#paint8_linear_9985_447525)"/>
<path d="M51.8346 26.8566C49.5017 25.7125 47.8341 26.0237 45.6764 27.2833C45.0392 27.641 44.4299 28.0566 43.7908 28.5354C43.9119 28.1497 44.1206 27.7994 44.3628 27.4789C46.1758 25.0958 49.7514 24.5014 51.8327 26.8585L51.8346 26.8566Z" fill="#FFB65E"/>
<path d="M47.1239 21.2764C45.5848 21.4963 44.232 22.2379 43.3283 23.4807C43.0321 23.8664 42.7861 24.295 42.57 24.839C42.4321 24.5707 42.3986 24.2651 42.4079 23.9652C42.5383 21.7814 45.2159 20.4678 47.1239 21.2764Z" fill="#FFB65E"/>
<path d="M41.1822 18.3764C40.3121 19.3472 40.0214 20.3906 39.9245 21.6763C38.3314 20.8024 39.6003 18.3149 41.1822 18.3764Z" fill="#FFB65E"/>
<path d="M59.8881 29.6621V81.1706C48.2971 81.5732 48.5931 73.4038 45.2602 64.3198C43.2652 58.8824 40.2432 52.9685 40.2432 48.6529C40.2432 34.5341 48.8861 29.6621 59.8881 29.6621Z" fill="#7C5B5B"/>
<path d="M59.8881 29.6621V81.1706C48.2971 81.5732 48.5931 73.4038 45.2602 64.3198C43.2652 58.8824 40.2432 52.9685 40.2432 48.6529C40.2432 34.5341 48.8861 29.6621 59.8881 29.6621Z" fill="url(#paint9_linear_9985_447525)"/>
<path d="M43.4068 37.7161C43.4068 37.7161 36.445 36.4996 31.2385 41.4338C26.035 46.368 25.7627 58.4 25.7627 58.4C25.7627 58.4 36.5812 58.6102 41.0063 47.1494C45.4314 35.6886 43.4038 37.7161 43.4038 37.7161H43.4068Z" fill="#7C5B5B"/>
<path d="M43.4068 37.7161C43.4068 37.7161 36.445 36.4996 31.2385 41.4338C26.035 46.368 25.7627 58.4 25.7627 58.4C25.7627 58.4 36.5812 58.6102 41.0063 47.1494C45.4314 35.6886 43.4038 37.7161 43.4038 37.7161H43.4068Z" fill="url(#paint10_linear_9985_447525)"/>
<path d="M38.9582 43.0704C38.9582 43.0704 34.8736 42.3571 31.8189 45.2519C28.7643 48.1467 28.6074 55.2091 28.6074 55.2091C28.6074 55.2091 34.6604 55.2091 37.5523 48.6055C38.9701 45.3673 38.9582 43.0704 38.9582 43.0704Z" fill="#B75C27"/>
<path d="M55.4673 74.3894C56.2103 75.3484 55.784 76.9231 55.784 76.9231C55.784 76.9231 54.1531 76.9438 53.4102 75.9848C52.6672 75.0258 52.5252 73.8921 53.0935 73.4511C53.6618 73.0101 54.7244 73.4304 55.4673 74.3894Z" fill="#382323"/>
<path d="M55.4673 74.3894C56.2103 75.3484 55.784 76.9231 55.784 76.9231C55.784 76.9231 54.1531 76.9438 53.4102 75.9848C52.6672 75.0258 52.5252 73.8921 53.0935 73.4511C53.6618 73.0101 54.7244 73.4304 55.4673 74.3894Z" fill="url(#paint11_linear_9985_447525)"/>
<path d="M76.0152 36.4041C76.0152 36.4041 75.1321 16.2567 95.584 22.0813C89.1097 17.0833 81.7295 14.4232 73.5027 20.5264C65.2733 26.631 65.597 40.4402 65.597 40.4402L76.0152 36.4041Z" fill="#4F5356"/>
<path d="M76.0152 36.4041C76.0152 36.4041 75.1321 16.2567 95.584 22.0813C89.1097 17.0833 81.7295 14.4232 73.5027 20.5264C65.2733 26.631 65.597 40.4402 65.597 40.4402L76.0152 36.4041Z" fill="url(#paint12_linear_9985_447525)"/>
<path d="M69.0014 26.8566C71.3342 25.7125 73.0018 26.0237 75.1595 27.2833C75.7968 27.641 76.406 28.0566 77.0452 28.5354C76.924 28.1497 76.7154 27.7994 76.4731 27.4789C74.6602 25.0958 71.0845 24.5014 69.0032 26.8585L69.0014 26.8566Z" fill="#FFB65E"/>
<path d="M73.7121 21.2764C75.2512 21.4963 76.6039 22.2379 77.5076 23.4807C77.8039 23.8664 78.0498 24.295 78.2659 24.839C78.4038 24.5707 78.4374 24.2651 78.428 23.9652C78.2976 21.7814 75.6201 20.4678 73.7121 21.2764Z" fill="#FFB65E"/>
<path d="M79.6537 18.3764C80.5239 19.3472 80.8145 20.3906 80.9114 21.6763C82.5045 20.8024 81.2356 18.3149 79.6537 18.3764Z" fill="#FFB65E"/>
<path d="M59.8887 29.6621V81.1706C71.4797 81.5732 71.1837 73.4038 74.5166 64.3198C76.5116 58.8824 79.5336 52.9685 79.5336 48.6529C79.5336 34.5341 70.8907 29.6621 59.8887 29.6621Z" fill="#634444"/>
<path d="M59.8887 29.6621V81.1706C71.4797 81.5732 71.1837 73.4038 74.5166 64.3198C76.5116 58.8824 79.5336 52.9685 79.5336 48.6529C79.5336 34.5341 70.8907 29.6621 59.8887 29.6621Z" fill="url(#paint13_linear_9985_447525)"/>
<path d="M76.3689 37.7166C76.3689 37.7166 83.3306 36.5001 88.5371 41.4343C93.7406 46.3685 94.0129 58.4005 94.0129 58.4005C94.0129 58.4005 83.1944 58.6107 78.7694 47.1499C74.3443 35.6891 76.3718 37.7166 76.3718 37.7166H76.3689Z" fill="url(#paint14_linear_9985_447525)"/>
<path d="M80.8184 43.0704C80.8184 43.0704 84.903 42.3571 87.9577 45.2519C91.0123 48.1467 91.1692 55.2091 91.1692 55.2091C91.1692 55.2091 85.1162 55.2091 82.2243 48.6055C80.8065 45.3673 80.8184 43.0704 80.8184 43.0704Z" fill="#70320E"/>
<path d="M64.3105 74.3894C63.5675 75.3484 63.9937 76.9231 63.9937 76.9231C63.9937 76.9231 65.6247 76.9438 66.3676 75.9848C67.1105 75.0258 67.2526 73.8921 66.6843 73.4511C66.116 73.0101 65.0534 73.4304 64.3105 74.3894Z" fill="#382323"/>
<path d="M64.3105 74.3894C63.5675 75.3484 63.9937 76.9231 63.9937 76.9231C63.9937 76.9231 65.6247 76.9438 66.3676 75.9848C67.1105 75.0258 67.2526 73.8921 66.6843 73.4511C66.116 73.0101 65.0534 73.4304 64.3105 74.3894Z" fill="url(#paint15_linear_9985_447525)"/>
<circle cx="70.498" cy="53.5005" r="2.5" fill="#70320E"/>
<circle cx="49.498" cy="53.6167" r="2.5" fill="#70320E"/>
</g>
<path d="M32.2697 37.7148L33.0711 40.1336L35.5081 40.9291L33.0711 41.7246L32.2697 44.1434L31.4682 41.7246L29.0312 40.9291L31.4682 40.1336L32.2697 37.7148Z" fill="white"/>
<path d="M22.5563 27L24.4264 32.6438L30.1127 34.5L24.4264 36.3562L22.5563 42L20.6862 36.3562L15 34.5L20.6862 32.6438L22.5563 27Z" fill="white"/>
<path d="M41.999 70.9998L53.2573 77.4998L40.2573 100.016L22.999 103.909L41.999 70.9998Z" fill="white" style="mix-blend-mode:color"/>
<path d="M64.5157 83.9998L53.2573 77.4998L40.2573 100.016L45.5157 116.909L64.5157 83.9998Z" fill="white" style="mix-blend-mode:color"/>
<path d="M78.5156 70.9999L97.5156 103.909L80.2583 100.017L75 116.909L56 83.9999L78.5156 70.9999Z" fill="white" style="mix-blend-mode:color"/>
<path d="M52 8.61869C56.9504 5.76057 63.0496 5.76057 68 8.61869L95.3013 24.3811C100.252 27.2392 103.301 32.5212 103.301 38.2375V69.7623C103.301 75.4785 100.252 80.7606 95.3013 83.6187L68 99.3811C63.0496 102.239 56.9504 102.239 52 99.3811L24.6987 83.6187C19.7483 80.7606 16.6987 75.4785 16.6987 69.7623V38.2375C16.6987 32.5212 19.7483 27.2392 24.6987 24.3811L52 8.61869Z" fill="white" style="mix-blend-mode:color"/>
<path d="M54 13.464C57.7128 11.3204 62.2872 11.3204 66 13.464L92.1051 28.5358C95.8179 30.6794 98.1051 34.6409 98.1051 38.9281V69.0717C98.1051 73.3589 95.8179 77.3204 92.1051 79.464L66 94.5358C62.2872 96.6794 57.7128 96.6794 54 94.5358L27.8949 79.464C24.1821 77.3204 21.8949 73.3589 21.8949 69.0717V38.9281C21.8949 34.6409 24.1821 30.6794 27.8949 28.5358L54 13.464Z" fill="white" style="mix-blend-mode:color"/>
<path d="M54.5 19.1753C57.9034 17.2104 62.0966 17.2104 65.5 19.1753L87.409 31.8245C90.8124 33.7894 92.909 37.4208 92.909 41.3507V66.649C92.909 70.579 90.8124 74.2104 87.409 76.1753L65.5 88.8245C62.0966 90.7894 57.9034 90.7894 54.5 88.8245L32.591 76.1753C29.1876 74.2104 27.091 70.579 27.091 66.649V41.3507C27.091 37.4208 29.1876 33.7894 32.591 31.8245L54.5 19.1753Z" fill="white" style="mix-blend-mode:color"/>
<path d="M54.7881 82.857C54.7881 82.857 53.8558 87.5899 55.8152 91.0027C56.2503 90.3604 56.7772 89.0432 56.7772 89.0432C56.7772 89.0432 56.8601 91.1862 58.5502 93.0391C60.2403 94.889 60.2077 96.9521 60.2077 96.9521C60.2077 96.9521 63.588 93.5393 63.3512 89.1438C63.7626 92.3701 63.363 93.3351 63.363 93.3351C63.363 93.3351 66.5775 91.5769 65.725 83.3661L54.7881 82.8599V82.857Z" fill="white" style="mix-blend-mode:color"/>
<path d="M67.5842 78.0328C67.5842 78.0328 64.2721 80.4481 59.8944 80.2409V86.8948C59.8944 86.8948 67.5842 86.9007 67.5842 78.0358V78.0328Z" fill="white" style="mix-blend-mode:color"/>
<path d="M52.1981 78.0328C52.1981 78.0328 55.5102 80.4481 59.8879 80.2409V86.8948C59.8879 86.8948 52.1981 86.9007 52.1981 78.0358V78.0328Z" fill="white" style="mix-blend-mode:color"/>
<path d="M54.2961 79.0476C54.2961 79.0476 55.5333 83.8367 59.8903 83.8367V80.4003L54.2961 79.0476Z" fill="white" style="mix-blend-mode:color"/>
<path d="M65.485 79.0476C65.485 79.0476 64.2473 83.8367 59.8903 83.8367V80.4003L65.485 79.0476Z" fill="white" style="mix-blend-mode:color"/>
<path d="M44.7692 36.4052C44.7692 36.4052 45.6523 16.2577 25.2004 22.0823C31.6747 17.0843 39.055 14.4242 47.2817 20.5274C55.5111 26.6321 55.1875 40.4412 55.1875 40.4412L44.7692 36.4052Z" fill="white" style="mix-blend-mode:color"/>
<path d="M51.8365 26.8559C49.5037 25.7118 47.8361 26.023 45.6784 27.2826C45.0411 27.6403 44.4318 28.0558 43.7927 28.5347C43.9139 28.149 44.1225 27.7987 44.3648 27.4782C46.1777 25.0951 49.7534 24.5007 51.8347 26.8578L51.8365 26.8559Z" fill="white" style="mix-blend-mode:color"/>
<path d="M47.1258 21.2757C45.5867 21.4956 44.234 22.2372 43.3303 23.48C43.034 23.8657 42.7881 24.2942 42.5719 24.8383C42.4341 24.57 42.4005 24.2644 42.4098 23.9644C42.5403 21.7807 45.2178 20.4671 47.1258 21.2757Z" fill="white" style="mix-blend-mode:color"/>
<path d="M41.1842 18.3757C40.314 19.3465 40.0234 20.3899 39.9265 21.6756C38.3334 20.8017 39.6023 18.3142 41.1842 18.3757Z" fill="white" style="mix-blend-mode:color"/>
<path d="M59.8902 29.6616V81.1701C48.2992 81.5726 48.5952 73.4033 45.2623 64.3193C43.2673 58.8819 40.2453 52.968 40.2453 48.6524C40.2453 34.5336 48.8882 29.6616 59.8902 29.6616Z" fill="white" style="mix-blend-mode:color"/>
<path d="M43.4088 37.7154C43.4088 37.7154 36.4471 36.4988 31.2406 41.433C26.037 46.3672 25.7647 58.3993 25.7647 58.3993C25.7647 58.3993 36.5832 58.6094 41.0083 47.1486C45.4334 35.6878 43.4058 37.7154 43.4058 37.7154H43.4088Z" fill="white" style="mix-blend-mode:color"/>
<path d="M38.9597 43.07C38.9597 43.07 34.875 42.3566 31.8204 45.2514C28.7658 48.1462 28.6089 55.2086 28.6089 55.2086C28.6089 55.2086 34.6619 55.2086 37.5538 48.605C38.9716 45.3668 38.9597 43.07 38.9597 43.07Z" fill="white" style="mix-blend-mode:color"/>
<path d="M55.469 74.3888C56.2119 75.3479 55.7857 76.9225 55.7857 76.9225C55.7857 76.9225 54.1547 76.9433 53.4118 75.9842C52.6689 75.0252 52.5268 73.8916 53.0951 73.4506C53.6634 73.0095 54.726 73.4298 55.469 74.3888Z" fill="white" style="mix-blend-mode:color"/>
<path d="M76.0172 36.4033C76.0172 36.4033 75.1341 16.2559 95.586 22.0805C89.1117 17.0825 81.7314 14.4224 73.5047 20.5256C65.2753 26.6302 65.5989 40.4394 65.5989 40.4394L76.0172 36.4033Z" fill="white" style="mix-blend-mode:color"/>
<path d="M69.0033 26.856C71.3362 25.7119 73.0038 26.0231 75.1615 27.2827C75.7987 27.6404 76.408 28.056 77.0471 28.5348C76.926 28.1491 76.7173 27.7988 76.4751 27.4783C74.6621 25.0952 71.0865 24.5008 69.0052 26.8579L69.0033 26.856Z" fill="white" style="mix-blend-mode:color"/>
<path d="M73.7141 21.2758C75.2531 21.4957 76.6059 22.2373 77.5096 23.4801C77.8058 23.8658 78.0518 24.2944 78.2679 24.8384C78.4058 24.5701 78.4393 24.2645 78.43 23.9646C78.2996 21.7808 75.6221 20.4672 73.7141 21.2758Z" fill="white" style="mix-blend-mode:color"/>
<path d="M79.6557 18.3758C80.5258 19.3466 80.8165 20.39 80.9134 21.6757C82.5065 20.8018 81.2376 18.3143 79.6557 18.3758Z" fill="white" style="mix-blend-mode:color"/>
<path d="M59.8902 29.6616V81.1701C71.4813 81.5726 71.1857 73.4033 74.5186 64.3193C76.5136 58.8819 79.5356 52.968 79.5356 48.6524C79.5356 34.5336 70.8922 29.6616 59.8902 29.6616Z" fill="white" style="mix-blend-mode:color"/>
<path d="M76.3711 37.7162C76.3711 37.7162 83.3328 36.4997 88.5393 41.4339C93.7429 46.3681 94.0152 58.4002 94.0152 58.4002C94.0152 58.4002 83.1967 58.6103 78.7716 47.1495C74.3465 35.6887 76.3741 37.7162 76.3741 37.7162H76.3711Z" fill="white" style="mix-blend-mode:color"/>
<path d="M80.8202 43.0699C80.8202 43.0699 84.9049 42.3566 87.9595 45.2514C91.0142 48.1462 91.1711 55.2086 91.1711 55.2086C91.1711 55.2086 85.118 55.2086 82.2262 48.605C80.8084 45.3668 80.8202 43.0699 80.8202 43.0699Z" fill="white" style="mix-blend-mode:color"/>
<path d="M64.3124 74.3889C63.5694 75.3479 63.9956 76.9226 63.9956 76.9226C63.9956 76.9226 65.6266 76.9433 66.3695 75.9843C67.1124 75.0252 67.2545 73.8916 66.6862 73.4506C66.1179 73.0096 65.0553 73.4298 64.3124 74.3889Z" fill="white" style="mix-blend-mode:color"/>
<path d="M73 53.4999C73 54.8806 71.8807 55.9999 70.5 55.9999C69.1193 55.9999 68 54.8806 68 53.4999C68 52.1192 69.1193 50.9999 70.5 50.9999C71.8807 50.9999 73 52.1192 73 53.4999Z" fill="white" style="mix-blend-mode:color"/>
<path d="M52 53.6161C52 54.9968 50.8807 56.1161 49.5 56.1161C48.1193 56.1161 47 54.9968 47 53.6161C47 52.2354 48.1193 51.1161 49.5 51.1161C50.8807 51.1161 52 52.2354 52 53.6161Z" fill="white" style="mix-blend-mode:color"/>
<path d="M32.2697 37.7147L33.0711 40.1335L35.5081 40.929L33.0711 41.7245L32.2697 44.1433L31.4682 41.7245L29.0312 40.929L31.4682 40.1335L32.2697 37.7147Z" fill="white" style="mix-blend-mode:color"/>
<path d="M22.5563 26.9999L24.4264 32.6437L30.1127 34.4999L24.4264 36.356L22.5563 41.9999L20.6862 36.356L15 34.4999L20.6862 32.6437L22.5563 26.9999Z" fill="white" style="mix-blend-mode:color"/>
<defs>
<filter id="filter0_i_9985_447525" x="21.8945" y="10.7136" width="76.2109" height="85.43" filterUnits="userSpaceOnUse" color-interpolation-filters="sRGB">
<feFlood flood-opacity="0" result="BackgroundImageFix"/>
<feBlend mode="normal" in="SourceGraphic" in2="BackgroundImageFix" result="shape"/>
<feColorMatrix in="SourceAlpha" type="matrix" values="0 0 0 0 0 0 0 0 0 0 0 0 0 0 0 0 0 0 127 0" result="hardAlpha"/>
<feOffset dy="-1.14286"/>
<feGaussianBlur stdDeviation="0.571429"/>
<feComposite in2="hardAlpha" operator="arithmetic" k2="-1" k3="1"/>
<feColorMatrix type="matrix" values="0 0 0 0 0.616667 0 0 0 0 0.407 0 0 0 0 0 0 0 0 0.25 0"/>
<feBlend mode="normal" in2="shape" result="effect1_innerShadow_9985_447525"/>
</filter>
<filter id="filter1_ii_9985_447525" x="27.0908" y="16.5588" width="65.8184" height="74.8824" filterUnits="userSpaceOnUse" color-interpolation-filters="sRGB">
<feFlood flood-opacity="0" result="BackgroundImageFix"/>
<feBlend mode="normal" in="SourceGraphic" in2="BackgroundImageFix" result="shape"/>
<feColorMatrix in="SourceAlpha" type="matrix" values="0 0 0 0 0 0 0 0 0 0 0 0 0 0 0 0 0 0 127 0" result="hardAlpha"/>
<feOffset dy="1.14286"/>
<feGaussianBlur stdDeviation="1.14286"/>
<feComposite in2="hardAlpha" operator="arithmetic" k2="-1" k3="1"/>
<feColorMatrix type="matrix" values="0 0 0 0 0.7 0 0 0 0 0.465967 0 0 0 0 0.0116667 0 0 0 1 0"/>
<feBlend mode="normal" in2="shape" result="effect1_innerShadow_9985_447525"/>
<feColorMatrix in="SourceAlpha" type="matrix" values="0 0 0 0 0 0 0 0 0 0 0 0 0 0 0 0 0 0 127 0" result="hardAlpha"/>
<feOffset dy="-1.14286"/>
<feGaussianBlur stdDeviation="0.571429"/>
<feComposite in2="hardAlpha" operator="arithmetic" k2="-1" k3="1"/>
<feColorMatrix type="matrix" values="0 0 0 0 1 0 0 0 0 0.72 0 0 0 0 0 0 0 0 1 0"/>
<feBlend mode="normal" in2="effect1_innerShadow_9985_447525" result="effect2_innerShadow_9985_447525"/>
</filter>
<filter id="filter2_d_9985_447525" x="21.6478" y="14.3332" width="77.4867" height="87.0575" filterUnits="userSpaceOnUse" color-interpolation-filters="sRGB">
<feFlood flood-opacity="0" result="BackgroundImageFix"/>
<feColorMatrix in="SourceAlpha" type="matrix" values="0 0 0 0 0 0 0 0 0 0 0 0 0 0 0 0 0 0 127 0" result="hardAlpha"/>
<feOffset dy="0.88762"/>
<feGaussianBlur stdDeviation="1.77524"/>
<feColorMatrix type="matrix" values="0 0 0 0 0.417188 0 0 0 0 0.160564 0 0 0 0 0.00450867 0 0 0 1 0"/>
<feBlend mode="normal" in2="BackgroundImageFix" result="effect1_dropShadow_9985_447525"/>
<feBlend mode="normal" in="SourceGraphic" in2="effect1_dropShadow_9985_447525" result="shape"/>
</filter>
<linearGradient id="paint0_linear_9985_447525" x1="30.999" y1="89.9995" x2="53.999" y2="102.5" gradientUnits="userSpaceOnUse">
<stop offset="0.484531" stop-color="#FFC700"/>
<stop offset="0.484631" stop-color="#FFE590"/>
</linearGradient>
<linearGradient id="paint1_linear_9985_447525" x1="30.999" y1="89.9995" x2="53.999" y2="102.5" gradientUnits="userSpaceOnUse">
<stop offset="0.484531" stop-color="#FFC700"/>
<stop offset="0.484631" stop-color="#FFE590"/>
</linearGradient>
<linearGradient id="paint2_linear_9985_447525" x1="77.0106" y1="85.0327" x2="68.9049" y2="89.7125" gradientUnits="userSpaceOnUse">
<stop offset="0.484631" stop-color="#FFE590"/>
<stop offset="0.488859" stop-color="#FFC700"/>
</linearGradient>
<linearGradient id="paint3_linear_9985_447525" x1="27.9487" y1="16.8205" x2="94.6154" y2="91.1795" gradientUnits="userSpaceOnUse">
<stop stop-color="#FFECA9"/>
<stop offset="0.237301" stop-color="#FFD600"/>
<stop offset="1" stop-color="#FF9900"/>
</linearGradient>
<linearGradient id="paint4_linear_9985_447525" x1="60" y1="4" x2="60" y2="104" gradientUnits="userSpaceOnUse">
<stop stop-color="white" stop-opacity="0.5"/>
<stop offset="1" stop-color="white" stop-opacity="0"/>
</linearGradient>
<linearGradient id="paint5_linear_9985_447525" x1="31.8889" y1="20.3889" x2="88.1111" y2="88.2222" gradientUnits="userSpaceOnUse">
<stop stop-color="#FFC700"/>
<stop offset="1" stop-color="#D58500"/>
</linearGradient>
<linearGradient id="paint6_linear_9985_447525" x1="34.8529" y1="22.7059" x2="66.1471" y2="92" gradientUnits="userSpaceOnUse">
<stop stop-color="#FFB13C"/>
<stop offset="0.484375" stop-color="#B45F1D"/>
<stop offset="1" stop-color="#743110"/>
</linearGradient>
<linearGradient id="paint7_linear_9985_447525" x1="59.998" y1="85.5" x2="59.7806" y2="98.9965" gradientUnits="userSpaceOnUse">
<stop stop-color="#FFAB48"/>
<stop offset="1" stop-color="#EA6A20"/>
</linearGradient>
<linearGradient id="paint8_linear_9985_447525" x1="39.4971" y1="25.5005" x2="51.4393" y2="24.0312" gradientUnits="userSpaceOnUse">
<stop stop-color="#DC7F11"/>
<stop offset="1" stop-color="#A3592F"/>
</linearGradient>
<linearGradient id="paint9_linear_9985_447525" x1="59.8881" y1="48.0405" x2="42.375" y2="48.6891" gradientUnits="userSpaceOnUse">
<stop stop-color="#FFE587"/>
<stop offset="1" stop-color="#FFC548"/>
</linearGradient>
<linearGradient id="paint10_linear_9985_447525" x1="40.2645" y1="43.6811" x2="24.1673" y2="46.0438" gradientUnits="userSpaceOnUse">
<stop stop-color="#E99921"/>
<stop offset="1" stop-color="#FDB542"/>
</linearGradient>
<linearGradient id="paint11_linear_9985_447525" x1="52.8603" y1="73.4335" x2="56.2501" y2="76.3175" gradientUnits="userSpaceOnUse">
<stop stop-color="#B75C28"/>
<stop offset="1" stop-color="#924111"/>
</linearGradient>
<linearGradient id="paint12_linear_9985_447525" x1="71.498" y1="21.001" x2="85.3107" y2="28.9582" gradientUnits="userSpaceOnUse">
<stop stop-color="#DC7F11"/>
<stop offset="1" stop-color="#A3592F"/>
</linearGradient>
<linearGradient id="paint13_linear_9985_447525" x1="59.8887" y1="51.3949" x2="79.8453" y2="51.3949" gradientUnits="userSpaceOnUse">
<stop stop-color="#F4A431"/>
<stop offset="1" stop-color="#FFCE6A"/>
</linearGradient>
<linearGradient id="paint14_linear_9985_447525" x1="84.9605" y1="44.7062" x2="76.9348" y2="53.366" gradientUnits="userSpaceOnUse">
<stop stop-color="#E88B48"/>
<stop offset="1" stop-color="#F0A948"/>
</linearGradient>
<linearGradient id="paint15_linear_9985_447525" x1="66.3403" y1="73.4329" x2="64.9546" y2="77.1421" gradientUnits="userSpaceOnUse">
<stop stop-color="#B75C28"/>
<stop offset="1" stop-color="#924111"/>
</linearGradient>
</defs>
</svg>
