<svg width="120" height="121" viewBox="0 0 120 121" fill="none" xmlns="http://www.w3.org/2000/svg">
<path d="M41.999 70.9995L53.2574 77.4995L40.2574 100.016L22.999 103.908L41.999 70.9995Z" fill="url(#paint0_linear_9985_449388)"/>
<path d="M64.5157 83.9995L53.2574 77.4995L40.2574 100.016L45.5157 116.908L64.5157 83.9995Z" fill="url(#paint1_linear_9985_449388)"/>
<path fill-rule="evenodd" clip-rule="evenodd" d="M67.2573 77.5L78.5156 71L97.5156 103.909L80.2583 100.017L75 116.909L56 84L67.2576 77.5004L67.2573 77.5Z" fill="url(#paint2_linear_9985_449388)"/>
<path d="M52.1429 8.86624C57.0049 6.05915 62.9951 6.05915 67.8571 8.86624L95.1584 24.6286C100.02 27.4357 103.016 32.6234 103.016 38.2376V69.7624C103.016 75.3766 100.02 80.5643 95.1584 83.3714L67.8571 99.1338C62.9951 101.941 57.0049 101.941 52.1429 99.1338L24.8416 83.3714C19.9796 80.5643 16.9844 75.3766 16.9844 69.7624V38.2376C16.9844 32.6234 19.9796 27.4357 24.8416 24.6286L52.1429 8.86624Z" fill="url(#paint3_linear_9985_449388)" stroke="url(#paint4_linear_9985_449388)" stroke-width="0.571429"/>
<g filter="url(#filter0_i_9985_449388)">
<path d="M54 13.4641C57.7128 11.3205 62.2872 11.3205 66 13.4641L92.1051 28.5359C95.8179 30.6795 98.1051 34.641 98.1051 38.9282V69.0718C98.1051 73.359 95.8179 77.3205 92.1051 79.4641L66 94.5359C62.2872 96.6795 57.7128 96.6795 54 94.5359L27.8949 79.4641C24.1821 77.3205 21.8949 73.359 21.8949 69.0718V38.9282C21.8949 34.641 24.1821 30.6795 27.8949 28.5359L54 13.4641Z" fill="url(#paint5_linear_9985_449388)"/>
</g>
<g filter="url(#filter1_ii_9985_449388)">
<path d="M54.5 19.1754C57.9034 17.2105 62.0966 17.2105 65.5 19.1754L87.409 31.8246C90.8124 33.7895 92.909 37.4209 92.909 41.3509V66.6491C92.909 70.5791 90.8124 74.2105 87.409 76.1754L65.5 88.8246C62.0966 90.7895 57.9034 90.7895 54.5 88.8246L32.591 76.1754C29.1876 74.2105 27.091 70.5791 27.091 66.6491V41.3509C27.091 37.4209 29.1876 33.7895 32.591 31.8246L54.5 19.1754Z" fill="url(#paint6_linear_9985_449388)"/>
</g>
<g filter="url(#filter2_d_9985_449388)">
<path d="M53.9219 70.6927C47.1517 69.5332 39.9456 70.1935 33.6114 72.9199C33.1849 73.1252 32.1076 73.6528 31.6748 73.8613C32.1108 73.6307 33.166 73.0747 33.583 72.8536C38.1575 70.6863 43.2217 69.6722 48.2701 69.5933C50.2035 69.568 52.1243 69.6628 54.0672 69.9534L53.925 70.6895L53.9219 70.6927Z" fill="#F79F48"/>
<path d="M53.5581 71.6249C46.69 71.5586 39.6797 73.3593 33.8605 77.0619C33.4719 77.3305 32.4926 78.0255 32.0977 78.3003C32.4926 78.0034 33.4435 77.2862 33.8226 77.0019C37.9927 74.1333 42.8326 72.3231 47.802 71.4417C49.707 71.11 51.6183 70.8952 53.5834 70.873L53.5581 71.6249Z" fill="#F79F48"/>
<path d="M55.8691 72.7243C49.8508 73.4415 43.9115 75.8172 39.2359 79.7156C38.9263 79.9968 38.1492 80.7139 37.8301 81.0014C38.1397 80.695 38.8916 79.9557 39.1885 79.6619C42.5057 76.6638 46.5369 74.5061 50.7891 73.1508C52.4224 72.6359 54.0715 72.2252 55.7933 71.9756L55.866 72.7243H55.8691Z" fill="#F79F48"/>
<path d="M64.9023 69.9562C72.0263 68.9863 79.5895 69.9151 86.0247 73.1912L87.2979 73.861L86.0058 73.2323C81.2639 70.9703 75.9311 70.0826 70.7026 70.1552C68.8039 70.19 66.8863 70.3511 65.0477 70.6891L64.9055 69.9531L64.9023 69.9562Z" fill="#F79F48"/>
<path d="M65.3848 70.8728C72.5719 71.0497 79.8918 73.1727 85.7205 77.4344L86.8705 78.3001L85.6953 77.4724C81.3766 74.4838 76.2493 72.7557 71.0776 71.9943C69.1979 71.7258 67.2803 71.5805 65.41 71.6215L65.3848 70.8696V70.8728Z" fill="#F79F48"/>
<path d="M63.1705 71.9753C69.4447 72.9705 75.6209 75.6937 80.2271 80.1071L81.1306 80.998C80.8083 80.7042 80.0344 79.9934 79.7248 79.7122C79.4088 79.4468 78.5685 78.8024 78.2336 78.5338C77.8798 78.2937 77.0047 77.6935 76.6635 77.4629C73.9782 75.8011 71.0527 74.5311 68.0104 73.6876C66.3961 73.2422 64.7312 72.8947 63.0947 72.7209L63.1674 71.9722L63.1705 71.9753Z" fill="#F79F48"/>
<path d="M67.6806 78.6794C67.1467 82.5431 63.8327 85.5159 59.8237 85.5159C55.8147 85.5159 52.5007 82.5431 51.9668 78.6794C53.796 80.4707 57.527 80.3254 59.8237 78.1992C61.8646 79.8262 65.8578 80.4707 67.6806 78.6794Z" fill="#F79F48"/>
<path d="M47.0588 75.7974C47.0588 75.7974 46.9009 79.8317 48.8122 81.8504C49.1565 80.0212 50.0727 77.4717 50.0727 77.4717L47.062 75.7974H47.0588Z" fill="#FFF5A9"/>
<path d="M59.4782 21.7788C59.4782 21.7788 49.8932 21.8262 46.9741 23.7786C44.055 25.7278 32.884 37.6001 29.0014 47.3051C25.1156 57.0134 32.5365 69.0562 44.2382 67.9789C44.2382 67.9789 41.5181 73.9593 48.4147 77.1596C55.2322 80.3251 59.4782 75.2388 59.4782 75.2388" fill="#7C5B5B"/>
<path d="M59.4782 21.7788C59.4782 21.7788 49.8932 21.8262 46.9741 23.7786C44.055 25.7278 32.884 37.6001 29.0014 47.3051C25.1156 57.0134 32.5365 69.0562 44.2382 67.9789C44.2382 67.9789 41.5181 73.9593 48.4147 77.1596C55.2322 80.3251 59.4782 75.2388 59.4782 75.2388" fill="url(#paint7_linear_9985_449388)"/>
<path d="M54.0576 61.6982C54.0576 61.6982 55.6309 51.6773 59.4756 49.2573V59.9765L54.0576 61.6951V61.6982Z" fill="#FCA658"/>
<path d="M54.4267 72.437C54.4267 71.8842 53.9782 71.4355 53.4253 71.4355C52.8724 71.4355 52.4238 71.8842 52.4238 72.437C52.4238 72.9899 52.8724 73.4385 53.4253 73.4385C53.9782 73.4385 54.4267 72.9899 54.4267 72.437Z" fill="#FFF5A9"/>
<path d="M50.3214 69.8736C50.3214 69.4471 49.9739 69.0996 49.5474 69.0996C49.121 69.0996 48.7734 69.4471 48.7734 69.8736C48.7734 70.3001 49.121 70.6476 49.5474 70.6476C49.9739 70.6476 50.3214 70.3001 50.3214 69.8736Z" fill="#FFF5A9"/>
<path d="M54.2647 67.8111C54.2647 67.2898 53.8445 66.8696 53.3233 66.8696C52.802 66.8696 52.3818 67.2898 52.3818 67.8111C52.3818 68.3323 52.802 68.7525 53.3233 68.7525C53.8445 68.7525 54.2647 68.3323 54.2647 67.8111Z" fill="#FFF5A9"/>
<path d="M47.4001 23.9363C47.4001 23.9363 44.2472 22.2398 42.0642 20.4802C39.8812 18.7205 35.2751 18.5025 33.3448 21.2826C31.4145 24.0627 35.8027 30.5675 41.9505 29.7745C48.0983 28.9816 47.4001 23.9363 47.4001 23.9363Z" fill="#382323"/>
<path d="M47.4001 23.9363C47.4001 23.9363 44.2472 22.2398 42.0642 20.4802C39.8812 18.7205 35.2751 18.5025 33.3448 21.2826C31.4145 24.0627 35.8027 30.5675 41.9505 29.7745C48.0983 28.9816 47.4001 23.9363 47.4001 23.9363Z" fill="url(#paint8_linear_9985_449388)"/>
<path d="M71.9023 75.7974C71.9023 75.7974 72.0603 79.8317 70.149 81.8504C69.8046 80.0212 68.8916 77.4717 68.8916 77.4717L71.9023 75.7974Z" fill="#FFF5A9"/>
<path d="M59.4814 21.7788C59.4814 21.7788 69.0665 21.8262 71.9856 23.7786C74.9047 25.7278 86.0756 37.6001 89.9583 47.3051C93.8441 57.0134 86.4231 69.0562 74.7214 67.9789C74.7214 67.9789 77.4415 73.9593 70.545 77.1596C63.7274 80.3251 59.4814 75.2388 59.4814 75.2388" fill="#634444"/>
<path d="M59.4814 21.7788C59.4814 21.7788 69.0665 21.8262 71.9856 23.7786C74.9047 25.7278 86.0756 37.6001 89.9583 47.3051C93.8441 57.0134 86.4231 69.0562 74.7214 67.9789C74.7214 67.9789 77.4415 73.9593 70.545 77.1596C63.7274 80.3251 59.4814 75.2388 59.4814 75.2388" fill="url(#paint9_linear_9985_449388)"/>
<path d="M64.8995 61.6982C64.8995 61.6982 63.3262 51.6773 59.4814 49.2573V59.9765L64.8995 61.6951V61.6982Z" fill="#DB8129"/>
<path d="M64.5332 72.437C64.5332 71.8842 64.9818 71.4355 65.5347 71.4355C66.0875 71.4355 66.5362 71.8842 66.5362 72.437C66.5362 72.9899 66.0875 73.4385 65.5347 73.4385C64.9818 73.4385 64.5332 72.9899 64.5332 72.437Z" fill="#FFF5A9"/>
<path d="M68.6348 69.8736C68.6348 69.4471 68.9823 69.0996 69.4088 69.0996C69.8352 69.0996 70.1827 69.4471 70.1827 69.8736C70.1827 70.3001 69.8352 70.6476 69.4088 70.6476C68.9823 70.6476 68.6348 70.3001 68.6348 69.8736Z" fill="#FFF5A9"/>
<path d="M64.6934 67.8111C64.6934 67.2898 65.1135 66.8696 65.6348 66.8696C66.1561 66.8696 66.5763 67.2898 66.5763 67.8111C66.5763 68.3323 66.1561 68.7525 65.6348 68.7525C65.1135 68.7525 64.6934 68.3323 64.6934 67.8111Z" fill="#FFF5A9"/>
<path d="M64.006 60.4762C62.4612 59.2915 60.2086 59.5821 59.482 59.7148C58.7554 59.579 56.5029 59.2883 54.9581 60.4762C53.0941 61.9073 54.0071 64.4568 56.1333 65.335C58.2594 66.2101 59.482 68.1372 59.482 68.1372C59.482 68.1372 60.7015 66.2133 62.8308 65.335C64.9569 64.4599 65.8731 61.9073 64.006 60.4762Z" fill="#382323"/>
<path d="M64.006 60.4762C62.4612 59.2915 60.2086 59.5821 59.482 59.7148C58.7554 59.579 56.5029 59.2883 54.9581 60.4762C53.0941 61.9073 54.0071 64.4568 56.1333 65.335C58.2594 66.2101 59.482 68.1372 59.482 68.1372C59.482 68.1372 60.7015 66.2133 62.8308 65.335C64.9569 64.4599 65.8731 61.9073 64.006 60.4762Z" fill="url(#paint10_linear_9985_449388)"/>
<path d="M59.4823 26.5847C59.4823 26.5847 57.353 24.8692 55.4922 26.5847C56.5126 26.3857 58.6609 26.2877 59.4823 27.4756C60.3036 26.2846 62.4487 26.3857 63.4723 26.5847C61.6116 24.8692 59.4823 26.5847 59.4823 26.5847Z" fill="#70320E"/>
<path d="M53.168 31.0474C56.1123 28.3304 59.48 31.0474 59.48 31.0474C59.48 31.0474 62.8509 28.3304 65.7922 31.0474C64.1746 30.7314 60.7785 30.5735 59.48 32.4564C58.1816 30.5766 54.7823 30.7346 53.168 31.0474Z" fill="#70320E"/>
<path d="M32.9632 49.4209C32.9632 49.4209 32.0439 64.484 44.9334 64.127C34.2143 66.4395 31.7943 57.0978 32.9632 49.4209Z" fill="#70320E"/>
<path d="M37.9492 51.2002C37.9492 51.2002 38.8117 61.0948 47.3226 61.6319C40.8146 62.2258 38.5274 59.1709 37.9492 51.2002Z" fill="#70320E"/>
<path d="M44.0369 54.4893C44.0369 54.4893 44.9531 58.1255 48.9179 58.4572C45.3733 60.4128 43.7463 56.4511 44.0369 54.4893Z" fill="#70320E"/>
<path d="M86.0015 49.4209C86.0015 49.4209 87.3568 64.484 74.0312 64.127C84.7504 66.4395 87.1704 57.0978 86.0015 49.4209Z" fill="#70320E"/>
<path d="M81.01 51.2002C81.01 51.2002 80.1476 61.1769 71.6367 61.6319C78.1447 62.2258 80.4319 59.1709 81.01 51.2002Z" fill="#70320E"/>
<path d="M74.92 54.4893C74.92 54.4893 74.0039 58.1255 70.0391 58.4572C73.5837 60.4128 75.2107 56.4511 74.92 54.4893Z" fill="#70320E"/>
<path d="M50.3555 36.5978C54.6077 32.6709 59.4792 36.5978 59.4792 36.5978C59.4792 36.5978 64.3476 32.6709 68.603 36.5978C66.2684 36.1461 61.3558 35.9154 59.4792 38.6387C57.6027 35.9154 52.6901 36.1461 50.3555 36.5978Z" fill="#70320E"/>
<path d="M71.5591 23.9363C71.5591 23.9363 74.7119 22.2398 76.8949 20.4802C79.0779 18.7205 83.6841 18.5025 85.6143 21.2826C87.5446 24.0627 83.1565 30.5675 77.0087 29.7745C70.8609 28.9816 71.5591 23.9363 71.5591 23.9363Z" fill="#382323"/>
<path d="M71.5591 23.9363C71.5591 23.9363 74.7119 22.2398 76.8949 20.4802C79.0779 18.7205 83.6841 18.5025 85.6143 21.2826C87.5446 24.0627 83.1565 30.5675 77.0087 29.7745C70.8609 28.9816 71.5591 23.9363 71.5591 23.9363Z" fill="url(#paint11_linear_9985_449388)"/>
<path d="M77.3679 28.4634C77.3679 28.4634 76.06 26.8237 74.9922 26.1287C77.3079 25.4969 80.208 23.1054 81.8098 23.9173C83.4115 24.7324 81.1653 28.1474 77.3679 28.4634Z" fill="#FFB65E"/>
<path d="M41.5908 28.4634C41.5908 28.4634 42.8987 26.8237 43.9665 26.1287C41.6508 25.4969 38.7506 23.1054 37.1489 23.9173C35.5472 24.7324 37.7934 28.1474 41.5908 28.4634Z" fill="#FFB65E"/>
<path d="M59.8203 78.1992V85.5159C63.8293 85.5159 67.1433 82.5431 67.6772 78.6794C65.8544 80.4707 61.8612 79.823 59.8203 78.1992Z" fill="#DD6F37"/>
<circle cx="72.3789" cy="47.5" r="2.5" fill="#70320E"/>
<circle cx="47.3789" cy="47.6162" r="2.5" fill="#70320E"/>
</g>
<path d="M32.2697 37.7148L33.0711 40.1336L35.5081 40.9291L33.0711 41.7246L32.2697 44.1434L31.4682 41.7246L29.0312 40.9291L31.4682 40.1336L32.2697 37.7148Z" fill="white"/>
<path d="M22.5563 27L24.4264 32.6438L30.1127 34.5L24.4264 36.3562L22.5563 42L20.6862 36.3562L15 34.5L20.6862 32.6438L22.5563 27Z" fill="white"/>
<defs>
<filter id="filter0_i_9985_449388" x="21.8945" y="10.7136" width="76.2109" height="85.43" filterUnits="userSpaceOnUse" color-interpolation-filters="sRGB">
<feFlood flood-opacity="0" result="BackgroundImageFix"/>
<feBlend mode="normal" in="SourceGraphic" in2="BackgroundImageFix" result="shape"/>
<feColorMatrix in="SourceAlpha" type="matrix" values="0 0 0 0 0 0 0 0 0 0 0 0 0 0 0 0 0 0 127 0" result="hardAlpha"/>
<feOffset dy="-1.14286"/>
<feGaussianBlur stdDeviation="0.571429"/>
<feComposite in2="hardAlpha" operator="arithmetic" k2="-1" k3="1"/>
<feColorMatrix type="matrix" values="0 0 0 0 0.616667 0 0 0 0 0.407 0 0 0 0 0 0 0 0 0.25 0"/>
<feBlend mode="normal" in2="shape" result="effect1_innerShadow_9985_449388"/>
</filter>
<filter id="filter1_ii_9985_449388" x="27.0908" y="16.5588" width="65.8184" height="74.8824" filterUnits="userSpaceOnUse" color-interpolation-filters="sRGB">
<feFlood flood-opacity="0" result="BackgroundImageFix"/>
<feBlend mode="normal" in="SourceGraphic" in2="BackgroundImageFix" result="shape"/>
<feColorMatrix in="SourceAlpha" type="matrix" values="0 0 0 0 0 0 0 0 0 0 0 0 0 0 0 0 0 0 127 0" result="hardAlpha"/>
<feOffset dy="1.14286"/>
<feGaussianBlur stdDeviation="1.14286"/>
<feComposite in2="hardAlpha" operator="arithmetic" k2="-1" k3="1"/>
<feColorMatrix type="matrix" values="0 0 0 0 0.7 0 0 0 0 0.465967 0 0 0 0 0.0116667 0 0 0 1 0"/>
<feBlend mode="normal" in2="shape" result="effect1_innerShadow_9985_449388"/>
<feColorMatrix in="SourceAlpha" type="matrix" values="0 0 0 0 0 0 0 0 0 0 0 0 0 0 0 0 0 0 127 0" result="hardAlpha"/>
<feOffset dy="-1.14286"/>
<feGaussianBlur stdDeviation="0.571429"/>
<feComposite in2="hardAlpha" operator="arithmetic" k2="-1" k3="1"/>
<feColorMatrix type="matrix" values="0 0 0 0 1 0 0 0 0 0.72 0 0 0 0 0 0 0 0 1 0"/>
<feBlend mode="normal" in2="effect1_innerShadow_9985_449388" result="effect2_innerShadow_9985_449388"/>
</filter>
<filter id="filter2_d_9985_449388" x="24.4105" y="16.509" width="70.139" height="73.4452" filterUnits="userSpaceOnUse" color-interpolation-filters="sRGB">
<feFlood flood-opacity="0" result="BackgroundImageFix"/>
<feColorMatrix in="SourceAlpha" type="matrix" values="0 0 0 0 0 0 0 0 0 0 0 0 0 0 0 0 0 0 127 0" result="hardAlpha"/>
<feOffset dy="0.88762"/>
<feGaussianBlur stdDeviation="1.77524"/>
<feColorMatrix type="matrix" values="0 0 0 0 0.417188 0 0 0 0 0.160564 0 0 0 0 0.00450867 0 0 0 1 0"/>
<feBlend mode="normal" in2="BackgroundImageFix" result="effect1_dropShadow_9985_449388"/>
<feBlend mode="normal" in="SourceGraphic" in2="effect1_dropShadow_9985_449388" result="shape"/>
</filter>
<linearGradient id="paint0_linear_9985_449388" x1="30.999" y1="89.9995" x2="53.999" y2="102.5" gradientUnits="userSpaceOnUse">
<stop offset="0.484531" stop-color="#FFC700"/>
<stop offset="0.484631" stop-color="#FFE590"/>
</linearGradient>
<linearGradient id="paint1_linear_9985_449388" x1="30.999" y1="89.9995" x2="53.999" y2="102.5" gradientUnits="userSpaceOnUse">
<stop offset="0.484531" stop-color="#FFC700"/>
<stop offset="0.484631" stop-color="#FFE590"/>
</linearGradient>
<linearGradient id="paint2_linear_9985_449388" x1="77.0106" y1="85.0327" x2="68.9049" y2="89.7125" gradientUnits="userSpaceOnUse">
<stop offset="0.484631" stop-color="#FFE590"/>
<stop offset="0.488859" stop-color="#FFC700"/>
</linearGradient>
<linearGradient id="paint3_linear_9985_449388" x1="27.9487" y1="16.8205" x2="94.6154" y2="91.1795" gradientUnits="userSpaceOnUse">
<stop stop-color="#FFECA9"/>
<stop offset="0.237301" stop-color="#FFD600"/>
<stop offset="1" stop-color="#FF9900"/>
</linearGradient>
<linearGradient id="paint4_linear_9985_449388" x1="60" y1="4" x2="60" y2="104" gradientUnits="userSpaceOnUse">
<stop stop-color="white" stop-opacity="0.5"/>
<stop offset="1" stop-color="white" stop-opacity="0"/>
</linearGradient>
<linearGradient id="paint5_linear_9985_449388" x1="31.8889" y1="20.3889" x2="88.1111" y2="88.2222" gradientUnits="userSpaceOnUse">
<stop stop-color="#FFC700"/>
<stop offset="1" stop-color="#D58500"/>
</linearGradient>
<linearGradient id="paint6_linear_9985_449388" x1="34.8529" y1="22.7059" x2="66.1471" y2="92" gradientUnits="userSpaceOnUse">
<stop stop-color="#FFB13C"/>
<stop offset="0.484375" stop-color="#B45F1D"/>
<stop offset="1" stop-color="#743110"/>
</linearGradient>
<linearGradient id="paint7_linear_9985_449388" x1="59.4781" y1="41.9035" x2="31.4252" y2="43.4257" gradientUnits="userSpaceOnUse">
<stop stop-color="#FFE587"/>
<stop offset="1" stop-color="#FFC548"/>
</linearGradient>
<linearGradient id="paint8_linear_9985_449388" x1="34.1475" y1="28.6794" x2="45.8729" y2="28.3281" gradientUnits="userSpaceOnUse">
<stop stop-color="#DC7F11"/>
<stop offset="1" stop-color="#A3592F"/>
</linearGradient>
<linearGradient id="paint9_linear_9985_449388" x1="59.4814" y1="45.5767" x2="91.4988" y2="45.5767" gradientUnits="userSpaceOnUse">
<stop stop-color="#F4A431"/>
<stop offset="1" stop-color="#FFCE6A"/>
</linearGradient>
<linearGradient id="paint10_linear_9985_449388" x1="62.5912" y1="59.9504" x2="60.2558" y2="69.2806" gradientUnits="userSpaceOnUse">
<stop stop-color="#B75C28"/>
<stop offset="1" stop-color="#924111"/>
</linearGradient>
<linearGradient id="paint11_linear_9985_449388" x1="72.7979" y1="28.6794" x2="84.5233" y2="28.3281" gradientUnits="userSpaceOnUse">
<stop stop-color="#DC7F11"/>
<stop offset="1" stop-color="#A3592F"/>
</linearGradient>
</defs>
</svg>
