<?xml version="1.0" standalone="no"?><!DOCTYPE svg PUBLIC "-//W3C//DTD SVG 1.1//EN" "http://www.w3.org/Graphics/SVG/1.1/DTD/svg11.dtd"><svg class="icon" width="200px" height="200.00px" viewBox="0 0 1024 1024" version="1.1" xmlns="http://www.w3.org/2000/svg"><path d="M72.851741 608.286567q70.304478-15.283582 140.099502 3.566169t124.81592 71.832836q26.491542 26.491542 44.831841 59.60597t28.0199 68.776119 10.189055 72.342289-6.622886 70.304478q-69.285572 15.283582-139.59005-8.151244t-124.306468-77.436816q-55.020896-52.983085-73.870647-122.778109t-3.566169-138.061692zM886.957214 608.286567q15.283582 68.266667-3.566169 138.061692t-72.851741 122.778109q-26.491542 26.491542-62.153234 44.322388t-75.399005 28.529353-82.021891 14.264677-83.040796 1.528358l-59.096517 0 0-383.108458q-59.096517-6.113433-110.041791-32.604975-39.737313-20.378109-72.851741-50.945274t-56.549254-68.266667-36.680597-81.512438-13.245771-91.701493q0-64.191045 25.472637-124.306468 48.907463 12.226866 90.173134 37.19005t73.870647 60.624876q9.170149-69.285572 45.341294-126.853731t91.19204-96.286567q57.058706 38.718408 93.229851 97.814925t44.322388 129.400995q32.604975-35.661692 74.3801-61.643781t90.682587-38.208955q23.434826 58.077612 23.434826 122.268657 0 46.869652-12.736318 90.682587t-36.680597 81.512438-56.549254 68.266667-72.342289 50.945274l0 1.018905q-28.529353 14.264677-58.587065 22.925373t-62.662687 10.698507l0 274.085572q12.226866-41.775124 37.699502-79.98408t59.096517-70.81393q26.491542-26.491542 60.624876-46.869652t70.81393-32.604975 74.3801-15.283582 72.342289 4.075622z" /></svg>