<svg width="46" height="35" viewBox="0 0 46 35" fill="none" xmlns="http://www.w3.org/2000/svg">
<path d="M44.6204 6.05984H44.6004C43.5905 4.16984 41.0704 2.72984 38.7104 3.27984C38.5405 3.31984 38.3904 3.37984 38.2304 3.43984C38.4204 1.54984 38.4104 0.589844 38.4104 0.589844H7.18045C7.18045 0.589844 7.17045 1.53984 7.36045 3.41984C7.22045 3.36984 7.09045 3.30984 6.94045 3.27984C4.58045 2.72984 2.06045 4.16984 1.05045 6.06984C0.470451 7.16984 -0.21955 9.51984 2.86045 12.3998C3.45045 12.9398 4.45045 13.5298 5.72045 14.2698C8.08045 15.6498 11.6504 17.7398 11.9104 19.6498C11.9904 20.2198 11.7404 20.7998 11.1404 21.4098C10.7904 21.7598 10.2304 21.6898 9.82045 21.4598C9.57045 21.3198 8.87045 20.8198 8.90045 19.6898C8.91045 19.2398 8.65045 18.8398 8.22045 18.7198L8.06045 18.6798C7.49045 18.5298 6.93045 18.9598 6.91045 19.5498C6.84045 21.3698 7.83045 22.6298 8.84045 23.1998C9.38045 23.4998 9.96045 23.6498 10.5205 23.6498C11.3005 23.6498 12.2004 23.4398 12.7505 22.8798C13.3705 22.2398 13.7105 21.5498 13.8605 20.8298C15.0505 21.7998 16.3905 22.6098 17.8505 23.2598C18.8904 23.7198 19.9304 24.0098 20.7804 24.1898C19.3004 32.3798 14.9004 34.8498 14.9004 34.8498H30.7104C30.7104 34.8498 26.3105 32.3898 24.8305 24.1898C25.6805 24.0098 26.7204 23.7198 27.7604 23.2598C29.2404 22.5998 30.6004 21.7798 31.8004 20.7898C31.9404 21.5198 32.2804 22.2298 32.9204 22.8698C33.4704 23.4298 34.3705 23.6398 35.1505 23.6398C35.7105 23.6398 36.2905 23.4898 36.8305 23.1898C37.8405 22.6198 38.8405 21.3698 38.7604 19.5398C38.7404 18.9498 38.1805 18.5198 37.6105 18.6698L37.4505 18.7098C37.0205 18.8198 36.7605 19.2298 36.7705 19.6798C36.8004 20.8098 36.1004 21.3098 35.8504 21.4498C35.4404 21.6798 34.8704 21.7598 34.5304 21.3998C33.9404 20.7898 33.6804 20.2198 33.7604 19.6398C34.0204 17.7298 37.5905 15.6398 39.9505 14.2598C41.2205 13.5198 42.2205 12.9298 42.8105 12.3898C45.9005 9.50984 45.2104 7.15984 44.6204 6.05984ZM6.75045 12.5498H6.73045C5.66045 11.9198 4.65045 11.3298 4.23045 10.9398C3.33045 10.0998 2.09045 8.38984 2.82045 7.01984C3.41045 5.90984 5.01045 4.89984 6.50045 5.23984C7.00045 5.35984 7.40045 5.65984 7.70045 6.05984C7.81045 6.81984 7.95045 7.64984 8.12045 8.55984C7.96045 8.92984 7.71045 9.23984 7.46045 9.44984C7.08045 9.77984 6.97045 10.3098 7.18045 10.7698C7.43045 11.3198 8.13045 11.4698 8.60045 11.0998L8.62045 11.0798C8.76045 11.7698 8.92045 12.4698 9.10045 13.2298C9.18045 13.5498 9.28045 13.8498 9.38045 14.1498C8.51045 13.5798 7.60045 13.0498 6.75045 12.5498ZM18.6905 15.5998C18.2205 15.5998 17.8405 15.2198 17.8405 14.7498V10.1798H22.2804V15.5998H18.6905ZM27.8504 14.7498C27.8504 15.2198 27.4704 15.5998 27.0005 15.5998H23.4104V10.1798H27.8504V14.7498ZM27.8405 9.04984H23.4005V6.52984H22.2705V9.04984H17.8305C17.2904 9.04984 16.8405 8.60984 16.8405 8.05984V6.15984C16.8405 5.60984 17.2805 5.16984 17.8305 5.16984H18.6105C18.2805 4.69984 18.1604 4.17984 18.2805 3.64984C18.4505 2.90984 19.1005 2.37984 19.8805 2.32984C21.8005 2.19984 22.5605 4.34984 22.7705 5.16984H22.8805C23.1005 4.35984 23.8505 2.19984 25.7705 2.32984C26.5505 2.37984 27.2004 2.90984 27.3704 3.64984C27.4904 4.17984 27.3705 4.69984 27.0405 5.16984H27.8204C28.3704 5.16984 28.8105 5.60984 28.8105 6.15984V8.05984H28.8305C28.8305 8.59984 28.3904 9.04984 27.8405 9.04984ZM41.4104 10.9298H41.4204C41.0005 11.3298 39.9904 11.9198 38.9204 12.5498C38.0504 13.0598 37.1105 13.6098 36.2205 14.1998C36.3204 13.8798 36.4304 13.5698 36.5104 13.2298C36.6904 12.4598 36.8505 11.7398 36.9905 11.0398C37.0105 11.0598 37.0405 11.0798 37.0605 11.0998C37.5305 11.4798 38.2304 11.3198 38.4804 10.7698C38.6904 10.3198 38.5805 9.77984 38.2005 9.44984C37.9205 9.20984 37.6505 8.87984 37.4905 8.45984C37.6405 7.61984 37.7705 6.84984 37.8704 6.14984C38.1704 5.69984 38.6004 5.35984 39.1404 5.22984C40.6204 4.88984 42.2205 5.89984 42.8204 7.00984C43.5504 8.38984 42.3204 10.0898 41.4104 10.9298Z" fill="url(#paint0_linear_5654_158133)"/>
<defs>
<linearGradient id="paint0_linear_5654_158133" x1="22.8405" y1="-18.0002" x2="22.8405" y2="-18.0002" gradientUnits="userSpaceOnUse">
<stop stop-color="#F55656"/>
<stop offset="0.99" stop-color="#FA8686"/>
</linearGradient>
</defs>
</svg>
