<svg width="46" height="35" viewBox="0 0 46 35" fill="none" xmlns="http://www.w3.org/2000/svg">
<path d="M44.7806 5.80008H44.7606C43.7506 3.91008 41.2306 2.47008 38.8706 3.02008C38.7006 3.06008 38.5506 3.12008 38.3906 3.18008C38.5806 1.29008 38.5706 0.330078 38.5706 0.330078H7.34061C7.34061 0.330078 7.33061 1.28008 7.52061 3.16008C7.38061 3.11008 7.25061 3.05008 7.10061 3.02008C4.74061 2.47008 2.22061 3.91008 1.21061 5.81008C0.630606 6.91008 -0.0593932 9.26008 3.02061 12.1401C3.61061 12.6801 4.61061 13.2701 5.88061 14.0101C8.24061 15.3901 11.8106 17.4801 12.0706 19.3901C12.1506 19.9601 11.9006 20.5401 11.3006 21.1501C10.9506 21.5001 10.3906 21.4301 9.98061 21.2001C9.73061 21.0601 9.03061 20.5601 9.06061 19.4301C9.07061 18.9801 8.81061 18.5801 8.38061 18.4601L8.22061 18.4201C7.65061 18.2701 7.09061 18.7001 7.07061 19.2901C7.00061 21.1101 7.99061 22.3701 9.00061 22.9401C9.54061 23.2401 10.1206 23.3901 10.6806 23.3901C11.4606 23.3901 12.3606 23.1801 12.9106 22.6201C13.5306 21.9801 13.8706 21.2901 14.0206 20.5701C15.2106 21.5401 16.5506 22.3501 18.0106 23.0001C19.0506 23.4601 20.0906 23.7501 20.9406 23.9301C19.4606 32.1201 15.0606 34.5901 15.0606 34.5901H30.8706C30.8706 34.5901 26.4706 32.1301 24.9906 23.9301C25.8406 23.7501 26.8806 23.4601 27.9206 23.0001C29.4006 22.3401 30.7606 21.5201 31.9606 20.5301C32.1006 21.2601 32.4406 21.9701 33.0806 22.6101C33.6306 23.1701 34.5306 23.3801 35.3106 23.3801C35.8706 23.3801 36.4506 23.2301 36.9906 22.9301C38.0006 22.3601 39.0006 21.1101 38.9206 19.2801C38.9006 18.6901 38.3406 18.2601 37.7706 18.4101L37.6106 18.4501C37.1806 18.5601 36.9206 18.9701 36.9306 19.4201C36.9606 20.5501 36.2606 21.0501 36.0106 21.1901C35.6006 21.4201 35.0306 21.5001 34.6906 21.1401C34.1006 20.5301 33.8406 19.9601 33.9206 19.3801C34.1806 17.4701 37.7506 15.3801 40.1106 14.0001C41.3806 13.2601 42.3806 12.6701 42.9706 12.1301C46.0606 9.25008 45.3706 6.90008 44.7806 5.80008ZM6.91061 12.2901H6.89061C5.82061 11.6601 4.81061 11.0701 4.39061 10.6801C3.49061 9.84008 2.25061 8.13008 2.98061 6.76008C3.57061 5.65008 5.17061 4.64008 6.66061 4.98008C7.16061 5.10008 7.56061 5.40008 7.86061 5.80008C7.97061 6.56008 8.11061 7.39008 8.28061 8.30008C8.12061 8.67008 7.87061 8.98008 7.62061 9.19008C7.24061 9.52008 7.13061 10.0501 7.34061 10.5101C7.59061 11.0601 8.29061 11.2101 8.76061 10.8401L8.78061 10.8201C8.92061 11.5101 9.08061 12.2101 9.26061 12.9701C9.34061 13.2901 9.44061 13.5901 9.54061 13.8901C8.67061 13.3201 7.76061 12.7901 6.91061 12.2901ZM30.3206 10.5001H30.3106C29.7706 11.1201 24.6906 16.8101 23.9606 17.3101C23.4306 17.6801 22.9906 17.6801 22.9906 17.6801C22.9906 17.6801 22.5506 17.6801 22.0206 17.3101C21.2906 16.8101 16.2106 11.1201 15.6706 10.5001C14.7406 9.43008 14.2606 6.31008 17.3206 4.38008C20.3806 2.45008 23.0006 5.42008 23.0006 5.42008H23.0106C23.0106 5.42008 23.0406 5.46008 23.0606 5.49008L25.6006 8.10008C25.8006 8.31008 26.1306 8.31008 26.3306 8.10008C26.5406 7.90008 26.5406 7.57008 26.3406 7.37008L23.8006 4.76008C23.8006 4.76008 23.7706 4.74008 23.7606 4.73008C24.7506 3.99008 26.6106 3.07008 28.6706 4.37008C31.7306 6.30008 31.2506 9.43008 30.3206 10.4901V10.5001ZM41.5706 10.6701H41.5806C41.1606 11.0701 40.1506 11.6601 39.0806 12.2901C38.2106 12.8001 37.2706 13.3501 36.3806 13.9401C36.4806 13.6201 36.5906 13.3101 36.6706 12.9701C36.8506 12.2001 37.0106 11.4801 37.1506 10.7801C37.1706 10.8001 37.2006 10.8201 37.2206 10.8401C37.6906 11.2201 38.3906 11.0601 38.6406 10.5101C38.8506 10.0601 38.7406 9.52008 38.3606 9.19008C38.0806 8.95008 37.8106 8.62008 37.6506 8.20008C37.8006 7.36008 37.9306 6.59008 38.0306 5.89008C38.3306 5.44008 38.7606 5.10008 39.3006 4.97008C40.7806 4.63008 42.3806 5.64008 42.9806 6.75008C43.7106 8.13008 42.4806 9.83008 41.5706 10.6701Z" fill="url(#paint0_linear_5654_158123)"/>
<defs>
<linearGradient id="paint0_linear_5654_158123" x1="23.0006" y1="-17.9999" x2="23.0006" y2="-17.9999" gradientUnits="userSpaceOnUse">
<stop stop-color="#F55353"/>
<stop offset="1" stop-color="#FB8A8A"/>
</linearGradient>
</defs>
</svg>
