<svg width="46" height="35" viewBox="0 0 46 35" fill="none" xmlns="http://www.w3.org/2000/svg">
<path d="M44.7806 5.59988H44.7606C43.7506 3.70988 41.2306 2.26988 38.8706 2.81988C38.7006 2.85988 38.5506 2.91988 38.3906 2.97988C38.5806 1.08988 38.5706 0.129883 38.5706 0.129883H7.34061C7.34061 0.129883 7.33061 1.07988 7.52061 2.95988C7.38061 2.90988 7.25061 2.84988 7.10061 2.81988C4.74061 2.26988 2.22061 3.70988 1.21061 5.60988C0.630606 6.70988 -0.0593932 9.05988 3.02061 11.9399C3.61061 12.4799 4.61061 13.0699 5.88061 13.8099C8.24061 15.1899 11.8106 17.2799 12.0706 19.1899C12.1506 19.7599 11.9006 20.3399 11.3006 20.9499C10.9506 21.2999 10.3906 21.2299 9.98061 20.9999C9.73061 20.8599 9.03061 20.3599 9.06061 19.2299C9.07061 18.7799 8.81061 18.3799 8.38061 18.2599L8.22061 18.2199C7.65061 18.0699 7.09061 18.4999 7.07061 19.0899C7.00061 20.9099 7.99061 22.1699 9.00061 22.7399C9.54061 23.0399 10.1206 23.1899 10.6806 23.1899C11.4606 23.1899 12.3606 22.9799 12.9106 22.4199C13.5306 21.7799 13.8706 21.0899 14.0206 20.3699C15.2106 21.3399 16.5506 22.1499 18.0106 22.7999C19.0506 23.2599 20.0906 23.5499 20.9406 23.7299C19.4606 31.9199 15.0606 34.3899 15.0606 34.3899H30.8706C30.8706 34.3899 26.4706 31.9299 24.9906 23.7299C25.8406 23.5499 26.8806 23.2599 27.9206 22.7999C29.4006 22.1399 30.7606 21.3199 31.9606 20.3299C32.1006 21.0599 32.4406 21.7699 33.0806 22.4099C33.6306 22.9699 34.5306 23.1799 35.3106 23.1799C35.8706 23.1799 36.4506 23.0299 36.9906 22.7299C38.0006 22.1599 39.0006 20.9099 38.9206 19.0799C38.9006 18.4899 38.3406 18.0599 37.7706 18.2099L37.6106 18.2499C37.1806 18.3599 36.9206 18.7699 36.9306 19.2199C36.9606 20.3499 36.2606 20.8499 36.0106 20.9899C35.6006 21.2199 35.0306 21.2999 34.6906 20.9399C34.1006 20.3299 33.8406 19.7599 33.9206 19.1799C34.1806 17.2699 37.7506 15.1799 40.1106 13.7999C41.3806 13.0599 42.3806 12.4699 42.9706 11.9299C46.0606 9.04988 45.3706 6.69988 44.7806 5.59988ZM6.91061 12.0899H6.89061C5.82061 11.4599 4.81061 10.8699 4.39061 10.4799C3.49061 9.63988 2.25061 7.92988 2.98061 6.55988C3.57061 5.44988 5.17061 4.43988 6.66061 4.77988C7.16061 4.89988 7.56061 5.19988 7.86061 5.59988C7.97061 6.35988 8.11061 7.18988 8.28061 8.09988C8.12061 8.46988 7.87061 8.77988 7.62061 8.98988C7.24061 9.31988 7.13061 9.84988 7.34061 10.3099C7.59061 10.8599 8.29061 11.0099 8.76061 10.6399L8.78061 10.6199C8.92061 11.3099 9.08061 12.0099 9.26061 12.7699C9.34061 13.0899 9.44061 13.3899 9.54061 13.6899C8.67061 13.1199 7.76061 12.5899 6.91061 12.0899ZM26.1306 17.0999C26.0806 17.3599 25.7906 17.4699 25.5806 17.3199L22.6406 15.1999L20.6306 16.7099C20.4006 16.8899 20.0606 16.7099 20.0706 16.4099L20.1806 13.3399L25.8306 6.79988L19.0106 12.8499L15.6406 10.7699C15.4006 10.6299 15.4206 10.2799 15.6706 10.1599L27.9806 4.04988C28.2406 3.91988 28.5306 4.13988 28.4806 4.42988L26.1306 17.1099V17.0999ZM41.5706 10.4699H41.5806C41.1606 10.8699 40.1506 11.4599 39.0806 12.0899C38.2106 12.5999 37.2706 13.1499 36.3806 13.7399C36.4806 13.4199 36.5906 13.1099 36.6706 12.7699C36.8506 11.9999 37.0106 11.2799 37.1506 10.5799C37.1706 10.5999 37.2006 10.6199 37.2206 10.6399C37.6906 11.0199 38.3906 10.8599 38.6406 10.3099C38.8506 9.85988 38.7406 9.31988 38.3606 8.98988C38.0806 8.74988 37.8106 8.41988 37.6506 7.99988C37.8006 7.15988 37.9306 6.38988 38.0306 5.68988C38.3306 5.23988 38.7606 4.89988 39.3006 4.76988C40.7806 4.42988 42.3806 5.43988 42.9806 6.54988C43.7106 7.92988 42.4806 9.62988 41.5706 10.4699Z" fill="url(#paint0_linear_5654_158127)"/>
<defs>
<linearGradient id="paint0_linear_5654_158127" x1="23.0006" y1="-18.0001" x2="23.0006" y2="-18.0001" gradientUnits="userSpaceOnUse">
<stop stop-color="#8962F4"/>
<stop offset="1" stop-color="#B7A1FC"/>
</linearGradient>
</defs>
</svg>
