<svg width="46" height="35" viewBox="0 0 46 35" fill="none" xmlns="http://www.w3.org/2000/svg">
<path d="M44.7806 5.68973H44.7606C43.7506 3.79973 41.2306 2.35973 38.8706 2.90973C38.7006 2.94973 38.5506 3.00973 38.3906 3.06973C38.5806 1.17973 38.5706 0.219727 38.5706 0.219727H7.34061C7.34061 0.219727 7.33061 1.16973 7.52061 3.04973C7.38061 2.99973 7.25061 2.93973 7.10061 2.90973C4.74061 2.35973 2.22061 3.79973 1.21061 5.69973C0.630606 6.79973 -0.0593932 9.14973 3.02061 12.0297C3.61061 12.5697 4.61061 13.1597 5.88061 13.8997C8.24061 15.2797 11.8106 17.3697 12.0706 19.2797C12.1506 19.8497 11.9006 20.4297 11.3006 21.0397C10.9506 21.3897 10.3906 21.3197 9.98061 21.0897C9.73061 20.9497 9.03061 20.4497 9.06061 19.3197C9.07061 18.8697 8.81061 18.4697 8.38061 18.3497L8.22061 18.3097C7.65061 18.1597 7.09061 18.5897 7.07061 19.1797C7.00061 20.9997 7.99061 22.2597 9.00061 22.8297C9.54061 23.1297 10.1206 23.2797 10.6806 23.2797C11.4606 23.2797 12.3606 23.0697 12.9106 22.5097C13.5306 21.8697 13.8706 21.1797 14.0206 20.4597C15.2106 21.4297 16.5506 22.2397 18.0106 22.8897C19.0506 23.3497 20.0906 23.6397 20.9406 23.8197C19.4606 32.0097 15.0606 34.4797 15.0606 34.4797H30.8706C30.8706 34.4797 26.4706 32.0197 24.9906 23.8197C25.8406 23.6397 26.8806 23.3497 27.9206 22.8897C29.4006 22.2297 30.7606 21.4097 31.9606 20.4197C32.1006 21.1497 32.4406 21.8597 33.0806 22.4997C33.6306 23.0597 34.5306 23.2697 35.3106 23.2697C35.8706 23.2697 36.4506 23.1197 36.9906 22.8197C38.0006 22.2497 39.0006 20.9997 38.9206 19.1697C38.9006 18.5797 38.3406 18.1497 37.7706 18.2997L37.6106 18.3397C37.1806 18.4497 36.9206 18.8597 36.9306 19.3097C36.9606 20.4397 36.2606 20.9397 36.0106 21.0797C35.6006 21.3097 35.0306 21.3897 34.6906 21.0297C34.1006 20.4197 33.8406 19.8497 33.9206 19.2697C34.1806 17.3597 37.7506 15.2697 40.1106 13.8897C41.3806 13.1497 42.3806 12.5597 42.9706 12.0197C46.0606 9.13973 45.3706 6.78973 44.7806 5.68973ZM6.91061 12.1797H6.89061C5.82061 11.5497 4.81061 10.9597 4.39061 10.5697C3.49061 9.72973 2.25061 8.01973 2.98061 6.64973C3.57061 5.53973 5.17061 4.52973 6.66061 4.86973C7.16061 4.98973 7.56061 5.28973 7.86061 5.68973C7.97061 6.44973 8.11061 7.27973 8.28061 8.18973C8.12061 8.55973 7.87061 8.86973 7.62061 9.07973C7.24061 9.40973 7.13061 9.93973 7.34061 10.3997C7.59061 10.9497 8.29061 11.0997 8.76061 10.7297L8.78061 10.7097C8.92061 11.3997 9.08061 12.0997 9.26061 12.8597C9.34061 13.1797 9.44061 13.4797 9.54061 13.7797C8.67061 13.2097 7.76061 12.6797 6.91061 12.1797ZM29.4606 9.44973L26.7506 12.5197L27.1306 16.4697C27.1506 16.7397 26.9006 16.9297 26.6506 16.8197L22.8906 15.1897L19.2506 16.7697C19.0006 16.8797 18.7406 16.6897 18.7706 16.4197L19.1606 12.3497L16.5306 9.37973C16.3506 9.17973 16.4506 8.86973 16.7106 8.81973L20.7006 7.92973L22.7206 4.50973C22.8606 4.27973 23.1806 4.27973 23.3106 4.50973L25.3906 8.02973L29.2606 8.88973C29.5206 8.94973 29.6206 9.24973 29.4406 9.44973H29.4606ZM41.5706 10.5597H41.5806C41.1606 10.9597 40.1506 11.5497 39.0806 12.1797C38.2106 12.6897 37.2706 13.2397 36.3806 13.8297C36.4806 13.5097 36.5906 13.1997 36.6706 12.8597C36.8506 12.0897 37.0106 11.3697 37.1506 10.6697C37.1706 10.6897 37.2006 10.7097 37.2206 10.7297C37.6906 11.1097 38.3906 10.9497 38.6406 10.3997C38.8506 9.94973 38.7406 9.40973 38.3606 9.07973C38.0806 8.83973 37.8106 8.50973 37.6506 8.08973C37.8006 7.24973 37.9306 6.47973 38.0306 5.77973C38.3306 5.32973 38.7606 4.98973 39.3006 4.85973C40.7806 4.51973 42.3806 5.52973 42.9806 6.63973C43.7106 8.01973 42.4806 9.71973 41.5706 10.5597Z" fill="url(#paint0_linear_5654_158119)"/>
<defs>
<linearGradient id="paint0_linear_5654_158119" x1="23.0006" y1="-18.0003" x2="23.0006" y2="-18.0003" gradientUnits="userSpaceOnUse">
<stop stop-color="#FA84D1"/>
<stop offset="1" stop-color="#F555AF"/>
</linearGradient>
</defs>
</svg>
