<?xml version="1.0" standalone="no"?>
<!DOCTYPE svg PUBLIC "-//W3C//DTD SVG 1.1//EN" "http://www.w3.org/Graphics/SVG/1.1/DTD/svg11.dtd">
<svg t="1749812573417" class="icon" viewBox="0 0 1098 1024" version="1.1"
    xmlns="http://www.w3.org/2000/svg" p-id="3804" xmlns:xlink="http://www.w3.org/1999/xlink"
    width="214.453125" height="200">
    <path
        d="M1024 566.857143l0-475.428571q0-7.460571-5.412571-12.873143t-12.873143-5.412571l-914.285714 0q-7.460571 0-12.873143 5.412571t-5.412571 12.873143l0 475.428571q0 7.460571 5.412571 12.873143t12.873143 5.412571l914.285714 0q7.460571 0 12.873143-5.412571t5.412571-12.873143zM1097.142857 91.428571l0 621.714286q0 37.741714-26.843429 64.585143t-64.585143 26.843429l-310.857143 0q0 21.138286 9.142857 44.251429t18.285714 40.594286 9.142857 24.868571q0 14.848-10.825143 25.746286t-25.746286 10.825143l-292.571429 0q-14.848 0-25.746286-10.825143t-10.825143-25.746286q0-7.972571 9.142857-25.161143t18.285714-40.009143 9.142857-44.544l-310.857143 0q-37.741714 0-64.585143-26.843429t-26.843429-64.585143l0-621.714286q0-37.741714 26.843429-64.585143t64.585143-26.843429l914.285714 0q37.741714 0 64.585143 26.843429t26.843429 64.585143z"
        fill="#ffffff" p-id="3805"></path>
</svg>